<?xml version="1.0" encoding="UTF-8"?>
<svg id="Layer_2" data-name="Layer 2" xmlns="http://www.w3.org/2000/svg" viewBox="0 0 473.06 178.51001">
  <defs>
    <style>
      .cls-1 {
        fill: #dc1f36;
      }

      .cls-1, .cls-2, .cls-3, .cls-4, .cls-5, .cls-6, .cls-7, .cls-8, .cls-9 {
        stroke: #1d1d1b;
        stroke-miterlimit: 10;
      }

      .cls-2 {
        fill: #cc98a5;
      }

      .cls-2, .cls-4, .cls-5, .cls-6, .cls-7 {
        stroke-width: .5px;
      }

      .cls-3 {
        fill: #127193;
      }

      .cls-4 {
        fill: #177294;
      }

      .cls-5 {
        fill: #d45e24;
      }

      .cls-6 {
        fill: #ecd018;
      }

      .cls-7 {
        fill: #e30613;
      }

      .cls-8 {
        fill: #ede6d9;
      }

      .cls-9 {
        fill: #ecd114;
      }
    </style>
  </defs>
  <g id="Calque_1" data-name="Calque 1">
    <g>
      <rect class="cls-7" x="10.7" y="95.35001" width="455.20998" height="11.29001"/>
      <rect class="cls-5" x=".25" y="84.18002" width="472.56" height="11.29001"/>
      <rect class="cls-6" x="3.26" y="79.95001" width="458.08998" height="4.26001"/>
      <rect class="cls-2" x="17.29" y="72.33002" width="452.50999" height="7.62"/>
      <rect class="cls-4" x="17.29" y="106.34" width="439.23002" height="7.62"/>
      <g>
        <path class="cls-3" d="M135.68,123.27002c-2.57001-1.51001-4.92-2.73999-7.03999-3.69s-4.42999-1.79999-6.92-2.54999c-2.5-.76001-4.96001-1.13-7.38-1.13-1.89,0-3.44,.29999-4.64999,.89999-1.21001,.60001-1.82001,1.60999-1.82001,3.04001,0,1.35001,.60001,2.44,1.82001,3.26001,1.21001,.82999,2.92999,1.57999,5.17,2.25,2.23,.67001,4.89999,1.5,8,2.47,4.99001,1.5,9.31,3.23001,12.94,5.17001,3.63,1.95001,6.42999,4.44,8.39999,7.48001s2.95,7.07001,2.95,12.09-.87,8.82999-2.61,12.09-4.09,5.87-7.03999,7.82001-6.24001,3.35999-9.88,4.22c-3.63,.85999-7.34,1.29001-11.12,1.29001s-7.89-.39999-12.09-1.19-8.27-1.89001-12.2-3.29001c-3.94-1.39999-7.53-3.04999-10.78-4.94l9.53999-19.41c3.03,1.82001,5.78999,3.29001,8.28999,4.42999,2.5,1.14001,5.28,2.16,8.34,3.06s6.14999,1.35999,9.25,1.35999c2.42,0,4.10001-.31,5.05-.92001,.95-.60999,1.42-1.42999,1.42-2.44,0-1.57999-.83-2.79999-2.5-3.66-1.67-.85999-3.84-1.69-6.53-2.48001s-5.66-1.70999-8.91-2.76001c-4.69-1.57999-8.55-3.35999-11.58-5.35001-3.03-1.98999-5.25999-4.35999-6.7-7.10001-1.44-2.73999-2.16-6.07001-2.16-9.98001,0-5.94,1.39999-10.89999,4.2-14.88s6.49001-7.01001,11.07001-9.07999c4.58-2.07001,9.52-3.10001,14.81-3.10001,3.92999,0,7.74001,.47,11.41,1.42001s7.11,2.10001,10.33,3.45999,6.03,2.64999,8.46001,3.85999l-9.53999,18.28-.00002,.00006Z"/>
        <path class="cls-3" d="M228.20002,96.82001v80.60001h-22.13v-31.56h-27.02v31.56h-22.14V96.82001h22.14v29.73999h27.02v-29.73999h22.13Z"/>
        <path class="cls-3" d="M278.38001,177.99002c-6.13,0-11.69-1.14999-16.69-3.45999s-9.29001-5.41-12.88-9.31-6.35999-8.29001-8.29001-13.17001c-1.92999-4.88-2.89999-9.92999-2.89999-15.14999s1.01999-10.48001,3.07001-15.32001c2.04001-4.84,4.89999-9.17999,8.57001-13s8.01999-6.82999,13.04999-9.01999,10.54001-3.29001,16.51999-3.29001,11.69,1.14999,16.69,3.45999,9.26999,5.42999,12.82999,9.37,6.29999,8.34,8.23001,13.23001c1.92999,4.88,2.89999,9.89999,2.89999,15.04001s-1,10.37-3.01001,15.20999-4.84,9.17999-8.51001,13-8,6.85001-13,9.07999c-5,2.23001-10.51999,3.35001-16.57001,3.35001l-.00995-.01999Zm-18.28-40.87c0,2.72,.38,5.35001,1.14001,7.89001s1.89001,4.81,3.41,6.81c1.51001,2.01001,3.42001,3.60001,5.73001,4.76999,2.31,1.17001,5.04999,1.76001,8.23001,1.76001s5.94-.60001,8.29001-1.82001c2.34-1.20999,4.26001-2.85999,5.73001-4.94,1.48001-2.07999,2.57001-4.39001,3.29001-6.92001s1.07999-5.13,1.07999-7.78-.38-5.32999-1.13-7.82999c-.76001-2.5-1.89001-4.75-3.41-6.75-1.51001-2-3.45001-3.57999-5.79001-4.70999-2.35001-1.14001-5.07001-1.70001-8.17001-1.70001s-5.92001,.60999-8.23001,1.82001c-2.31,1.20999-4.22,2.82001-5.73001,4.82001-1.51001,2.01001-2.63,4.28-3.35001,6.81-.72,2.54001-1.07999,5.13-1.07999,7.78l-.01001-.01001Z"/>
        <path class="cls-3" d="M350.91001,96.82001h20.32001l7.38,24.85999,7.48999-24.85999h20.32001l-13.62,38.48001,5.79001,16.45999,17.37-54.94h24.07001l-30.42001,80.60001h-19.17999l-11.81-28.82999-11.69,28.82999h-19.17999l-30.42001-80.60001h23.95001l17.48001,54.94,5.56-16.45999-13.39999-38.48001h-.01004Z"/>
      </g>
      <g>
        <path class="cls-1" d="M130.96,119.97c-2.57001-1.51001-4.92-2.73999-7.03999-3.69s-4.42999-1.79999-6.92-2.54999c-2.5-.76001-4.96001-1.13-7.38-1.13-1.89,0-3.44,.29999-4.64999,.89999-1.21001,.60001-1.82001,1.60999-1.82001,3.04001,0,1.35001,.60001,2.44,1.82001,3.26001,1.21001,.82999,2.92999,1.57999,5.17,2.25,2.23,.67001,4.89999,1.5,8,2.47,4.99001,1.5,9.31,3.23001,12.94,5.17001,3.63,1.95001,6.42999,4.44,8.39999,7.48001s2.95,7.07001,2.95,12.09-.87,8.82999-2.61,12.09-4.09,5.87-7.03999,7.82001-6.24001,3.35999-9.88,4.22c-3.63,.85999-7.34,1.29001-11.12,1.29001s-7.89-.39999-12.09-1.19-8.27-1.89001-12.2-3.29001c-3.94-1.39999-7.53-3.04999-10.78-4.94l9.53999-19.41c3.03,1.82001,5.78999,3.29001,8.28999,4.42999,2.5,1.14001,5.28,2.16,8.34,3.06s6.14999,1.35999,9.25,1.35999c2.42,0,4.10001-.31,5.05-.92001,.95-.60999,1.42-1.42999,1.42-2.44,0-1.57999-.83-2.79999-2.5-3.66-1.67-.85999-3.84-1.69-6.53-2.48001s-5.66-1.70999-8.91-2.76001c-4.69-1.57999-8.55-3.35999-11.58-5.35001-3.03-1.98999-5.25999-4.35999-6.7-7.10001-1.44-2.73999-2.16-6.07001-2.16-9.98001,0-5.94,1.39999-10.89999,4.2-14.88s6.49001-7.01001,11.07001-9.07999c4.58-2.07001,9.52-3.10001,14.81-3.10001,3.92999,0,7.74001,.47,11.41,1.42001s7.11,2.10001,10.33,3.45999,6.03,2.64999,8.46001,3.85999l-9.53999,18.28-.00002,.00006Z"/>
        <path class="cls-1" d="M223.47001,93.52002v80.60001h-22.13v-31.56h-27.02v31.56h-22.14V93.52002h22.14v29.73999h27.02v-29.73999h22.13Z"/>
        <path class="cls-1" d="M273.65,174.68002c-6.13,0-11.69-1.14999-16.69-3.45999s-9.29001-5.41-12.88-9.31-6.35999-8.29001-8.29001-13.17001c-1.92999-4.88-2.89999-9.92999-2.89999-15.14999s1.01999-10.48001,3.07001-15.32001c2.04001-4.84,4.89999-9.17999,8.57001-13s8.01999-6.82999,13.04999-9.01999,10.54001-3.29001,16.51999-3.29001,11.69,1.14999,16.69,3.45999,9.26999,5.42999,12.82999,9.37,6.29999,8.34,8.23001,13.23001c1.92999,4.88,2.89999,9.89999,2.89999,15.04001s-1,10.37-3.01001,15.20999-4.84,9.17999-8.51001,13-8,6.85001-13,9.07999c-5,2.23001-10.51999,3.35001-16.57001,3.35001l-.00995-.01999Zm-18.28-40.87c0,2.72,.38,5.35001,1.14001,7.89001s1.89001,4.81,3.41,6.81c1.51001,2.01001,3.42001,3.60001,5.73001,4.76999,2.31,1.17001,5.04999,1.76001,8.23001,1.76001s5.94-.60001,8.29001-1.82001c2.34-1.20999,4.26001-2.85999,5.73001-4.94,1.48001-2.07999,2.57001-4.39001,3.29001-6.92001s1.07999-5.13,1.07999-7.78-.38-5.32999-1.13-7.82999c-.76001-2.5-1.89001-4.75-3.41-6.75-1.51001-2-3.45001-3.57999-5.79001-4.70999-2.35001-1.14001-5.07001-1.70001-8.17001-1.70001s-5.92001,.60999-8.23001,1.82001c-2.31,1.20999-4.22,2.82001-5.73001,4.82001-1.51001,2.01001-2.63,4.28-3.35001,6.81-.72,2.54001-1.07999,5.13-1.07999,7.78l-.01001-.01001Z"/>
        <path class="cls-1" d="M346.19001,93.52002h20.32001l7.38,24.85999,7.48999-24.85999h20.32001l-13.62,38.48001,5.79001,16.45999,17.37-54.94h24.07001l-30.42001,80.60001h-19.17999l-11.81-28.82999-11.69,28.82999h-19.17999l-30.42001-80.60001h23.95001l17.48001,54.94,5.56-16.45999-13.39999-38.48001h-.01004Z"/>
      </g>
      <g>
        <path class="cls-9" d="M127.48999,116.5c-2.57001-1.51001-4.92-2.73999-7.03999-3.69s-4.42999-1.79999-6.92-2.54999c-2.5-.76001-4.96001-1.13-7.38-1.13-1.89,0-3.44,.29999-4.64999,.89999-1.21001,.60001-1.82001,1.60999-1.82001,3.04001,0,1.35001,.60001,2.44,1.82001,3.26001,1.21001,.82999,2.92999,1.57999,5.17,2.25,2.23,.67001,4.89999,1.5,8,2.47,4.99001,1.5,9.31,3.23001,12.94,5.17001,3.63,1.95001,6.42999,4.44,8.39999,7.48001s2.95,7.07001,2.95,12.09-.87,8.82999-2.61,12.09-4.09,5.87-7.03999,7.82001-6.24001,3.35999-9.88,4.22c-3.63,.85999-7.34,1.29001-11.12,1.29001s-7.89-.39999-12.09-1.19-8.27-1.89001-12.2-3.29001c-3.94-1.39999-7.53-3.04999-10.78-4.94l9.53999-19.41c3.03,1.82001,5.78999,3.29001,8.28999,4.42999,2.5,1.14001,5.28,2.16,8.34,3.06s6.14999,1.35999,9.25,1.35999c2.42,0,4.10001-.31,5.05-.92001,.95-.60999,1.42-1.42999,1.42-2.44,0-1.57999-.83-2.79999-2.5-3.66-1.67-.85999-3.84-1.69-6.53-2.48001s-5.66-1.70999-8.91-2.76001c-4.69-1.57999-8.55-3.35999-11.58-5.35001-3.03-1.98999-5.25999-4.35999-6.7-7.10001-1.44-2.73999-2.16-6.07001-2.16-9.98001,0-5.94,1.39999-10.89999,4.2-14.88s6.49001-7.01001,11.07001-9.07999c4.58-2.07001,9.52-3.10001,14.81-3.10001,3.92999,0,7.74001,.47,11.41,1.42001s7.11,2.10001,10.33,3.45999,6.03,2.64999,8.46001,3.85999l-9.53999,18.28-.00002,.00006Z"/>
        <path class="cls-9" d="M220.01001,90.05002v80.60001h-22.14001v-31.56h-27.02v31.56h-22.14V90.05002h22.14v29.73999h27.02v-29.73999h22.14001Z"/>
        <path class="cls-9" d="M270.18,171.22c-6.13,0-11.69-1.14999-16.69-3.45999s-9.29001-5.41-12.88-9.31-6.35999-8.29001-8.29001-13.17001c-1.92999-4.88-2.89999-9.92999-2.89999-15.14999s1.01999-10.48001,3.07001-15.32001c2.04001-4.84,4.89999-9.17999,8.57001-13s8.01999-6.82999,13.04999-9.01999,10.54001-3.29001,16.51999-3.29001,11.69,1.14999,16.69,3.45999,9.26999,5.42999,12.82999,9.37,6.29999,8.34,8.23001,13.23001c1.92999,4.88,2.89999,9.89999,2.89999,15.04001s-1,10.37-3.01001,15.20999-4.84,9.17999-8.51001,13-8,6.85001-13,9.07999c-5,2.23001-10.51999,3.35001-16.57001,3.35001l-.00995-.01999Zm-18.28-40.87c0,2.72,.38,5.35001,1.14001,7.89001s1.89001,4.81,3.41,6.81c1.51001,2.01001,3.42001,3.60001,5.73001,4.76999,2.31,1.17001,5.04999,1.76001,8.23001,1.76001s5.94-.60001,8.29001-1.82001c2.34-1.20999,4.26001-2.85999,5.73001-4.94,1.48001-2.07999,2.57001-4.39001,3.29001-6.92001s1.07999-5.13,1.07999-7.78-.38-5.32999-1.13-7.82999c-.76001-2.5-1.89001-4.75-3.41-6.75-1.51001-2-3.45001-3.57999-5.79001-4.70999-2.35001-1.14001-5.07001-1.70001-8.17001-1.70001s-5.92001,.60999-8.23001,1.82001c-2.31,1.20999-4.22,2.82001-5.73001,4.82001-1.51001,2.01001-2.63,4.28-3.35001,6.81-.72,2.54001-1.07999,5.13-1.07999,7.78l-.01001-.01001Z"/>
        <path class="cls-9" d="M342.72001,90.05002h20.32001l7.38,24.86002,7.48999-24.85999h20.32001l-13.62,38.48001,5.79001,16.45999,17.37-54.94h24.07001l-30.42001,80.60001h-19.17999l-11.81-28.82999-11.69,28.82999h-19.17999l-30.42001-80.60001h23.95001l17.48001,54.94,5.56-16.45999-13.39999-38.48001-.01004-.00003Z"/>
      </g>
      <g>
        <path class="cls-3" d="M59.22001,92.49002V11.89001h55.28V31.19002h-33.14999v13.39999h27.02v17.93999h-27.02v29.97h-22.14l.00999-.00998Z"/>
        <path class="cls-3" d="M123.13001,92.49002V11.89001h22.14V92.49002h-22.14Z"/>
        <path class="cls-3" d="M181.25,52.88001v39.62h-22.14V11.89999h17.25l32.34999,40.98001V11.90001h22.13V92.5h-17.59l-32.00999-39.62h.00999Z"/>
        <path class="cls-3" d="M263.32001,11.90001h24.75l25.66,80.59999h-22.48001l-4.17001-15.78h-22.76999l-4.17001,15.78h-22.59l25.76999-80.60001,.00003,.00002Zm19.85999,50.06001l-7.48999-28.38-7.48999,28.38h14.97998Z"/>
        <path class="cls-3" d="M320.41999,92.49002V11.89001h22.14001v61.29999h36.54999v19.29999h-58.69v.00003Z"/>
      </g>
      <g>
        <path class="cls-1" d="M54.49,89.19V8.59h55.27999V27.89h-33.14999v13.39999h27.02v17.93999h-27.02v29.97h-22.14l.01-.00998Z"/>
        <path class="cls-1" d="M118.4,89.19V8.59h22.14V89.19h-22.14Z"/>
        <path class="cls-1" d="M176.52001,49.57001v39.62h-22.14V8.59h17.25l32.35001,40.98001V8.59001h22.13998V89.19h-17.60001l-32.00999-39.62h.01001Z"/>
        <path class="cls-1" d="M258.59,8.59001h24.75l25.66,80.59999h-22.48001l-4.17001-15.78h-22.76999l-4.17001,15.78h-22.59l25.76999-80.60001,.00003,.00002Zm19.86002,50.06001l-7.48999-28.38-7.48999,28.38h14.97998Z"/>
        <path class="cls-1" d="M315.69001,89.19V8.59h22.14001v61.29999h36.54999v19.29999h-58.69v.00003Z"/>
      </g>
      <g>
        <path class="cls-9" d="M49.07,85.73001V5.13001h55.28001V24.43001h-33.14999v13.39999h27.02v17.93999h-27.02v29.97h-22.14l.00999-.00998Z"/>
        <path class="cls-9" d="M112.98,85.73001V5.13001h22.14V85.73001h-22.14Z"/>
        <path class="cls-9" d="M171.09999,46.11002v39.62h-22.14V5.13001h17.25l32.35001,40.98001V5.13002h22.13V85.73001h-17.59l-32.00999-39.62h.00998Z"/>
        <path class="cls-9" d="M253.16999,5.13001h24.75l25.66,80.60001h-22.48001l-4.17001-15.78h-22.76999l-4.17001,15.78h-22.59L253.16996,5.13001h.00003Zm19.85999,50.06l-7.48999-28.38-7.48999,28.38h14.97998Z"/>
        <path class="cls-9" d="M310.26999,85.73001V5.13001h22.13998v61.29999h36.54999v19.29999h-58.69l.00003,.00003Z"/>
      </g>
      <g>
        <path class="cls-8" d="M123.62,113.84c-2.57001-1.51001-4.92-2.73999-7.03999-3.69s-4.42999-1.79999-6.92-2.54999c-2.5-.76001-4.96001-1.13-7.38-1.13-1.89,0-3.44,.29999-4.64999,.89999-1.21001,.60001-1.82001,1.60999-1.82001,3.04001,0,1.35001,.60001,2.44,1.82001,3.26001,1.21001,.82999,2.92999,1.57999,5.17,2.25,2.23,.67001,4.89999,1.5,8,2.47,4.99001,1.5,9.31,3.23001,12.94,5.17001,3.63,1.95001,6.42999,4.44,8.39999,7.48001s2.95,7.07001,2.95,12.09-.87,8.82999-2.61,12.09-4.09,5.87-7.03999,7.82001-6.24001,3.35999-9.88,4.22c-3.63,.85999-7.34,1.29001-11.12,1.29001s-7.89-.39999-12.09-1.19-8.27-1.89001-12.2-3.29001c-3.94-1.39999-7.53-3.04999-10.78-4.94l9.53999-19.41c3.03,1.82001,5.78999,3.29001,8.28999,4.42999,2.5,1.14001,5.28,2.16,8.34,3.06s6.14999,1.35999,9.25,1.35999c2.42,0,4.10001-.31,5.05-.92001,.95-.60999,1.42-1.42999,1.42-2.44,0-1.57999-.83-2.79999-2.5-3.66-1.67-.85999-3.84-1.69-6.53-2.48001s-5.66-1.70999-8.91-2.76001c-4.69-1.57999-8.55-3.35999-11.58-5.35001-3.03-1.98999-5.25999-4.35999-6.7-7.10001-1.44-2.73999-2.16-6.07001-2.16-9.98001,0-5.94,1.39999-10.89999,4.2-14.88s6.49001-7.01001,11.07001-9.07999c4.58-2.07001,9.52-3.10001,14.81-3.10001,3.92999,0,7.74001,.47,11.41,1.42001s7.11,2.10001,10.33,3.45999,6.03,2.64999,8.46001,3.85999l-9.53999,18.28-.00002,.00006Z"/>
        <path class="cls-8" d="M216.13001,87.39001v80.60001h-22.14v-31.56h-27.02v31.56h-22.14V87.39001h22.14v29.73999h27.02v-29.73999h22.14Z"/>
        <path class="cls-8" d="M266.31,168.55002c-6.13,0-11.69-1.14999-16.69-3.45999s-9.29001-5.41-12.88-9.31-6.35999-8.29001-8.29001-13.17001c-1.92999-4.88-2.89999-9.92999-2.89999-15.14999s1.01999-10.48001,3.07001-15.32001c2.04001-4.84,4.89999-9.17999,8.57001-13s8.01999-6.82999,13.04999-9.01999,10.54001-3.29001,16.51999-3.29001,11.69,1.14999,16.69,3.45999,9.26999,5.42999,12.82999,9.37,6.29999,8.34,8.23001,13.23001c1.92999,4.88,2.89999,9.89999,2.89999,15.04001s-1,10.37-3.01001,15.20999-4.84,9.17999-8.51001,13-8,6.85001-13,9.07999c-5,2.23001-10.51999,3.35001-16.57001,3.35001l-.00995-.01999Zm-18.28-40.87c0,2.72,.38,5.35001,1.14001,7.89001s1.89001,4.81,3.41,6.81c1.51001,2.01001,3.42001,3.60001,5.73001,4.76999,2.31,1.17001,5.04999,1.76001,8.23001,1.76001s5.94-.60001,8.29001-1.82001c2.34-1.20999,4.26001-2.85999,5.73001-4.94,1.48001-2.07999,2.57001-4.39001,3.29001-6.92001s1.07999-5.13,1.07999-7.78-.38-5.32999-1.13-7.82999c-.76001-2.5-1.89001-4.75-3.41-6.75-1.51001-2-3.45001-3.57999-5.79001-4.70999-2.35001-1.14001-5.07001-1.70001-8.17001-1.70001s-5.92001,.60999-8.23001,1.82001c-2.31,1.20999-4.22,2.82001-5.73001,4.82001-1.51001,2.01001-2.63,4.28-3.35001,6.81-.72,2.54001-1.07999,5.13-1.07999,7.78l-.01001-.01001Z"/>
        <path class="cls-8" d="M338.85001,87.39001h20.32001l7.38,24.85999,7.48999-24.85999h20.32001l-13.62,38.48001,5.79001,16.45999,17.37-54.94h24.07001l-30.42001,80.60001h-19.17999l-11.81-28.82999-11.69,28.82999h-19.17999l-30.42001-80.60001h23.95001l17.48001,54.94,5.56-16.45999-13.39999-38.48001h-.01004Z"/>
      </g>
      <g>
        <path class="cls-8" d="M45.19,81.10001V.5h55.28001V19.8h-33.14999v13.39999h27.02v17.93999h-27.02v29.97h-22.14l.00999-.00998Z"/>
        <path class="cls-8" d="M109.09999,81.10001V.5h22.14V81.10001h-22.14Z"/>
        <path class="cls-8" d="M167.22001,41.48001v39.62h-22.14V.5h17.25l32.34999,40.98V.5h22.14001V81.10001h-17.60001l-32.00999-39.62h.00999Z"/>
        <path class="cls-8" d="M249.29999,.50002h24.75l25.66,80.59999h-22.48001l-4.17001-15.78h-22.76999l-4.17001,15.78h-22.59L249.29996,.5l.00003,.00002Zm19.85999,50.06001l-7.48999-28.38-7.48999,28.38h14.97998Z"/>
        <path class="cls-8" d="M306.4,81.10001V.5h22.13998V61.79999h36.54999v19.29999h-58.69l.00003,.00003Z"/>
      </g>
    </g>
  </g>
</svg>