{
  "accessors": [
    {
      "bufferView": 2,
      "componentType": 5126,
      "count": 134,
      "max": [
        14.920748710632324,
        9.991800308227539,
        4.87269926071167
      ],
      "min": [
        -14.920748710632324,
        -13.817750930786133,
        -4.97847167935106e-07
      ],
      "type": "VEC3"
    },
    {
      "bufferView": 2,
      "byteOffset": 1608,
      "componentType": 5126,
      "count": 134,
      "max": [
        0.5852167010307312,
        0.491496205329895,
        1.0
      ],
      "min": [
        -0.5852167010307312,
        -0.5815517902374268,
        -0.8708784580230713
      ],
      "type": "VEC3"
    },
    {
      "bufferView": 1,
      "componentType": 5126,
      "count": 134,
      "max": [
        778.739990234375,
        767.322998046875
      ],
      "min": [
        -778.739990234375,
        -628.0360107421875
      ],
      "type": "VEC2"
    },
    {
      "bufferView": 0,
      "componentType": 5125,
      "count": 240,
      "type": "SCALAR"
    },
    {
      "bufferView": 2,
      "byteOffset": 3216,
      "componentType": 5126,
      "count": 46233,
      "max": [
        14.680497169494629,
        13.302509307861328,
        15.086798667907715
      ],
      "min": [
        -14.680497169494629,
        -13.567489624023438,
        1.939399242401123
      ],
      "type": "VEC3"
    },
    {
      "bufferView": 2,
      "byteOffset": 558012,
      "componentType": 5126,
      "count": 46233,
      "max": [
        1.0,
        1.0,
        1.0
      ],
      "min": [
        -1.0,
        -1.0,
        -1.0
      ],
      "type": "VEC3"
    },
    {
      "bufferView": 1,
      "byteOffset": 1072,
      "componentType": 5126,
      "count": 46233,
      "max": [
        382.677001953125,
        517.7109985351563
      ],
      "min": [
        -305.3139953613281,
        -140.53700256347656
      ],
      "type": "VEC2"
    },
    {
      "bufferView": 0,
      "byteOffset": 960,
      "componentType": 5125,
      "count": 87750,
      "type": "SCALAR"
    },
    {
      "bufferView": 2,
      "byteOffset": 1112808,
      "componentType": 5126,
      "count": 1440,
      "max": [
        14.310497283935547,
        5.842510223388672,
        12.811599731445313
      ],
      "min": [
        -14.310497283935547,
        -13.197490692138672,
        4.538299083709717
      ],
      "type": "VEC3"
    },
    {
      "bufferView": 2,
      "byteOffset": 1130088,
      "componentType": 5126,
      "count": 1440,
      "max": [
        1.0,
        1.0,
        1.0719802958192304e-05
      ],
      "min": [
        -1.0,
        -1.0,
        -7.906488463049755e-06
      ],
      "type": "VEC3"
    },
    {
      "bufferView": 1,
      "byteOffset": 370936,
      "componentType": 5126,
      "count": 1440,
      "max": [
        60.88529968261719,
        410.43798828125
      ],
      "min": [
        -170.1510009765625,
        61.16189956665039
      ],
      "type": "VEC2"
    },
    {
      "bufferView": 0,
      "byteOffset": 351960,
      "componentType": 5125,
      "count": 2688,
      "type": "SCALAR"
    },
    {
      "bufferView": 2,
      "byteOffset": 1147368,
      "componentType": 5126,
      "count": 172,
      "max": [
        4.790496826171875,
        5.822509765625,
        14.985239028930664
      ],
      "min": [
        -4.790496826171875,
        -9.94839096069336,
        10.581798553466797
      ],
      "type": "VEC3"
    },
    {
      "bufferView": 2,
      "byteOffset": 1149432,
      "componentType": 5126,
      "count": 172,
      "max": [
        1.0,
        1.0,
        1.0
      ],
      "min": [
        -1.0,
        0.0,
        -1.0
      ],
      "type": "VEC3"
    },
    {
      "bufferView": 1,
      "byteOffset": 382456,
      "componentType": 5126,
      "count": 172,
      "max": [
        62.99209976196289,
        114.17300415039063
      ],
      "min": [
        -169.91900634765625,
        3.9984400272369385
      ],
      "type": "VEC2"
    },
    {
      "bufferView": 0,
      "byteOffset": 362712,
      "componentType": 5125,
      "count": 318,
      "type": "SCALAR"
    },
    {
      "bufferView": 2,
      "byteOffset": 1151496,
      "componentType": 5126,
      "count": 1802,
      "max": [
        14.390497207641602,
        9.791799545288086,
        14.386798858642578
      ],
      "min": [
        -14.390497207641602,
        -13.567489624023438,
        2.398998737335205
      ],
      "type": "VEC3"
    },
    {
      "bufferView": 2,
      "byteOffset": 1173120,
      "componentType": 5126,
      "count": 1802,
      "max": [
        1.0,
        1.0,
        0.054964106529951096
      ],
      "min": [
        -1.0,
        -1.0,
        -2.1233443476376124e-05
      ],
      "type": "VEC3"
    },
    {
      "bufferView": 1,
      "byteOffset": 383832,
      "componentType": 5126,
      "count": 1802,
      "max": [
        188.61599731445313,
        499.6199951171875
      ],
      "min": [
        -300.5899963378906,
        -5.012310028076172
      ],
      "type": "VEC2"
    },
    {
      "bufferView": 0,
      "byteOffset": 363984,
      "componentType": 5125,
      "count": 4575,
      "type": "SCALAR"
    },
    {
      "bufferView": 2,
      "byteOffset": 1194744,
      "componentType": 5126,
      "count": 1536,
      "max": [
        4.14814567565918,
        9.149210929870605,
        12.791799545288086
      ],
      "min": [
        -4.14814567565918,
        7.976905822753906,
        6.181799411773682
      ],
      "type": "VEC3"
    },
    {
      "bufferView": 2,
      "byteOffset": 1213176,
      "componentType": 5126,
      "count": 1536,
      "max": [
        1.0,
        1.0,
        0.42367270588874817
      ],
      "min": [
        -1.0,
        -1.0,
        -0.7829525470733643
      ],
      "type": "VEC3"
    },
    {
      "bufferView": 1,
      "byteOffset": 398248,
      "componentType": 5126,
      "count": 1536,
      "max": [
        30.598787307739258,
        264.8570251464844
      ],
      "min": [
        -30.598787307739258,
        -0.22049500048160553
      ],
      "type": "VEC2"
    },
    {
      "bufferView": 0,
      "byteOffset": 382284,
      "componentType": 5125,
      "count": 2304,
      "type": "SCALAR"
    },
    {
      "bufferView": 2,
      "byteOffset": 1231608,
      "componentType": 5126,
      "count": 4,
      "max": [
        31.985017776489258,
        0.0,
        11.672012329101563
      ],
      "min": [
        -3.2040233612060547,
        0.0,
        -23.51702880859375
      ],
      "type": "VEC3"
    },
    {
      "bufferView": 2,
      "byteOffset": 1231656,
      "componentType": 5126,
      "count": 4,
      "max": [
        0.0,
        1.0,
        -0.0
      ],
      "min": [
        0.0,
        1.0,
        -0.0
      ],
      "type": "VEC3"
    },
    {
      "bufferView": 1,
      "byteOffset": 410536,
      "componentType": 5126,
      "count": 4,
      "max": [
        10.5,
        10.5
      ],
      "min": [
        -9.5,
        -9.5
      ],
      "type": "VEC2"
    },
    {
      "bufferView": 0,
      "byteOffset": 391500,
      "componentType": 5125,
      "count": 6,
      "type": "SCALAR"
    }
  ],
  "asset": {
    "extras": {
      "author": "SCADL & Co (https://sketchfab.com/scadl)",
      "license": "CC-BY-4.0 (http://creativecommons.org/licenses/by/4.0/)",
      "source": "https://sketchfab.com/3d-models/townhall-d8c5403ff1954eec8abc9e096b3376ee",
      "title": "TownHall"
    },
    "generator": "Sketchfab-12.68.0",
    "version": "2.0"
  },
  "bufferViews": [
    {
      "buffer": 0,
      "byteLength": 391524,
      "name": "floatBufferViews",
      "target": 34963
    },
    {
      "buffer": 0,
      "byteLength": 410568,
      "byteOffset": 391524,
      "byteStride": 8,
      "name": "floatBufferViews",
      "target": 34962
    },
    {
      "buffer": 0,
      "byteLength": 1231704,
      "byteOffset": 802092,
      "byteStride": 12,
      "name": "floatBufferViews",
      "target": 34962
    }
  ],
  "buffers": [
    {
      "byteLength": 2033796,
      "uri": "scene.bin"
    }
  ],
  "images": [
    {
      "uri": "textures/Ground_baseColor.png"
    }
  ],
  "materials": [
    {
      "doubleSided": true,
      "name": "RoofingClay",
      "pbrMetallicRoughness": {
        "baseColorFactor": [
          0.584079,
          0.246201,
          0.107023,
          1.0
        ],
        "metallicFactor": 0.0
      }
    },
    {
      "doubleSided": true,
      "name": "FrontColor",
      "pbrMetallicRoughness": {
        "baseColorFactor": [
          0.7,
          0.7,
          0.7,
          1.0
        ],
        "metallicFactor": 0.0
      }
    },
    {
      "alphaMode": "BLEND",
      "doubleSided": true,
      "name": "WindowLight",
      "pbrMetallicRoughness": {
        "baseColorFactor": [
          0.21586,
          0.491021,
          0.584079,
          0.9
        ],
        "metallicFactor": 0.0,
        "roughnessFactor": 0.0
      }
    },
    {
      "doubleSided": true,
      "name": "Wooden",
      "pbrMetallicRoughness": {
        "baseColorFactor": [
          0.262251,
          0.111932,
          0.0512695,
          1.0
        ],
        "metallicFactor": 0.0
      }
    },
    {
      "doubleSided": true,
      "name": "Stena",
      "pbrMetallicRoughness": {
        "baseColorFactor": [
          0.361523,
          0.626662,
          0.450785,
          1.0
        ],
        "metallicFactor": 0.0,
        "roughnessFactor": 0.5
      }
    },
    {
      "doubleSided": true,
      "name": "Ground",
      "pbrMetallicRoughness": {
        "baseColorTexture": {
          "index": 0
        },
        "metallicFactor": 0.0,
        "roughnessFactor": 0.5
      }
    }
  ],
  "meshes": [
    {
      "name": "Object_0",
      "primitives": [
        {
          "attributes": {
            "NORMAL": 1,
            "POSITION": 0,
            "TEXCOORD_0": 2
          },
          "indices": 3,
          "material": 0,
          "mode": 4
        }
      ]
    },
    {
      "name": "Object_1",
      "primitives": [
        {
          "attributes": {
            "NORMAL": 5,
            "POSITION": 4,
            "TEXCOORD_0": 6
          },
          "indices": 7,
          "material": 1,
          "mode": 4
        }
      ]
    },
    {
      "name": "Object_2",
      "primitives": [
        {
          "attributes": {
            "NORMAL": 9,
            "POSITION": 8,
            "TEXCOORD_0": 10
          },
          "indices": 11,
          "material": 2,
          "mode": 4
        }
      ]
    },
    {
      "name": "Object_3",
      "primitives": [
        {
          "attributes": {
            "NORMAL": 13,
            "POSITION": 12,
            "TEXCOORD_0": 14
          },
          "indices": 15,
          "material": 3,
          "mode": 4
        }
      ]
    },
    {
      "name": "Object_4",
      "primitives": [
        {
          "attributes": {
            "NORMAL": 17,
            "POSITION": 16,
            "TEXCOORD_0": 18
          },
          "indices": 19,
          "material": 4,
          "mode": 4
        }
      ]
    },
    {
      "name": "Object_5",
      "primitives": [
        {
          "attributes": {
            "NORMAL": 21,
            "POSITION": 20,
            "TEXCOORD_0": 22
          },
          "indices": 23,
          "material": 1,
          "mode": 4
        }
      ]
    },
    {
      "name": "Object_6",
      "primitives": [
        {
          "attributes": {
            "NORMAL": 25,
            "POSITION": 24,
            "TEXCOORD_0": 26
          },
          "indices": 27,
          "material": 5,
          "mode": 4
        }
      ]
    }
  ],
  "nodes": [
    {
      "children": [
        1
      ],
      "matrix": [
        1.0,
        0.0,
        0.0,
        0.0,
        0.0,
        2.220446049250313e-16,
        -1.0,
        0.0,
        0.0,
        1.0,
        2.220446049250313e-16,
        0.0,
        0.0,
        0.0,
        0.0,
        1.0
      ],
      "name": "Sketchfab_model"
    },
    {
      "children": [
        2
      ],
      "name": "root"
    },
    {
      "children": [
        3,
        9,
        11
      ],
      "matrix": [
        1.0,
        0.0,
        0.0,
        0.0,
        0.0,
        2.220446049250313e-16,
        1.0,
        0.0,
        0.0,
        -1.0,
        2.220446049250313e-16,
        0.0,
        0.0,
        0.0,
        0.0,
        1.0
      ],
      "name": "GLTF_SceneRootNode"
    },
    {
      "children": [
        4,
        5,
        6,
        7,
        8
      ],
      "matrix": [
        1.0,
        0.0,
        0.0,
        0.0,
        0.0,
        -1.685873969314855e-07,
        0.9999999999999858,
        0.0,
        0.0,
        -0.9999999999999858,
        -1.685873969314855e-07,
        0.0,
        14.390497207641602,
        15.086799621582031,
        -5.9225077629089355,
        1.0
      ],
      "name": "TownHall_2"
    },
    {
      "mesh": 0,
      "name": "Object_4"
    },
    {
      "mesh": 1,
      "name": "Object_5"
    },
    {
      "mesh": 2,
      "name": "Object_6"
    },
    {
      "mesh": 3,
      "name": "Object_7"
    },
    {
      "mesh": 4,
      "name": "Object_8"
    },
    {
      "children": [
        10
      ],
      "matrix": [
        1.0,
        0.0,
        0.0,
        0.0,
        0.0,
        -1.685873969314855e-07,
        0.9999999999999858,
        0.0,
        0.0,
        -0.9999999999999858,
        -1.685873969314855e-07,
        0.0,
        14.390497207641602,
        15.086799621582031,
        -5.9225077629089355,
        1.0
      ],
      "name": "Columns_3"
    },
    {
      "mesh": 5,
      "name": "Object_10"
    },
    {
      "children": [
        12
      ],
      "name": "Plane_4"
    },
    {
      "mesh": 6,
      "name": "Object_12"
    }
  ],
  "samplers": [
    {
      "magFilter": 9729,
      "minFilter": 9987,
      "wrapS": 10497,
      "wrapT": 10497
    }
  ],
  "scene": 0,
  "scenes": [
    {
      "name": "Sketchfab_Scene",
      "nodes": [
        0
      ]
    }
  ],
  "textures": [
    {
      "sampler": 0,
      "source": 0
    }
  ]
}
