{"asset":{"generator":"3D Builder","version":"2.0"},"scene":0,"scenes":[{"nodes":[0]}],"nodes":[{"children":[1,2]},{"mesh":0,"matrix":[39.370079040527344,0,0,0,0,-4.6932791519793682E-6,-39.370075225830078,0,0,39.370075225830078,-4.6932791519793682E-6,0,53.026214599609375,3.624276359914802E-6,-13.034859657287598,1]},{"mesh":1,"matrix":[39.370079040527344,0,0,0,0,-4.6932791519793682E-6,-39.370075225830078,0,0,39.370075225830078,-4.6932791519793682E-6,0,53.026214599609375,3.624276359914802E-6,-13.034859657287598,1]}],"meshes":[{"primitives":[{"attributes":{"POSITION":0,"TEXCOORD_0":1},"mode":4,"indices":2,"material":0}]},{"primitives":[{"attributes":{"POSITION":3,"TEXCOORD_0":4},"mode":4,"indices":5,"material":0}]}],"materials":[{"pbrMetallicRoughness":{"baseColorFactor":[1,1,1,1],"metallicFactor":1,"roughnessFactor":1,"baseColorTexture":{"index":0,"texCoord":0},"metallicRoughnessTexture":{"index":1,"texCoord":0}},"alphaMode":"OPAQUE"}],"textures":[{"source":0,"sampler":0},{"source":1,"sampler":0}],"images":[{"uri":"Material_25_diffuse_6195987693227547908.png"},{"uri":"Material_25_specularGlossiness_17319628118832143767.png"}],"samplers":[{"magFilter":9729,"wrapS":10497,"wrapT":10497}],"accessors":[{"bufferView":0,"byteOffset":0,"count":38289,"componentType":5126,"type":"VEC3","min":[-1.6203303337097168,-0.85738176107406616,-1.3152509836800164E-7],"max":[-1.0734175443649292,0.17787151038646698,1.3260831832885742]},{"bufferView":1,"byteOffset":0,"count":38289,"componentType":5126,"type":"VEC2"},{"bufferView":2,"byteOffset":0,"count":107298,"componentType":5125,"type":"SCALAR"},{"bufferView":3,"byteOffset":0,"count":8,"componentType":5126,"type":"VEC3","min":[-1.309586763381958,0.16847343742847443,0.091389074921607971],"max":[-1.245527982711792,0.19519428908824921,0.093929067254066467]},{"bufferView":4,"byteOffset":0,"count":8,"componentType":5126,"type":"VEC2"},{"bufferView":5,"byteOffset":0,"count":36,"componentType":5125,"type":"SCALAR"}],"bufferViews":[{"buffer":0,"byteOffset":0,"byteLength":459468,"byteStride":12,"target":34962},{"buffer":0,"byteOffset":459468,"byteLength":306312,"byteStride":8,"target":34962},{"buffer":0,"byteOffset":765780,"byteLength":429192,"target":34963},{"buffer":0,"byteOffset":1194972,"byteLength":96,"byteStride":12,"target":34962},{"buffer":0,"byteOffset":1195068,"byteLength":64,"byteStride":8,"target":34962},{"buffer":0,"byteOffset":1195132,"byteLength":144,"target":34963}],"buffers":[{"byteLength":1195276,"uri":"scene.bin"}]}