{"accessors" : [{"bufferView" : 0, "byteOffset" : 0, "componentType" : 5123, "count" : 600, "type" : "SCALAR", "max" : [519], "min" : [0]}, {"bufferView" : 1, "byteOffset" : 0, "componentType" : 5126, "count" : 520, "type" : "VEC3", "max" : [3.1593480110168457, 13.183361053466797, 3.1593480110168457], "min" : [-3.1593480110168457, 12.443385124206543, -3.159348964691162], "name" : "POSITION"}, {"bufferView" : 1, "byteOffset" : 12, "componentType" : 5126, "count" : 520, "type" : "VEC2", "max" : [0.65625, 0], "min" : [0.34375, -1], "name" : "TEXCOORD_0"}, {"bufferView" : 1, "byteOffset" : 20, "componentType" : 5126, "count" : 520, "type" : "VEC3", "max" : [0.9889628291130066, 1.0000044107437134, 0.9889628291130066], "min" : [-0.9889629483222961, -1.0000044107437134, -0.9889629483222961], "name" : "NORMAL"}, {"bufferView" : 0, "byteOffset" : 1200, "componentType" : 5123, "count" : 480, "type" : "SCALAR", "max" : [419], "min" : [0]}, {"bufferView" : 2, "byteOffset" : 0, "componentType" : 5126, "count" : 420, "type" : "VEC3", "max" : [-0.5121260285377502, 11.639806747436523, 0.06799399852752686], "min" : [-1.9890559911727905, 9.867488861083984, -0.06799399852752686], "name" : "POSITION"}, {"bufferView" : 2, "byteOffset" : 12, "componentType" : 5126, "count" : 420, "type" : "VEC2", "max" : [0.65625, 0], "min" : [0.34375, -1], "name" : "TEXCOORD_0"}, {"bufferView" : 2, "byteOffset" : 20, "componentType" : 5126, "count" : 420, "type" : "VEC3", "max" : [0.7750493288040161, 0.7622954845428467, 1.0000025033950806], "min" : [-0.7750515937805176, -0.7623005509376526, -1.0000025033950806], "name" : "NORMAL"}, {"bufferView" : 0, "byteOffset" : 2160, "componentType" : 5123, "count" : 1200, "type" : "SCALAR", "max" : [1017], "min" : [0]}, {"bufferView" : 3, "byteOffset" : 0, "componentType" : 5126, "count" : 1018, "type" : "VEC3", "max" : [1, 12.366869926452637, 1], "min" : [-1, 12.026585578918457, -1], "name" : "POSITION"}, {"bufferView" : 3, "byteOffset" : 12, "componentType" : 5126, "count" : 1018, "type" : "VEC2", "max" : [1, -0], "min" : [0, -1], "name" : "TEXCOORD_0"}, {"bufferView" : 3, "byteOffset" : 20, "componentType" : 5126, "count" : 1018, "type" : "VEC3", "max" : [1.0000044107437134, 1.0000044107437134, 1.0000044107437134], "min" : [-1.0000044107437134, -1.0000044107437134, -1.0000044107437134], "name" : "NORMAL"}, {"bufferView" : 0, "byteOffset" : 4560, "componentType" : 5123, "count" : 480, "type" : "SCALAR", "max" : [419], "min" : [0]}, {"bufferView" : 4, "byteOffset" : 0, "componentType" : 5126, "count" : 420, "type" : "VEC3", "max" : [0.6347709894180298, 11.695108413696289, 0.6347709894180298], "min" : [-0.6347709894180298, 11.342458724975586, -0.6347709894180298], "name" : "POSITION"}, {"bufferView" : 4, "byteOffset" : 12, "componentType" : 5126, "count" : 420, "type" : "VEC2", "max" : [0.65625, 0], "min" : [0.34375, -1], "name" : "TEXCOORD_0"}, {"bufferView" : 4, "byteOffset" : 20, "componentType" : 5126, "count" : 420, "type" : "VEC3", "max" : [1.0000044107437134, 1.0000044107437134, 1.0000044107437134], "min" : [-1.0000044107437134, -1.0000044107437134, -1.0000044107437134], "name" : "NORMAL"}, {"bufferView" : 0, "byteOffset" : 5520, "componentType" : 5123, "count" : 600, "type" : "SCALAR", "max" : [519], "min" : [0]}, {"bufferView" : 5, "byteOffset" : 0, "componentType" : 5126, "count" : 520, "type" : "VEC3", "max" : [-1.1327580213546753, 10.869758605957031, 0.1699559986591339], "min" : [-2.0612070560455322, 9.807961463928223, -0.1699559986591339], "name" : "POSITION"}, {"bufferView" : 5, "byteOffset" : 12, "componentType" : 5126, "count" : 520, "type" : "VEC2", "max" : [0.65625, 0], "min" : [0.34375, -1], "name" : "TEXCOORD_0"}, {"bufferView" : 5, "byteOffset" : 20, "componentType" : 5126, "count" : 520, "type" : "VEC3", "max" : [0.8249649405479431, 0.7918106913566589, 0.9999315738677979], "min" : [-0.9823756814002991, -0.9999988079071045, -0.9999315738677979], "name" : "NORMAL"}, {"bufferView" : 0, "byteOffset" : 6720, "componentType" : 5123, "count" : 720, "type" : "SCALAR", "max" : [619], "min" : [0]}, {"bufferView" : 6, "byteOffset" : 0, "componentType" : 5126, "count" : 620, "type" : "VEC3", "max" : [0.584201991558075, 12.37351131439209, 0.584201991558075], "min" : [-0.584201991558075, 1.251567006111145, -0.584201991558075], "name" : "POSITION"}, {"bufferView" : 6, "byteOffset" : 12, "componentType" : 5126, "count" : 620, "type" : "VEC2", "max" : [0.65625, 0], "min" : [0.34375, -1], "name" : "TEXCOORD_0"}, {"bufferView" : 6, "byteOffset" : 20, "componentType" : 5126, "count" : 620, "type" : "VEC3", "max" : [1.0000044107437134, 1.0000044107437134, 1.0000044107437134], "min" : [-1.0000044107437134, -1.0000044107437134, -1.0000044107437134], "name" : "NORMAL"}, {"bufferView" : 0, "byteOffset" : 8160, "componentType" : 5123, "count" : 2040, "type" : "SCALAR", "max" : [1717], "min" : [0]}, {"bufferView" : 7, "byteOffset" : 0, "componentType" : 5126, "count" : 1718, "type" : "VEC3", "max" : [3.2389049530029297, 12.492250442504883, 3.2389049530029297], "min" : [-3.2389070987701416, 11.271373748779297, -3.238908052444458], "name" : "POSITION"}, {"bufferView" : 7, "byteOffset" : 12, "componentType" : 5126, "count" : 1718, "type" : "VEC2", "max" : [1, -0], "min" : [0, -1], "name" : "TEXCOORD_0"}, {"bufferView" : 7, "byteOffset" : 20, "componentType" : 5126, "count" : 1718, "type" : "VEC3", "max" : [0.9999604225158691, 1.0000044107437134, 0.9999604225158691], "min" : [-0.9999604225158691, -1.0000044107437134, -0.9999604225158691], "name" : "NORMAL"}, {"bufferView" : 0, "byteOffset" : 12240, "componentType" : 5123, "count" : 720, "type" : "SCALAR", "max" : [619], "min" : [0]}, {"bufferView" : 8, "byteOffset" : 0, "componentType" : 5126, "count" : 620, "type" : "VEC3", "max" : [3.533379077911377, 1.1392929553985596, 3.5333800315856934], "min" : [-3.533379077911377, -0.043797001242637634, -3.5333800315856934], "name" : "POSITION"}, {"bufferView" : 8, "byteOffset" : 12, "componentType" : 5126, "count" : 620, "type" : "VEC2", "max" : [0.65625, 0], "min" : [0.34375, -1], "name" : "TEXCOORD_0"}, {"bufferView" : 8, "byteOffset" : 20, "componentType" : 5126, "count" : 620, "type" : "VEC3", "max" : [0.5713345408439636, 1.0000044107437134, 0.5713356733322144], "min" : [-0.5713334083557129, -1.0000044107437134, -0.5713334083557129], "name" : "NORMAL"}, {"bufferView" : 0, "byteOffset" : 13680, "componentType" : 5123, "count" : 3072, "type" : "SCALAR", "max" : [2579], "min" : [0]}, {"bufferView" : 9, "byteOffset" : 0, "componentType" : 5126, "count" : 2580, "type" : "VEC3", "max" : [3.1408519744873047, 5.822171211242676, 3.1408519744873047], "min" : [-3.140852928161621, 5.210316181182861, -3.140852928161621], "name" : "POSITION"}, {"bufferView" : 9, "byteOffset" : 12, "componentType" : 5126, "count" : 2580, "type" : "VEC2", "max" : [1, 0], "min" : [0, -1], "name" : "TEXCOORD_0"}, {"bufferView" : 9, "byteOffset" : 20, "componentType" : 5126, "count" : 2580, "type" : "VEC3", "max" : [1.0000044107437134, 1.0000044107437134, 1.0000044107437134], "min" : [-1.0000044107437134, -1.0000044107437134, -1.0000044107437134], "name" : "NORMAL"}, {"bufferView" : 0, "byteOffset" : 19824, "componentType" : 5123, "count" : 1080, "type" : "SCALAR", "max" : [919], "min" : [0]}, {"bufferView" : 10, "byteOffset" : 0, "componentType" : 5126, "count" : 920, "type" : "VEC3", "max" : [0.6916130185127258, 1.4193179607391357, 0.6916130185127258], "min" : [-0.6916130185127258, 1.1167019605636597, -0.6916130185127258], "name" : "POSITION"}, {"bufferView" : 10, "byteOffset" : 12, "componentType" : 5126, "count" : 920, "type" : "VEC2", "max" : [1, 0], "min" : [0, -1], "name" : "TEXCOORD_0"}, {"bufferView" : 10, "byteOffset" : 20, "componentType" : 5126, "count" : 920, "type" : "VEC3", "max" : [1.0000044107437134, 1.0000044107437134, 1.0000044107437134], "min" : [-1.0000044107437134, -1.0000044107437134, -1.0000044107437134], "name" : "NORMAL"}], "asset" : {"generator" : "Aspose.3D 22.6", "version" : "2.0"}, "buffers" : [{"uri" : "data:application/octet-stream;base64,", "byteLength" : 373772}], "bufferViews" : [{"buffer" : 0, "byteOffset" : 0, "byteLength" : 21984, "target" : 34963}, {"buffer" : 0, "byteOffset" : 21988, "byteLength" : 19200, "byteStride" : 32, "target" : 34962}, {"buffer" : 0, "byteOffset" : 41192, "byteLength" : 15360, "byteStride" : 32, "target" : 34962}, {"buffer" : 0, "byteOffset" : 56556, "byteLength" : 38400, "byteStride" : 32, "target" : 34962}, {"buffer" : 0, "byteOffset" : 94960, "byteLength" : 15360, "byteStride" : 32, "target" : 34962}, {"buffer" : 0, "byteOffset" : 110324, "byteLength" : 19200, "byteStride" : 32, "target" : 34962}, {"buffer" : 0, "byteOffset" : 129528, "byteLength" : 23040, "byteStride" : 32, "target" : 34962}, {"buffer" : 0, "byteOffset" : 152572, "byteLength" : 65280, "byteStride" : 32, "target" : 34962}, {"buffer" : 0, "byteOffset" : 217856, "byteLength" : 23040, "byteStride" : 32, "target" : 34962}, {"buffer" : 0, "byteOffset" : 240900, "byteLength" : 98304, "byteStride" : 32, "target" : 34962}, {"buffer" : 0, "byteOffset" : 339208, "byteLength" : 34560, "byteStride" : 32, "target" : 34962}], "meshes" : [{"primitives" : [{"attributes" : {"POSITION" : 1, "TEXCOORD_0" : 2, "NORMAL" : 3}, "indices" : 0, "mode" : 4}], "name" : ""}, {"primitives" : [{"attributes" : {"POSITION" : 5, "TEXCOORD_0" : 6, "NORMAL" : 7}, "indices" : 4, "mode" : 4}], "name" : ""}, {"primitives" : [{"attributes" : {"POSITION" : 9, "TEXCOORD_0" : 10, "NORMAL" : 11}, "indices" : 8, "mode" : 4}], "name" : ""}, {"primitives" : [{"attributes" : {"POSITION" : 13, "TEXCOORD_0" : 14, "NORMAL" : 15}, "indices" : 12, "mode" : 4}], "name" : ""}, {"primitives" : [{"attributes" : {"POSITION" : 17, "TEXCOORD_0" : 18, "NORMAL" : 19}, "indices" : 16, "mode" : 4}], "name" : ""}, {"primitives" : [{"attributes" : {"POSITION" : 21, "TEXCOORD_0" : 22, "NORMAL" : 23}, "indices" : 20, "mode" : 4}], "name" : ""}, {"primitives" : [{"attributes" : {"POSITION" : 25, "TEXCOORD_0" : 26, "NORMAL" : 27}, "indices" : 24, "mode" : 4}], "name" : ""}, {"primitives" : [{"attributes" : {"POSITION" : 29, "TEXCOORD_0" : 30, "NORMAL" : 31}, "indices" : 28, "mode" : 4}], "name" : ""}, {"primitives" : [{"attributes" : {"POSITION" : 33, "TEXCOORD_0" : 34, "NORMAL" : 35}, "indices" : 32, "mode" : 4}], "name" : ""}, {"primitives" : [{"attributes" : {"POSITION" : 37, "TEXCOORD_0" : 38, "NORMAL" : 39}, "indices" : 36, "mode" : 4}], "name" : ""}], "nodes" : [{"mesh" : 0, "name" : "cushion_GEO stool_GEO_GRP"}, {"mesh" : 1, "name" : "stool_GEO_GRP pedal_Bar_GEO"}, {"mesh" : 2, "name" : "stool_GEO_GRP seatbar_Connector_GEO"}, {"mesh" : 3, "name" : "stool_GEO_GRP pedal_Connector_GEO"}, {"mesh" : 4, "name" : "stool_GEO_GRP pedal_GEO"}, {"mesh" : 5, "name" : "stool_GEO_GRP seatbar_GEO"}, {"mesh" : 6, "name" : "stool_GEO_GRP seat_Rim_GEO"}, {"mesh" : 7, "name" : "stool_GEO_GRP base_GEO"}, {"mesh" : 8, "name" : "stool_GEO_GRP footRest_GEO"}, {"mesh" : 9, "name" : "stool_GEO_GRP bade_Connector_GEO"}], "scene" : 0, "scenes" : [{"nodes" : [0, 1, 2, 3, 4, 5, 6, 7, 8, 9]}]}