<svg width="667" height="667" viewBox="0 0 667 667" fill="none" xmlns="http://www.w3.org/2000/svg">
<path d="M333.5 667C517.687 667 667 517.687 667 333.5C667 149.313 517.687 0 333.5 0C149.313 0 0 149.313 0 333.5C0 517.687 149.313 667 333.5 667Z" fill="#6DEAA8"/>
<path d="M80.06 454.15L53.51 319.19L53.31 318.39C53.31 317.19 54.04 316.59 55.51 316.59H74.68C76.28 316.59 77.14 317.32 77.28 318.79L91.26 402.04C91.39 402.44 91.59 402.64 91.86 402.64C92.13 402.64 92.32 402.44 92.46 402.04L105.04 318.79C105.17 317.33 106.04 316.59 107.64 316.59H123.61C125.21 316.59 126.07 317.32 126.21 318.79L139.79 402.04C139.92 402.44 140.12 402.64 140.39 402.64C140.65 402.64 140.85 402.44 140.99 402.04L153.57 318.79C153.7 317.33 154.57 316.59 156.17 316.59H174.74C176.47 316.59 177.2 317.46 176.94 319.19L151.59 454.15C151.46 455.62 150.59 456.35 148.99 456.35H132.02C130.42 456.35 129.56 455.62 129.42 454.15L116 369.3C115.87 368.77 115.67 368.5 115.4 368.5C115.13 368.5 114.93 368.77 114.8 369.3L102.42 454.15C102.29 455.62 101.42 456.35 99.82 456.35H82.66C81.06 456.35 80.19 455.62 80.06 454.15Z" fill="#010F39"/>
<path d="M241.98 454.15L238.19 433.19C238.19 432.52 237.79 432.19 236.99 432.19H208.04C207.24 432.19 206.84 432.46 206.84 432.99L202.85 454.15C202.72 455.62 201.85 456.35 200.25 456.35H181.88C180.15 456.35 179.48 455.49 179.88 453.75L209.23 318.79C209.49 317.33 210.36 316.59 211.83 316.59H233.19C234.65 316.59 235.52 317.32 235.79 318.79L265.34 453.75V454.55C265.34 455.75 264.61 456.35 263.14 456.35H244.57C242.98 456.35 242.11 455.62 241.98 454.15ZM211.83 414.02H233.59C234.39 414.02 234.72 413.69 234.59 413.02L223.61 352.73C223.48 352.33 223.28 352.13 223.01 352.13C222.74 352.13 222.54 352.33 222.41 352.73L210.83 413.02C210.7 413.69 211.03 414.02 211.83 414.02Z" fill="#010F39"/>
<path d="M289.49 447.86C282.7 441.14 279.31 432.45 279.31 421.8V416.21C279.31 415.54 279.54 414.98 280.01 414.51C280.47 414.05 281.04 413.81 281.71 413.81H299.68C300.34 413.81 300.91 414.04 301.38 414.51C301.84 414.98 302.08 415.54 302.08 416.21V420.6C302.08 425.79 303.41 429.98 306.07 433.18C308.73 436.37 312.06 437.97 316.05 437.97C320.17 437.97 323.57 436.47 326.23 433.48C328.89 430.49 330.22 426.53 330.22 421.6C330.22 418.27 329.49 415.31 328.02 412.72C326.55 410.12 324.53 407.7 321.93 405.43C319.33 403.17 315.11 399.91 309.25 395.65C302.59 390.86 297.24 386.6 293.18 382.87C289.12 379.15 285.72 374.65 283 369.4C280.27 364.14 278.91 358.05 278.91 351.13C278.91 340.08 282.24 331.3 288.89 324.78C295.54 318.26 304.26 315 315.04 315C326.22 315 335.2 318.43 341.99 325.28C348.78 332.14 352.17 341.22 352.17 352.53V357.32C352.17 357.99 351.93 358.55 351.47 359.02C351 359.49 350.44 359.72 349.77 359.72H331.6C330.93 359.72 330.37 359.49 329.9 359.02C329.43 358.56 329.2 357.99 329.2 357.32V352.13C329.2 346.94 327.9 342.78 325.31 339.65C322.71 336.52 319.29 334.96 315.03 334.96C311.17 334.96 307.97 336.39 305.45 339.25C302.92 342.11 301.66 346.07 301.66 351.13C301.66 355.92 303.02 359.98 305.75 363.31C308.48 366.64 313.84 371.23 321.82 377.08C329.94 383.2 336.06 388.13 340.19 391.85C344.31 395.58 347.51 399.7 349.77 404.23C352.03 408.76 353.16 414.15 353.16 420.4C353.16 431.71 349.73 440.8 342.88 447.65C336.02 454.51 327.07 457.93 316.03 457.93C305.13 457.94 296.28 454.58 289.49 447.86Z" fill="#010F39"/>
<path d="M431.84 454.15L428.05 433.19C428.05 432.52 427.65 432.19 426.85 432.19H397.9C397.1 432.19 396.7 432.46 396.7 432.99L392.71 454.15C392.58 455.62 391.71 456.35 390.11 456.35H371.74C370.01 456.35 369.34 455.49 369.74 453.75L399.09 318.79C399.35 317.33 400.22 316.59 401.69 316.59H423.05C424.51 316.59 425.38 317.32 425.65 318.79L455.2 453.75V454.55C455.2 455.75 454.47 456.35 453 456.35H434.43C432.84 456.35 431.97 455.62 431.84 454.15ZM401.69 414.02H423.45C424.25 414.02 424.58 413.69 424.45 413.02L413.47 352.73C413.33 352.33 413.14 352.13 412.87 352.13C412.6 352.13 412.4 352.33 412.27 352.73L400.69 413.02C400.56 413.69 400.89 414.02 401.69 414.02Z" fill="#010F39"/>
<path d="M541.94 446.36C534.82 453.02 525.54 456.34 514.09 456.34H478.95C478.28 456.34 477.72 456.11 477.25 455.64C476.78 455.18 476.55 454.61 476.55 453.94V318.99C476.55 318.33 476.78 317.76 477.25 317.29C477.71 316.83 478.28 316.59 478.95 316.59H510.49C523.13 316.59 533.05 319.78 540.24 326.17C547.43 332.56 551.02 341.88 551.02 354.12C551.02 367.83 546.16 377.61 536.45 383.47C535.78 383.87 535.65 384.27 536.05 384.67C541.24 388 545.3 392.46 548.23 398.05C551.16 403.64 552.62 410.3 552.62 418.01C552.62 430.26 549.06 439.71 541.94 446.36ZM499.72 337.56V374.69C499.72 375.36 500.05 375.69 500.72 375.69H510.9C516.36 375.69 520.61 374.03 523.68 370.7C526.74 367.37 528.27 362.65 528.27 356.52C528.27 350.13 526.74 345.21 523.68 341.75C520.62 338.29 516.36 336.56 510.9 336.56H500.72C500.05 336.56 499.72 336.89 499.72 337.56ZM524.87 430.59C527.93 426.87 529.46 421.61 529.46 414.82C529.46 407.9 527.93 402.48 524.87 398.55C521.81 394.63 517.61 392.66 512.29 392.66H500.71C500.04 392.66 499.71 392.99 499.71 393.66V435.19C499.71 435.86 500.04 436.19 500.71 436.19H512.29C517.62 436.18 521.81 434.32 524.87 430.59Z" fill="#010F39"/>
<path d="M574.48 455.65C574.01 455.19 573.78 454.62 573.78 453.95V318.99C573.78 318.33 574.01 317.76 574.48 317.29C574.94 316.83 575.51 316.59 576.18 316.59H594.55C595.22 316.59 595.78 316.82 596.25 317.29C596.71 317.76 596.95 318.32 596.95 318.99V453.95C596.95 454.62 596.72 455.18 596.25 455.65C595.78 456.12 595.22 456.35 594.55 456.35H576.18C575.51 456.35 574.95 456.12 574.48 455.65Z" fill="#010F39"/>
<path d="M160 278.35C155.38 273.78 153.08 267.88 153.08 260.63V256.83C153.08 256.38 153.24 255.99 153.56 255.68C153.88 255.36 154.26 255.2 154.71 255.2H166.93C167.38 255.2 167.77 255.36 168.08 255.68C168.4 256 168.56 256.38 168.56 256.83V259.82C168.56 263.35 169.46 266.2 171.28 268.37C173.09 270.54 175.35 271.63 178.07 271.63C180.87 271.63 183.18 270.61 184.99 268.58C186.8 266.54 187.7 263.85 187.7 260.5C187.7 258.24 187.2 256.22 186.21 254.46C185.21 252.69 183.83 251.04 182.07 249.5C180.31 247.96 177.43 245.75 173.45 242.85C168.92 239.59 165.28 236.7 162.52 234.16C159.76 231.63 157.45 228.57 155.6 225C153.74 221.43 152.82 217.28 152.82 212.58C152.82 205.07 155.08 199.09 159.61 194.66C164.13 190.23 170.06 188.01 177.4 188.01C185 188.01 191.11 190.34 195.73 195C200.35 199.66 202.65 205.84 202.65 213.53V216.79C202.65 217.24 202.49 217.63 202.17 217.94C201.85 218.26 201.47 218.42 201.02 218.42H188.67C188.22 218.42 187.83 218.26 187.52 217.94C187.2 217.62 187.04 217.24 187.04 216.79V213.26C187.04 209.73 186.16 206.9 184.39 204.77C182.62 202.64 180.29 201.58 177.4 201.58C174.77 201.58 172.6 202.55 170.88 204.5C169.16 206.45 168.3 209.14 168.3 212.58C168.3 215.84 169.23 218.6 171.08 220.86C172.93 223.12 176.58 226.25 182.01 230.23C187.53 234.39 191.69 237.74 194.5 240.28C197.3 242.82 199.48 245.62 201.02 248.7C202.56 251.78 203.33 255.44 203.33 259.7C203.33 267.39 201 273.57 196.34 278.23C191.68 282.89 185.59 285.22 178.08 285.22C170.64 285.2 164.62 282.92 160 278.35Z" fill="#010F39"/>
<path d="M266.78 189.56C267.1 189.88 267.26 190.26 267.26 190.71V201.03C267.26 201.48 267.1 201.87 266.78 202.18C266.46 202.5 266.08 202.66 265.63 202.66H248.39C247.94 202.66 247.71 202.89 247.71 203.34V282.49C247.71 282.94 247.55 283.33 247.23 283.64C246.91 283.96 246.53 284.12 246.08 284.12H233.59C233.14 284.12 232.75 283.96 232.44 283.64C232.12 283.32 231.96 282.94 231.96 282.49V203.34C231.96 202.89 231.73 202.66 231.28 202.66H214.99C214.54 202.66 214.15 202.5 213.84 202.18C213.52 201.86 213.36 201.48 213.36 201.03V190.71C213.36 190.26 213.52 189.87 213.84 189.56C214.16 189.24 214.54 189.08 214.99 189.08H265.63C266.08 189.08 266.46 189.24 266.78 189.56Z" fill="#010F39"/>
<path d="M288.09 277.67C283.43 272.65 281.1 266.02 281.1 257.78V190.71C281.1 190.26 281.26 189.87 281.58 189.56C281.9 189.24 282.28 189.08 282.73 189.08H295.22C295.67 189.08 296.06 189.24 296.37 189.56C296.69 189.88 296.85 190.26 296.85 190.71V259.41C296.85 263.03 297.75 265.97 299.57 268.23C301.38 270.49 303.78 271.62 306.77 271.62C309.76 271.62 312.15 270.49 313.97 268.23C315.78 265.97 316.68 263.03 316.68 259.41V190.71C316.68 190.26 316.84 189.87 317.16 189.56C317.48 189.24 317.86 189.08 318.31 189.08H330.8C331.25 189.08 331.64 189.24 331.95 189.56C332.27 189.88 332.43 190.26 332.43 190.71V257.78C332.43 266.02 330.08 272.65 325.37 277.67C320.66 282.69 314.46 285.2 306.77 285.2C298.97 285.2 292.75 282.69 288.09 277.67Z" fill="#010F39"/>
<path d="M349.19 283.64C348.87 283.32 348.72 282.94 348.72 282.49V190.71C348.72 190.26 348.88 189.87 349.19 189.56C349.51 189.24 349.89 189.08 350.34 189.08H373.56C381.34 189.08 387.56 191.43 392.23 196.14C396.89 200.85 399.22 207.14 399.22 215.01V258.18C399.22 266.05 396.89 272.35 392.23 277.05C387.57 281.76 381.34 284.11 373.56 284.11H350.34C349.89 284.12 349.5 283.96 349.19 283.64ZM365.14 270.54L373.29 270.4C376.28 270.4 378.7 269.2 380.55 266.8C382.4 264.4 383.38 261.21 383.47 257.23V215.96C383.47 211.89 382.54 208.65 380.69 206.25C378.83 203.85 376.32 202.65 373.16 202.65H365.15C364.7 202.65 364.47 202.88 364.47 203.33V269.85C364.46 270.32 364.68 270.54 365.14 270.54Z" fill="#010F39"/>
<path d="M416.66 283.64C416.34 283.32 416.19 282.94 416.19 282.49V190.71C416.19 190.26 416.35 189.87 416.66 189.56C416.98 189.24 417.36 189.08 417.81 189.08H430.3C430.75 189.08 431.14 189.24 431.45 189.56C431.77 189.88 431.93 190.26 431.93 190.71V282.49C431.93 282.94 431.77 283.33 431.45 283.64C431.13 283.96 430.75 284.12 430.3 284.12H417.81C417.36 284.12 416.97 283.96 416.66 283.64Z" fill="#010F39"/>
<path d="M455.49 278.14C450.74 273.44 448.36 267.19 448.36 259.41V213.79C448.36 206.01 450.74 199.76 455.49 195.05C460.24 190.34 466.51 187.99 474.29 187.99C482.07 187.99 488.36 190.34 493.16 195.05C497.96 199.76 500.36 206 500.36 213.79V259.41C500.36 267.2 497.96 273.44 493.16 278.14C488.36 282.85 482.07 285.2 474.29 285.2C466.51 285.2 460.24 282.85 455.49 278.14ZM481.76 268.44C483.66 266.31 484.61 263.53 484.61 260.09V213.12C484.61 209.68 483.66 206.9 481.76 204.77C479.86 202.64 477.37 201.58 474.29 201.58C471.21 201.58 468.75 202.65 466.89 204.77C465.03 206.9 464.11 209.68 464.11 213.12V260.09C464.11 263.53 465.04 266.31 466.89 268.44C468.74 270.57 471.21 271.63 474.29 271.63C477.37 271.63 479.86 270.57 481.76 268.44Z" fill="#010F39"/>
</svg>
