<svg xmlns="http://www.w3.org/2000/svg" xmlns:xlink="http://www.w3.org/1999/xlink" width="433" height="673" viewBox="0 0 433 673">
  <defs>
    <clipPath id="clip-path">
      <rect width="433" height="673" fill="none"/>
    </clipPath>
  </defs>
  <g id="Repeat_Grid_6" data-name="Repeat Grid 6" clip-path="url(#clip-path)">
    <g transform="translate(-505 -201)">
      <g id="Rectangle_101" data-name="Rectangle 101" transform="translate(505 201)" fill="#e8e2d7" stroke="#707070" stroke-width="1">
        <rect width="48" height="48" stroke="none"/>
        <rect x="0.5" y="0.5" width="47" height="47" fill="none"/>
      </g>
    </g>
    <g transform="translate(-457 -201)">
      <g id="Rectangle_101-2" data-name="Rectangle 101" transform="translate(505 201)" fill="#e8e2d7" stroke="#707070" stroke-width="1">
        <rect width="48" height="48" stroke="none"/>
        <rect x="0.5" y="0.5" width="47" height="47" fill="none"/>
      </g>
    </g>
    <g transform="translate(-409 -201)">
      <g id="Rectangle_101-3" data-name="Rectangle 101" transform="translate(505 201)" fill="#e8e2d7" stroke="#707070" stroke-width="1">
        <rect width="48" height="48" stroke="none"/>
        <rect x="0.5" y="0.5" width="47" height="47" fill="none"/>
      </g>
    </g>
    <g transform="translate(-361 -201)">
      <g id="Rectangle_101-4" data-name="Rectangle 101" transform="translate(505 201)" fill="#e8e2d7" stroke="#707070" stroke-width="1">
        <rect width="48" height="48" stroke="none"/>
        <rect x="0.5" y="0.5" width="47" height="47" fill="none"/>
      </g>
    </g>
    <g transform="translate(-313 -201)">
      <g id="Rectangle_101-5" data-name="Rectangle 101" transform="translate(505 201)" fill="#e8e2d7" stroke="#707070" stroke-width="1">
        <rect width="48" height="48" stroke="none"/>
        <rect x="0.5" y="0.5" width="47" height="47" fill="none"/>
      </g>
    </g>
    <g transform="translate(-265 -201)">
      <g id="Rectangle_101-6" data-name="Rectangle 101" transform="translate(505 201)" fill="#e8e2d7" stroke="#707070" stroke-width="1">
        <rect width="48" height="48" stroke="none"/>
        <rect x="0.5" y="0.5" width="47" height="47" fill="none"/>
      </g>
    </g>
    <g transform="translate(-217 -201)">
      <g id="Rectangle_101-7" data-name="Rectangle 101" transform="translate(505 201)" fill="#e8e2d7" stroke="#707070" stroke-width="1">
        <rect width="48" height="48" stroke="none"/>
        <rect x="0.5" y="0.5" width="47" height="47" fill="none"/>
      </g>
    </g>
    <g transform="translate(-169 -201)">
      <g id="Rectangle_101-8" data-name="Rectangle 101" transform="translate(505 201)" fill="#e8e2d7" stroke="#707070" stroke-width="1">
        <rect width="48" height="48" stroke="none"/>
        <rect x="0.5" y="0.5" width="47" height="47" fill="none"/>
      </g>
    </g>
    <g transform="translate(-121 -201)">
      <g id="Rectangle_101-9" data-name="Rectangle 101" transform="translate(505 201)" fill="#e8e2d7" stroke="#707070" stroke-width="1">
        <rect width="48" height="48" stroke="none"/>
        <rect x="0.5" y="0.5" width="47" height="47" fill="none"/>
      </g>
    </g>
    <g transform="translate(-73 -201)">
      <g id="Rectangle_101-10" data-name="Rectangle 101" transform="translate(505 201)" fill="#e8e2d7" stroke="#707070" stroke-width="1">
        <rect width="48" height="48" stroke="none"/>
        <rect x="0.5" y="0.5" width="47" height="47" fill="none"/>
      </g>
    </g>
    <g transform="translate(-505 -153)">
      <g id="Rectangle_101-11" data-name="Rectangle 101" transform="translate(505 201)" fill="#e8e2d7" stroke="#707070" stroke-width="1">
        <rect width="48" height="48" stroke="none"/>
        <rect x="0.5" y="0.5" width="47" height="47" fill="none"/>
      </g>
    </g>
    <g transform="translate(-457 -153)">
      <g id="Rectangle_101-12" data-name="Rectangle 101" transform="translate(505 201)" fill="#e8e2d7" stroke="#707070" stroke-width="1">
        <rect width="48" height="48" stroke="none"/>
        <rect x="0.5" y="0.5" width="47" height="47" fill="none"/>
      </g>
    </g>
    <g transform="translate(-409 -153)">
      <g id="Rectangle_101-13" data-name="Rectangle 101" transform="translate(505 201)" fill="#e8e2d7" stroke="#707070" stroke-width="1">
        <rect width="48" height="48" stroke="none"/>
        <rect x="0.5" y="0.5" width="47" height="47" fill="none"/>
      </g>
    </g>
    <g transform="translate(-361 -153)">
      <g id="Rectangle_101-14" data-name="Rectangle 101" transform="translate(505 201)" fill="#e8e2d7" stroke="#707070" stroke-width="1">
        <rect width="48" height="48" stroke="none"/>
        <rect x="0.5" y="0.5" width="47" height="47" fill="none"/>
      </g>
    </g>
    <g transform="translate(-313 -153)">
      <g id="Rectangle_101-15" data-name="Rectangle 101" transform="translate(505 201)" fill="#e8e2d7" stroke="#707070" stroke-width="1">
        <rect width="48" height="48" stroke="none"/>
        <rect x="0.5" y="0.5" width="47" height="47" fill="none"/>
      </g>
    </g>
    <g transform="translate(-265 -153)">
      <g id="Rectangle_101-16" data-name="Rectangle 101" transform="translate(505 201)" fill="#e8e2d7" stroke="#707070" stroke-width="1">
        <rect width="48" height="48" stroke="none"/>
        <rect x="0.5" y="0.5" width="47" height="47" fill="none"/>
      </g>
    </g>
    <g transform="translate(-217 -153)">
      <g id="Rectangle_101-17" data-name="Rectangle 101" transform="translate(505 201)" fill="#e8e2d7" stroke="#707070" stroke-width="1">
        <rect width="48" height="48" stroke="none"/>
        <rect x="0.5" y="0.5" width="47" height="47" fill="none"/>
      </g>
    </g>
    <g transform="translate(-169 -153)">
      <g id="Rectangle_101-18" data-name="Rectangle 101" transform="translate(505 201)" fill="#e8e2d7" stroke="#707070" stroke-width="1">
        <rect width="48" height="48" stroke="none"/>
        <rect x="0.5" y="0.5" width="47" height="47" fill="none"/>
      </g>
    </g>
    <g transform="translate(-121 -153)">
      <g id="Rectangle_101-19" data-name="Rectangle 101" transform="translate(505 201)" fill="#e8e2d7" stroke="#707070" stroke-width="1">
        <rect width="48" height="48" stroke="none"/>
        <rect x="0.5" y="0.5" width="47" height="47" fill="none"/>
      </g>
    </g>
    <g transform="translate(-73 -153)">
      <g id="Rectangle_101-20" data-name="Rectangle 101" transform="translate(505 201)" fill="#e8e2d7" stroke="#707070" stroke-width="1">
        <rect width="48" height="48" stroke="none"/>
        <rect x="0.5" y="0.5" width="47" height="47" fill="none"/>
      </g>
    </g>
    <g transform="translate(-505 -105)">
      <g id="Rectangle_101-21" data-name="Rectangle 101" transform="translate(505 201)" fill="#e8e2d7" stroke="#707070" stroke-width="1">
        <rect width="48" height="48" stroke="none"/>
        <rect x="0.5" y="0.5" width="47" height="47" fill="none"/>
      </g>
    </g>
    <g transform="translate(-457 -105)">
      <g id="Rectangle_101-22" data-name="Rectangle 101" transform="translate(505 201)" fill="#e8e2d7" stroke="#707070" stroke-width="1">
        <rect width="48" height="48" stroke="none"/>
        <rect x="0.5" y="0.5" width="47" height="47" fill="none"/>
      </g>
    </g>
    <g transform="translate(-409 -105)">
      <g id="Rectangle_101-23" data-name="Rectangle 101" transform="translate(505 201)" fill="#e8e2d7" stroke="#707070" stroke-width="1">
        <rect width="48" height="48" stroke="none"/>
        <rect x="0.5" y="0.5" width="47" height="47" fill="none"/>
      </g>
    </g>
    <g transform="translate(-361 -105)">
      <g id="Rectangle_101-24" data-name="Rectangle 101" transform="translate(505 201)" fill="#e8e2d7" stroke="#707070" stroke-width="1">
        <rect width="48" height="48" stroke="none"/>
        <rect x="0.5" y="0.5" width="47" height="47" fill="none"/>
      </g>
    </g>
    <g transform="translate(-313 -105)">
      <g id="Rectangle_101-25" data-name="Rectangle 101" transform="translate(505 201)" fill="#e8e2d7" stroke="#707070" stroke-width="1">
        <rect width="48" height="48" stroke="none"/>
        <rect x="0.5" y="0.5" width="47" height="47" fill="none"/>
      </g>
    </g>
    <g transform="translate(-265 -105)">
      <g id="Rectangle_101-26" data-name="Rectangle 101" transform="translate(505 201)" fill="#e8e2d7" stroke="#707070" stroke-width="1">
        <rect width="48" height="48" stroke="none"/>
        <rect x="0.5" y="0.5" width="47" height="47" fill="none"/>
      </g>
    </g>
    <g transform="translate(-217 -105)">
      <g id="Rectangle_101-27" data-name="Rectangle 101" transform="translate(505 201)" fill="#e8e2d7" stroke="#707070" stroke-width="1">
        <rect width="48" height="48" stroke="none"/>
        <rect x="0.5" y="0.5" width="47" height="47" fill="none"/>
      </g>
    </g>
    <g transform="translate(-169 -105)">
      <g id="Rectangle_101-28" data-name="Rectangle 101" transform="translate(505 201)" fill="#e8e2d7" stroke="#707070" stroke-width="1">
        <rect width="48" height="48" stroke="none"/>
        <rect x="0.5" y="0.5" width="47" height="47" fill="none"/>
      </g>
    </g>
    <g transform="translate(-121 -105)">
      <g id="Rectangle_101-29" data-name="Rectangle 101" transform="translate(505 201)" fill="#e8e2d7" stroke="#707070" stroke-width="1">
        <rect width="48" height="48" stroke="none"/>
        <rect x="0.5" y="0.5" width="47" height="47" fill="none"/>
      </g>
    </g>
    <g transform="translate(-73 -105)">
      <g id="Rectangle_101-30" data-name="Rectangle 101" transform="translate(505 201)" fill="#e8e2d7" stroke="#707070" stroke-width="1">
        <rect width="48" height="48" stroke="none"/>
        <rect x="0.5" y="0.5" width="47" height="47" fill="none"/>
      </g>
    </g>
    <g transform="translate(-505 -57)">
      <g id="Rectangle_101-31" data-name="Rectangle 101" transform="translate(505 201)" fill="#e8e2d7" stroke="#707070" stroke-width="1">
        <rect width="48" height="48" stroke="none"/>
        <rect x="0.5" y="0.5" width="47" height="47" fill="none"/>
      </g>
    </g>
    <g transform="translate(-457 -57)">
      <g id="Rectangle_101-32" data-name="Rectangle 101" transform="translate(505 201)" fill="#e8e2d7" stroke="#707070" stroke-width="1">
        <rect width="48" height="48" stroke="none"/>
        <rect x="0.5" y="0.5" width="47" height="47" fill="none"/>
      </g>
    </g>
    <g transform="translate(-409 -57)">
      <g id="Rectangle_101-33" data-name="Rectangle 101" transform="translate(505 201)" fill="#e8e2d7" stroke="#707070" stroke-width="1">
        <rect width="48" height="48" stroke="none"/>
        <rect x="0.5" y="0.5" width="47" height="47" fill="none"/>
      </g>
    </g>
    <g transform="translate(-361 -57)">
      <g id="Rectangle_101-34" data-name="Rectangle 101" transform="translate(505 201)" fill="#e8e2d7" stroke="#707070" stroke-width="1">
        <rect width="48" height="48" stroke="none"/>
        <rect x="0.5" y="0.5" width="47" height="47" fill="none"/>
      </g>
    </g>
    <g transform="translate(-313 -57)">
      <g id="Rectangle_101-35" data-name="Rectangle 101" transform="translate(505 201)" fill="#e8e2d7" stroke="#707070" stroke-width="1">
        <rect width="48" height="48" stroke="none"/>
        <rect x="0.5" y="0.5" width="47" height="47" fill="none"/>
      </g>
    </g>
    <g transform="translate(-265 -57)">
      <g id="Rectangle_101-36" data-name="Rectangle 101" transform="translate(505 201)" fill="#e8e2d7" stroke="#707070" stroke-width="1">
        <rect width="48" height="48" stroke="none"/>
        <rect x="0.5" y="0.5" width="47" height="47" fill="none"/>
      </g>
    </g>
    <g transform="translate(-217 -57)">
      <g id="Rectangle_101-37" data-name="Rectangle 101" transform="translate(505 201)" fill="#e8e2d7" stroke="#707070" stroke-width="1">
        <rect width="48" height="48" stroke="none"/>
        <rect x="0.5" y="0.5" width="47" height="47" fill="none"/>
      </g>
    </g>
    <g transform="translate(-169 -57)">
      <g id="Rectangle_101-38" data-name="Rectangle 101" transform="translate(505 201)" fill="#e8e2d7" stroke="#707070" stroke-width="1">
        <rect width="48" height="48" stroke="none"/>
        <rect x="0.5" y="0.5" width="47" height="47" fill="none"/>
      </g>
    </g>
    <g transform="translate(-121 -57)">
      <g id="Rectangle_101-39" data-name="Rectangle 101" transform="translate(505 201)" fill="#e8e2d7" stroke="#707070" stroke-width="1">
        <rect width="48" height="48" stroke="none"/>
        <rect x="0.5" y="0.5" width="47" height="47" fill="none"/>
      </g>
    </g>
    <g transform="translate(-73 -57)">
      <g id="Rectangle_101-40" data-name="Rectangle 101" transform="translate(505 201)" fill="#e8e2d7" stroke="#707070" stroke-width="1">
        <rect width="48" height="48" stroke="none"/>
        <rect x="0.5" y="0.5" width="47" height="47" fill="none"/>
      </g>
    </g>
    <g transform="translate(-505 -9)">
      <g id="Rectangle_101-41" data-name="Rectangle 101" transform="translate(505 201)" fill="#e8e2d7" stroke="#707070" stroke-width="1">
        <rect width="48" height="48" stroke="none"/>
        <rect x="0.5" y="0.5" width="47" height="47" fill="none"/>
      </g>
    </g>
    <g transform="translate(-457 -9)">
      <g id="Rectangle_101-42" data-name="Rectangle 101" transform="translate(505 201)" fill="#e8e2d7" stroke="#707070" stroke-width="1">
        <rect width="48" height="48" stroke="none"/>
        <rect x="0.5" y="0.5" width="47" height="47" fill="none"/>
      </g>
    </g>
    <g transform="translate(-409 -9)">
      <g id="Rectangle_101-43" data-name="Rectangle 101" transform="translate(505 201)" fill="#e8e2d7" stroke="#707070" stroke-width="1">
        <rect width="48" height="48" stroke="none"/>
        <rect x="0.5" y="0.5" width="47" height="47" fill="none"/>
      </g>
    </g>
    <g transform="translate(-361 -9)">
      <g id="Rectangle_101-44" data-name="Rectangle 101" transform="translate(505 201)" fill="#e8e2d7" stroke="#707070" stroke-width="1">
        <rect width="48" height="48" stroke="none"/>
        <rect x="0.5" y="0.5" width="47" height="47" fill="none"/>
      </g>
    </g>
    <g transform="translate(-313 -9)">
      <g id="Rectangle_101-45" data-name="Rectangle 101" transform="translate(505 201)" fill="#e8e2d7" stroke="#707070" stroke-width="1">
        <rect width="48" height="48" stroke="none"/>
        <rect x="0.5" y="0.5" width="47" height="47" fill="none"/>
      </g>
    </g>
    <g transform="translate(-265 -9)">
      <g id="Rectangle_101-46" data-name="Rectangle 101" transform="translate(505 201)" fill="#e8e2d7" stroke="#707070" stroke-width="1">
        <rect width="48" height="48" stroke="none"/>
        <rect x="0.5" y="0.5" width="47" height="47" fill="none"/>
      </g>
    </g>
    <g transform="translate(-217 -9)">
      <g id="Rectangle_101-47" data-name="Rectangle 101" transform="translate(505 201)" fill="#e8e2d7" stroke="#707070" stroke-width="1">
        <rect width="48" height="48" stroke="none"/>
        <rect x="0.5" y="0.5" width="47" height="47" fill="none"/>
      </g>
    </g>
    <g transform="translate(-169 -9)">
      <g id="Rectangle_101-48" data-name="Rectangle 101" transform="translate(505 201)" fill="#e8e2d7" stroke="#707070" stroke-width="1">
        <rect width="48" height="48" stroke="none"/>
        <rect x="0.5" y="0.5" width="47" height="47" fill="none"/>
      </g>
    </g>
    <g transform="translate(-121 -9)">
      <g id="Rectangle_101-49" data-name="Rectangle 101" transform="translate(505 201)" fill="#e8e2d7" stroke="#707070" stroke-width="1">
        <rect width="48" height="48" stroke="none"/>
        <rect x="0.5" y="0.5" width="47" height="47" fill="none"/>
      </g>
    </g>
    <g transform="translate(-73 -9)">
      <g id="Rectangle_101-50" data-name="Rectangle 101" transform="translate(505 201)" fill="#e8e2d7" stroke="#707070" stroke-width="1">
        <rect width="48" height="48" stroke="none"/>
        <rect x="0.5" y="0.5" width="47" height="47" fill="none"/>
      </g>
    </g>
    <g transform="translate(-505 39)">
      <g id="Rectangle_101-51" data-name="Rectangle 101" transform="translate(505 201)" fill="#e8e2d7" stroke="#707070" stroke-width="1">
        <rect width="48" height="48" stroke="none"/>
        <rect x="0.5" y="0.5" width="47" height="47" fill="none"/>
      </g>
    </g>
    <g transform="translate(-457 39)">
      <g id="Rectangle_101-52" data-name="Rectangle 101" transform="translate(505 201)" fill="#e8e2d7" stroke="#707070" stroke-width="1">
        <rect width="48" height="48" stroke="none"/>
        <rect x="0.5" y="0.5" width="47" height="47" fill="none"/>
      </g>
    </g>
    <g transform="translate(-409 39)">
      <g id="Rectangle_101-53" data-name="Rectangle 101" transform="translate(505 201)" fill="#e8e2d7" stroke="#707070" stroke-width="1">
        <rect width="48" height="48" stroke="none"/>
        <rect x="0.5" y="0.5" width="47" height="47" fill="none"/>
      </g>
    </g>
    <g transform="translate(-361 39)">
      <g id="Rectangle_101-54" data-name="Rectangle 101" transform="translate(505 201)" fill="#e8e2d7" stroke="#707070" stroke-width="1">
        <rect width="48" height="48" stroke="none"/>
        <rect x="0.5" y="0.5" width="47" height="47" fill="none"/>
      </g>
    </g>
    <g transform="translate(-313 39)">
      <g id="Rectangle_101-55" data-name="Rectangle 101" transform="translate(505 201)" fill="#e8e2d7" stroke="#707070" stroke-width="1">
        <rect width="48" height="48" stroke="none"/>
        <rect x="0.5" y="0.5" width="47" height="47" fill="none"/>
      </g>
    </g>
    <g transform="translate(-265 39)">
      <g id="Rectangle_101-56" data-name="Rectangle 101" transform="translate(505 201)" fill="#e8e2d7" stroke="#707070" stroke-width="1">
        <rect width="48" height="48" stroke="none"/>
        <rect x="0.5" y="0.5" width="47" height="47" fill="none"/>
      </g>
    </g>
    <g transform="translate(-217 39)">
      <g id="Rectangle_101-57" data-name="Rectangle 101" transform="translate(505 201)" fill="#e8e2d7" stroke="#707070" stroke-width="1">
        <rect width="48" height="48" stroke="none"/>
        <rect x="0.5" y="0.5" width="47" height="47" fill="none"/>
      </g>
    </g>
    <g transform="translate(-169 39)">
      <g id="Rectangle_101-58" data-name="Rectangle 101" transform="translate(505 201)" fill="#e8e2d7" stroke="#707070" stroke-width="1">
        <rect width="48" height="48" stroke="none"/>
        <rect x="0.5" y="0.5" width="47" height="47" fill="none"/>
      </g>
    </g>
    <g transform="translate(-121 39)">
      <g id="Rectangle_101-59" data-name="Rectangle 101" transform="translate(505 201)" fill="#e8e2d7" stroke="#707070" stroke-width="1">
        <rect width="48" height="48" stroke="none"/>
        <rect x="0.5" y="0.5" width="47" height="47" fill="none"/>
      </g>
    </g>
    <g transform="translate(-73 39)">
      <g id="Rectangle_101-60" data-name="Rectangle 101" transform="translate(505 201)" fill="#e8e2d7" stroke="#707070" stroke-width="1">
        <rect width="48" height="48" stroke="none"/>
        <rect x="0.5" y="0.5" width="47" height="47" fill="none"/>
      </g>
    </g>
    <g transform="translate(-505 87)">
      <g id="Rectangle_101-61" data-name="Rectangle 101" transform="translate(505 201)" fill="#e8e2d7" stroke="#707070" stroke-width="1">
        <rect width="48" height="48" stroke="none"/>
        <rect x="0.5" y="0.5" width="47" height="47" fill="none"/>
      </g>
    </g>
    <g transform="translate(-457 87)">
      <g id="Rectangle_101-62" data-name="Rectangle 101" transform="translate(505 201)" fill="#e8e2d7" stroke="#707070" stroke-width="1">
        <rect width="48" height="48" stroke="none"/>
        <rect x="0.5" y="0.5" width="47" height="47" fill="none"/>
      </g>
    </g>
    <g transform="translate(-409 87)">
      <g id="Rectangle_101-63" data-name="Rectangle 101" transform="translate(505 201)" fill="#e8e2d7" stroke="#707070" stroke-width="1">
        <rect width="48" height="48" stroke="none"/>
        <rect x="0.5" y="0.5" width="47" height="47" fill="none"/>
      </g>
    </g>
    <g transform="translate(-361 87)">
      <g id="Rectangle_101-64" data-name="Rectangle 101" transform="translate(505 201)" fill="#e8e2d7" stroke="#707070" stroke-width="1">
        <rect width="48" height="48" stroke="none"/>
        <rect x="0.5" y="0.5" width="47" height="47" fill="none"/>
      </g>
    </g>
    <g transform="translate(-313 87)">
      <g id="Rectangle_101-65" data-name="Rectangle 101" transform="translate(505 201)" fill="#e8e2d7" stroke="#707070" stroke-width="1">
        <rect width="48" height="48" stroke="none"/>
        <rect x="0.5" y="0.5" width="47" height="47" fill="none"/>
      </g>
    </g>
    <g transform="translate(-265 87)">
      <g id="Rectangle_101-66" data-name="Rectangle 101" transform="translate(505 201)" fill="#e8e2d7" stroke="#707070" stroke-width="1">
        <rect width="48" height="48" stroke="none"/>
        <rect x="0.5" y="0.5" width="47" height="47" fill="none"/>
      </g>
    </g>
    <g transform="translate(-217 87)">
      <g id="Rectangle_101-67" data-name="Rectangle 101" transform="translate(505 201)" fill="#e8e2d7" stroke="#707070" stroke-width="1">
        <rect width="48" height="48" stroke="none"/>
        <rect x="0.5" y="0.5" width="47" height="47" fill="none"/>
      </g>
    </g>
    <g transform="translate(-169 87)">
      <g id="Rectangle_101-68" data-name="Rectangle 101" transform="translate(505 201)" fill="#e8e2d7" stroke="#707070" stroke-width="1">
        <rect width="48" height="48" stroke="none"/>
        <rect x="0.5" y="0.5" width="47" height="47" fill="none"/>
      </g>
    </g>
    <g transform="translate(-121 87)">
      <g id="Rectangle_101-69" data-name="Rectangle 101" transform="translate(505 201)" fill="#e8e2d7" stroke="#707070" stroke-width="1">
        <rect width="48" height="48" stroke="none"/>
        <rect x="0.5" y="0.5" width="47" height="47" fill="none"/>
      </g>
    </g>
    <g transform="translate(-73 87)">
      <g id="Rectangle_101-70" data-name="Rectangle 101" transform="translate(505 201)" fill="#e8e2d7" stroke="#707070" stroke-width="1">
        <rect width="48" height="48" stroke="none"/>
        <rect x="0.5" y="0.5" width="47" height="47" fill="none"/>
      </g>
    </g>
    <g transform="translate(-505 135)">
      <g id="Rectangle_101-71" data-name="Rectangle 101" transform="translate(505 201)" fill="#e8e2d7" stroke="#707070" stroke-width="1">
        <rect width="48" height="48" stroke="none"/>
        <rect x="0.5" y="0.5" width="47" height="47" fill="none"/>
      </g>
    </g>
    <g transform="translate(-457 135)">
      <g id="Rectangle_101-72" data-name="Rectangle 101" transform="translate(505 201)" fill="#e8e2d7" stroke="#707070" stroke-width="1">
        <rect width="48" height="48" stroke="none"/>
        <rect x="0.5" y="0.5" width="47" height="47" fill="none"/>
      </g>
    </g>
    <g transform="translate(-409 135)">
      <g id="Rectangle_101-73" data-name="Rectangle 101" transform="translate(505 201)" fill="#e8e2d7" stroke="#707070" stroke-width="1">
        <rect width="48" height="48" stroke="none"/>
        <rect x="0.5" y="0.5" width="47" height="47" fill="none"/>
      </g>
    </g>
    <g transform="translate(-361 135)">
      <g id="Rectangle_101-74" data-name="Rectangle 101" transform="translate(505 201)" fill="#e8e2d7" stroke="#707070" stroke-width="1">
        <rect width="48" height="48" stroke="none"/>
        <rect x="0.5" y="0.5" width="47" height="47" fill="none"/>
      </g>
    </g>
    <g transform="translate(-313 135)">
      <g id="Rectangle_101-75" data-name="Rectangle 101" transform="translate(505 201)" fill="#e8e2d7" stroke="#707070" stroke-width="1">
        <rect width="48" height="48" stroke="none"/>
        <rect x="0.5" y="0.5" width="47" height="47" fill="none"/>
      </g>
    </g>
    <g transform="translate(-265 135)">
      <g id="Rectangle_101-76" data-name="Rectangle 101" transform="translate(505 201)" fill="#e8e2d7" stroke="#707070" stroke-width="1">
        <rect width="48" height="48" stroke="none"/>
        <rect x="0.5" y="0.5" width="47" height="47" fill="none"/>
      </g>
    </g>
    <g transform="translate(-217 135)">
      <g id="Rectangle_101-77" data-name="Rectangle 101" transform="translate(505 201)" fill="#e8e2d7" stroke="#707070" stroke-width="1">
        <rect width="48" height="48" stroke="none"/>
        <rect x="0.5" y="0.5" width="47" height="47" fill="none"/>
      </g>
    </g>
    <g transform="translate(-169 135)">
      <g id="Rectangle_101-78" data-name="Rectangle 101" transform="translate(505 201)" fill="#e8e2d7" stroke="#707070" stroke-width="1">
        <rect width="48" height="48" stroke="none"/>
        <rect x="0.5" y="0.5" width="47" height="47" fill="none"/>
      </g>
    </g>
    <g transform="translate(-121 135)">
      <g id="Rectangle_101-79" data-name="Rectangle 101" transform="translate(505 201)" fill="#e8e2d7" stroke="#707070" stroke-width="1">
        <rect width="48" height="48" stroke="none"/>
        <rect x="0.5" y="0.5" width="47" height="47" fill="none"/>
      </g>
    </g>
    <g transform="translate(-73 135)">
      <g id="Rectangle_101-80" data-name="Rectangle 101" transform="translate(505 201)" fill="#e8e2d7" stroke="#707070" stroke-width="1">
        <rect width="48" height="48" stroke="none"/>
        <rect x="0.5" y="0.5" width="47" height="47" fill="none"/>
      </g>
    </g>
    <g transform="translate(-505 183)">
      <g id="Rectangle_101-81" data-name="Rectangle 101" transform="translate(505 201)" fill="#e8e2d7" stroke="#707070" stroke-width="1">
        <rect width="48" height="48" stroke="none"/>
        <rect x="0.5" y="0.5" width="47" height="47" fill="none"/>
      </g>
    </g>
    <g transform="translate(-457 183)">
      <g id="Rectangle_101-82" data-name="Rectangle 101" transform="translate(505 201)" fill="#e8e2d7" stroke="#707070" stroke-width="1">
        <rect width="48" height="48" stroke="none"/>
        <rect x="0.5" y="0.5" width="47" height="47" fill="none"/>
      </g>
    </g>
    <g transform="translate(-409 183)">
      <g id="Rectangle_101-83" data-name="Rectangle 101" transform="translate(505 201)" fill="#e8e2d7" stroke="#707070" stroke-width="1">
        <rect width="48" height="48" stroke="none"/>
        <rect x="0.5" y="0.5" width="47" height="47" fill="none"/>
      </g>
    </g>
    <g transform="translate(-361 183)">
      <g id="Rectangle_101-84" data-name="Rectangle 101" transform="translate(505 201)" fill="#e8e2d7" stroke="#707070" stroke-width="1">
        <rect width="48" height="48" stroke="none"/>
        <rect x="0.5" y="0.5" width="47" height="47" fill="none"/>
      </g>
    </g>
    <g transform="translate(-313 183)">
      <g id="Rectangle_101-85" data-name="Rectangle 101" transform="translate(505 201)" fill="#e8e2d7" stroke="#707070" stroke-width="1">
        <rect width="48" height="48" stroke="none"/>
        <rect x="0.5" y="0.5" width="47" height="47" fill="none"/>
      </g>
    </g>
    <g transform="translate(-265 183)">
      <g id="Rectangle_101-86" data-name="Rectangle 101" transform="translate(505 201)" fill="#e8e2d7" stroke="#707070" stroke-width="1">
        <rect width="48" height="48" stroke="none"/>
        <rect x="0.5" y="0.5" width="47" height="47" fill="none"/>
      </g>
    </g>
    <g transform="translate(-217 183)">
      <g id="Rectangle_101-87" data-name="Rectangle 101" transform="translate(505 201)" fill="#e8e2d7" stroke="#707070" stroke-width="1">
        <rect width="48" height="48" stroke="none"/>
        <rect x="0.5" y="0.5" width="47" height="47" fill="none"/>
      </g>
    </g>
    <g transform="translate(-169 183)">
      <g id="Rectangle_101-88" data-name="Rectangle 101" transform="translate(505 201)" fill="#e8e2d7" stroke="#707070" stroke-width="1">
        <rect width="48" height="48" stroke="none"/>
        <rect x="0.5" y="0.5" width="47" height="47" fill="none"/>
      </g>
    </g>
    <g transform="translate(-121 183)">
      <g id="Rectangle_101-89" data-name="Rectangle 101" transform="translate(505 201)" fill="#e8e2d7" stroke="#707070" stroke-width="1">
        <rect width="48" height="48" stroke="none"/>
        <rect x="0.5" y="0.5" width="47" height="47" fill="none"/>
      </g>
    </g>
    <g transform="translate(-73 183)">
      <g id="Rectangle_101-90" data-name="Rectangle 101" transform="translate(505 201)" fill="#e8e2d7" stroke="#707070" stroke-width="1">
        <rect width="48" height="48" stroke="none"/>
        <rect x="0.5" y="0.5" width="47" height="47" fill="none"/>
      </g>
    </g>
    <g transform="translate(-505 231)">
      <g id="Rectangle_101-91" data-name="Rectangle 101" transform="translate(505 201)" fill="#e8e2d7" stroke="#707070" stroke-width="1">
        <rect width="48" height="48" stroke="none"/>
        <rect x="0.5" y="0.5" width="47" height="47" fill="none"/>
      </g>
    </g>
    <g transform="translate(-457 231)">
      <g id="Rectangle_101-92" data-name="Rectangle 101" transform="translate(505 201)" fill="#e8e2d7" stroke="#707070" stroke-width="1">
        <rect width="48" height="48" stroke="none"/>
        <rect x="0.5" y="0.5" width="47" height="47" fill="none"/>
      </g>
    </g>
    <g transform="translate(-409 231)">
      <g id="Rectangle_101-93" data-name="Rectangle 101" transform="translate(505 201)" fill="#e8e2d7" stroke="#707070" stroke-width="1">
        <rect width="48" height="48" stroke="none"/>
        <rect x="0.5" y="0.5" width="47" height="47" fill="none"/>
      </g>
    </g>
    <g transform="translate(-361 231)">
      <g id="Rectangle_101-94" data-name="Rectangle 101" transform="translate(505 201)" fill="#e8e2d7" stroke="#707070" stroke-width="1">
        <rect width="48" height="48" stroke="none"/>
        <rect x="0.5" y="0.5" width="47" height="47" fill="none"/>
      </g>
    </g>
    <g transform="translate(-313 231)">
      <g id="Rectangle_101-95" data-name="Rectangle 101" transform="translate(505 201)" fill="#e8e2d7" stroke="#707070" stroke-width="1">
        <rect width="48" height="48" stroke="none"/>
        <rect x="0.5" y="0.5" width="47" height="47" fill="none"/>
      </g>
    </g>
    <g transform="translate(-265 231)">
      <g id="Rectangle_101-96" data-name="Rectangle 101" transform="translate(505 201)" fill="#e8e2d7" stroke="#707070" stroke-width="1">
        <rect width="48" height="48" stroke="none"/>
        <rect x="0.5" y="0.5" width="47" height="47" fill="none"/>
      </g>
    </g>
    <g transform="translate(-217 231)">
      <g id="Rectangle_101-97" data-name="Rectangle 101" transform="translate(505 201)" fill="#e8e2d7" stroke="#707070" stroke-width="1">
        <rect width="48" height="48" stroke="none"/>
        <rect x="0.5" y="0.5" width="47" height="47" fill="none"/>
      </g>
    </g>
    <g transform="translate(-169 231)">
      <g id="Rectangle_101-98" data-name="Rectangle 101" transform="translate(505 201)" fill="#e8e2d7" stroke="#707070" stroke-width="1">
        <rect width="48" height="48" stroke="none"/>
        <rect x="0.5" y="0.5" width="47" height="47" fill="none"/>
      </g>
    </g>
    <g transform="translate(-121 231)">
      <g id="Rectangle_101-99" data-name="Rectangle 101" transform="translate(505 201)" fill="#e8e2d7" stroke="#707070" stroke-width="1">
        <rect width="48" height="48" stroke="none"/>
        <rect x="0.5" y="0.5" width="47" height="47" fill="none"/>
      </g>
    </g>
    <g transform="translate(-73 231)">
      <g id="Rectangle_101-100" data-name="Rectangle 101" transform="translate(505 201)" fill="#e8e2d7" stroke="#707070" stroke-width="1">
        <rect width="48" height="48" stroke="none"/>
        <rect x="0.5" y="0.5" width="47" height="47" fill="none"/>
      </g>
    </g>
    <g transform="translate(-505 279)">
      <g id="Rectangle_101-101" data-name="Rectangle 101" transform="translate(505 201)" fill="#e8e2d7" stroke="#707070" stroke-width="1">
        <rect width="48" height="48" stroke="none"/>
        <rect x="0.5" y="0.5" width="47" height="47" fill="none"/>
      </g>
    </g>
    <g transform="translate(-457 279)">
      <g id="Rectangle_101-102" data-name="Rectangle 101" transform="translate(505 201)" fill="#e8e2d7" stroke="#707070" stroke-width="1">
        <rect width="48" height="48" stroke="none"/>
        <rect x="0.5" y="0.5" width="47" height="47" fill="none"/>
      </g>
    </g>
    <g transform="translate(-409 279)">
      <g id="Rectangle_101-103" data-name="Rectangle 101" transform="translate(505 201)" fill="#e8e2d7" stroke="#707070" stroke-width="1">
        <rect width="48" height="48" stroke="none"/>
        <rect x="0.5" y="0.5" width="47" height="47" fill="none"/>
      </g>
    </g>
    <g transform="translate(-361 279)">
      <g id="Rectangle_101-104" data-name="Rectangle 101" transform="translate(505 201)" fill="#e8e2d7" stroke="#707070" stroke-width="1">
        <rect width="48" height="48" stroke="none"/>
        <rect x="0.5" y="0.5" width="47" height="47" fill="none"/>
      </g>
    </g>
    <g transform="translate(-313 279)">
      <g id="Rectangle_101-105" data-name="Rectangle 101" transform="translate(505 201)" fill="#e8e2d7" stroke="#707070" stroke-width="1">
        <rect width="48" height="48" stroke="none"/>
        <rect x="0.5" y="0.5" width="47" height="47" fill="none"/>
      </g>
    </g>
    <g transform="translate(-265 279)">
      <g id="Rectangle_101-106" data-name="Rectangle 101" transform="translate(505 201)" fill="#e8e2d7" stroke="#707070" stroke-width="1">
        <rect width="48" height="48" stroke="none"/>
        <rect x="0.5" y="0.5" width="47" height="47" fill="none"/>
      </g>
    </g>
    <g transform="translate(-217 279)">
      <g id="Rectangle_101-107" data-name="Rectangle 101" transform="translate(505 201)" fill="#e8e2d7" stroke="#707070" stroke-width="1">
        <rect width="48" height="48" stroke="none"/>
        <rect x="0.5" y="0.5" width="47" height="47" fill="none"/>
      </g>
    </g>
    <g transform="translate(-169 279)">
      <g id="Rectangle_101-108" data-name="Rectangle 101" transform="translate(505 201)" fill="#e8e2d7" stroke="#707070" stroke-width="1">
        <rect width="48" height="48" stroke="none"/>
        <rect x="0.5" y="0.5" width="47" height="47" fill="none"/>
      </g>
    </g>
    <g transform="translate(-121 279)">
      <g id="Rectangle_101-109" data-name="Rectangle 101" transform="translate(505 201)" fill="#e8e2d7" stroke="#707070" stroke-width="1">
        <rect width="48" height="48" stroke="none"/>
        <rect x="0.5" y="0.5" width="47" height="47" fill="none"/>
      </g>
    </g>
    <g transform="translate(-73 279)">
      <g id="Rectangle_101-110" data-name="Rectangle 101" transform="translate(505 201)" fill="#e8e2d7" stroke="#707070" stroke-width="1">
        <rect width="48" height="48" stroke="none"/>
        <rect x="0.5" y="0.5" width="47" height="47" fill="none"/>
      </g>
    </g>
    <g transform="translate(-505 327)">
      <g id="Rectangle_101-111" data-name="Rectangle 101" transform="translate(505 201)" fill="#e8e2d7" stroke="#707070" stroke-width="1">
        <rect width="48" height="48" stroke="none"/>
        <rect x="0.5" y="0.5" width="47" height="47" fill="none"/>
      </g>
    </g>
    <g transform="translate(-457 327)">
      <g id="Rectangle_101-112" data-name="Rectangle 101" transform="translate(505 201)" fill="#e8e2d7" stroke="#707070" stroke-width="1">
        <rect width="48" height="48" stroke="none"/>
        <rect x="0.5" y="0.5" width="47" height="47" fill="none"/>
      </g>
    </g>
    <g transform="translate(-409 327)">
      <g id="Rectangle_101-113" data-name="Rectangle 101" transform="translate(505 201)" fill="#e8e2d7" stroke="#707070" stroke-width="1">
        <rect width="48" height="48" stroke="none"/>
        <rect x="0.5" y="0.5" width="47" height="47" fill="none"/>
      </g>
    </g>
    <g transform="translate(-361 327)">
      <g id="Rectangle_101-114" data-name="Rectangle 101" transform="translate(505 201)" fill="#e8e2d7" stroke="#707070" stroke-width="1">
        <rect width="48" height="48" stroke="none"/>
        <rect x="0.5" y="0.5" width="47" height="47" fill="none"/>
      </g>
    </g>
    <g transform="translate(-313 327)">
      <g id="Rectangle_101-115" data-name="Rectangle 101" transform="translate(505 201)" fill="#e8e2d7" stroke="#707070" stroke-width="1">
        <rect width="48" height="48" stroke="none"/>
        <rect x="0.5" y="0.5" width="47" height="47" fill="none"/>
      </g>
    </g>
    <g transform="translate(-265 327)">
      <g id="Rectangle_101-116" data-name="Rectangle 101" transform="translate(505 201)" fill="#e8e2d7" stroke="#707070" stroke-width="1">
        <rect width="48" height="48" stroke="none"/>
        <rect x="0.5" y="0.5" width="47" height="47" fill="none"/>
      </g>
    </g>
    <g transform="translate(-217 327)">
      <g id="Rectangle_101-117" data-name="Rectangle 101" transform="translate(505 201)" fill="#e8e2d7" stroke="#707070" stroke-width="1">
        <rect width="48" height="48" stroke="none"/>
        <rect x="0.5" y="0.5" width="47" height="47" fill="none"/>
      </g>
    </g>
    <g transform="translate(-169 327)">
      <g id="Rectangle_101-118" data-name="Rectangle 101" transform="translate(505 201)" fill="#e8e2d7" stroke="#707070" stroke-width="1">
        <rect width="48" height="48" stroke="none"/>
        <rect x="0.5" y="0.5" width="47" height="47" fill="none"/>
      </g>
    </g>
    <g transform="translate(-121 327)">
      <g id="Rectangle_101-119" data-name="Rectangle 101" transform="translate(505 201)" fill="#e8e2d7" stroke="#707070" stroke-width="1">
        <rect width="48" height="48" stroke="none"/>
        <rect x="0.5" y="0.5" width="47" height="47" fill="none"/>
      </g>
    </g>
    <g transform="translate(-73 327)">
      <g id="Rectangle_101-120" data-name="Rectangle 101" transform="translate(505 201)" fill="#e8e2d7" stroke="#707070" stroke-width="1">
        <rect width="48" height="48" stroke="none"/>
        <rect x="0.5" y="0.5" width="47" height="47" fill="none"/>
      </g>
    </g>
    <g transform="translate(-505 375)">
      <g id="Rectangle_101-121" data-name="Rectangle 101" transform="translate(505 201)" fill="#e8e2d7" stroke="#707070" stroke-width="1">
        <rect width="48" height="48" stroke="none"/>
        <rect x="0.5" y="0.5" width="47" height="47" fill="none"/>
      </g>
    </g>
    <g transform="translate(-457 375)">
      <g id="Rectangle_101-122" data-name="Rectangle 101" transform="translate(505 201)" fill="#e8e2d7" stroke="#707070" stroke-width="1">
        <rect width="48" height="48" stroke="none"/>
        <rect x="0.5" y="0.5" width="47" height="47" fill="none"/>
      </g>
    </g>
    <g transform="translate(-409 375)">
      <g id="Rectangle_101-123" data-name="Rectangle 101" transform="translate(505 201)" fill="#e8e2d7" stroke="#707070" stroke-width="1">
        <rect width="48" height="48" stroke="none"/>
        <rect x="0.5" y="0.5" width="47" height="47" fill="none"/>
      </g>
    </g>
    <g transform="translate(-361 375)">
      <g id="Rectangle_101-124" data-name="Rectangle 101" transform="translate(505 201)" fill="#e8e2d7" stroke="#707070" stroke-width="1">
        <rect width="48" height="48" stroke="none"/>
        <rect x="0.5" y="0.5" width="47" height="47" fill="none"/>
      </g>
    </g>
    <g transform="translate(-313 375)">
      <g id="Rectangle_101-125" data-name="Rectangle 101" transform="translate(505 201)" fill="#e8e2d7" stroke="#707070" stroke-width="1">
        <rect width="48" height="48" stroke="none"/>
        <rect x="0.5" y="0.5" width="47" height="47" fill="none"/>
      </g>
    </g>
    <g transform="translate(-265 375)">
      <g id="Rectangle_101-126" data-name="Rectangle 101" transform="translate(505 201)" fill="#e8e2d7" stroke="#707070" stroke-width="1">
        <rect width="48" height="48" stroke="none"/>
        <rect x="0.5" y="0.5" width="47" height="47" fill="none"/>
      </g>
    </g>
    <g transform="translate(-217 375)">
      <g id="Rectangle_101-127" data-name="Rectangle 101" transform="translate(505 201)" fill="#e8e2d7" stroke="#707070" stroke-width="1">
        <rect width="48" height="48" stroke="none"/>
        <rect x="0.5" y="0.5" width="47" height="47" fill="none"/>
      </g>
    </g>
    <g transform="translate(-169 375)">
      <g id="Rectangle_101-128" data-name="Rectangle 101" transform="translate(505 201)" fill="#e8e2d7" stroke="#707070" stroke-width="1">
        <rect width="48" height="48" stroke="none"/>
        <rect x="0.5" y="0.5" width="47" height="47" fill="none"/>
      </g>
    </g>
    <g transform="translate(-121 375)">
      <g id="Rectangle_101-129" data-name="Rectangle 101" transform="translate(505 201)" fill="#e8e2d7" stroke="#707070" stroke-width="1">
        <rect width="48" height="48" stroke="none"/>
        <rect x="0.5" y="0.5" width="47" height="47" fill="none"/>
      </g>
    </g>
    <g transform="translate(-73 375)">
      <g id="Rectangle_101-130" data-name="Rectangle 101" transform="translate(505 201)" fill="#e8e2d7" stroke="#707070" stroke-width="1">
        <rect width="48" height="48" stroke="none"/>
        <rect x="0.5" y="0.5" width="47" height="47" fill="none"/>
      </g>
    </g>
    <g transform="translate(-505 423)">
      <g id="Rectangle_101-131" data-name="Rectangle 101" transform="translate(505 201)" fill="#e8e2d7" stroke="#707070" stroke-width="1">
        <rect width="48" height="48" stroke="none"/>
        <rect x="0.5" y="0.5" width="47" height="47" fill="none"/>
      </g>
    </g>
    <g transform="translate(-457 423)">
      <g id="Rectangle_101-132" data-name="Rectangle 101" transform="translate(505 201)" fill="#e8e2d7" stroke="#707070" stroke-width="1">
        <rect width="48" height="48" stroke="none"/>
        <rect x="0.5" y="0.5" width="47" height="47" fill="none"/>
      </g>
    </g>
    <g transform="translate(-409 423)">
      <g id="Rectangle_101-133" data-name="Rectangle 101" transform="translate(505 201)" fill="#e8e2d7" stroke="#707070" stroke-width="1">
        <rect width="48" height="48" stroke="none"/>
        <rect x="0.5" y="0.5" width="47" height="47" fill="none"/>
      </g>
    </g>
    <g transform="translate(-361 423)">
      <g id="Rectangle_101-134" data-name="Rectangle 101" transform="translate(505 201)" fill="#e8e2d7" stroke="#707070" stroke-width="1">
        <rect width="48" height="48" stroke="none"/>
        <rect x="0.5" y="0.5" width="47" height="47" fill="none"/>
      </g>
    </g>
    <g transform="translate(-313 423)">
      <g id="Rectangle_101-135" data-name="Rectangle 101" transform="translate(505 201)" fill="#e8e2d7" stroke="#707070" stroke-width="1">
        <rect width="48" height="48" stroke="none"/>
        <rect x="0.5" y="0.5" width="47" height="47" fill="none"/>
      </g>
    </g>
    <g transform="translate(-265 423)">
      <g id="Rectangle_101-136" data-name="Rectangle 101" transform="translate(505 201)" fill="#e8e2d7" stroke="#707070" stroke-width="1">
        <rect width="48" height="48" stroke="none"/>
        <rect x="0.5" y="0.5" width="47" height="47" fill="none"/>
      </g>
    </g>
    <g transform="translate(-217 423)">
      <g id="Rectangle_101-137" data-name="Rectangle 101" transform="translate(505 201)" fill="#e8e2d7" stroke="#707070" stroke-width="1">
        <rect width="48" height="48" stroke="none"/>
        <rect x="0.5" y="0.5" width="47" height="47" fill="none"/>
      </g>
    </g>
    <g transform="translate(-169 423)">
      <g id="Rectangle_101-138" data-name="Rectangle 101" transform="translate(505 201)" fill="#e8e2d7" stroke="#707070" stroke-width="1">
        <rect width="48" height="48" stroke="none"/>
        <rect x="0.5" y="0.5" width="47" height="47" fill="none"/>
      </g>
    </g>
    <g transform="translate(-121 423)">
      <g id="Rectangle_101-139" data-name="Rectangle 101" transform="translate(505 201)" fill="#e8e2d7" stroke="#707070" stroke-width="1">
        <rect width="48" height="48" stroke="none"/>
        <rect x="0.5" y="0.5" width="47" height="47" fill="none"/>
      </g>
    </g>
    <g transform="translate(-73 423)">
      <g id="Rectangle_101-140" data-name="Rectangle 101" transform="translate(505 201)" fill="#e8e2d7" stroke="#707070" stroke-width="1">
        <rect width="48" height="48" stroke="none"/>
        <rect x="0.5" y="0.5" width="47" height="47" fill="none"/>
      </g>
    </g>
    <g transform="translate(-505 471)">
      <g id="Rectangle_101-141" data-name="Rectangle 101" transform="translate(505 201)" fill="#e8e2d7" stroke="#707070" stroke-width="1">
        <rect width="48" height="48" stroke="none"/>
        <rect x="0.5" y="0.5" width="47" height="47" fill="none"/>
      </g>
    </g>
    <g transform="translate(-457 471)">
      <g id="Rectangle_101-142" data-name="Rectangle 101" transform="translate(505 201)" fill="#e8e2d7" stroke="#707070" stroke-width="1">
        <rect width="48" height="48" stroke="none"/>
        <rect x="0.5" y="0.5" width="47" height="47" fill="none"/>
      </g>
    </g>
    <g transform="translate(-409 471)">
      <g id="Rectangle_101-143" data-name="Rectangle 101" transform="translate(505 201)" fill="#e8e2d7" stroke="#707070" stroke-width="1">
        <rect width="48" height="48" stroke="none"/>
        <rect x="0.5" y="0.5" width="47" height="47" fill="none"/>
      </g>
    </g>
    <g transform="translate(-361 471)">
      <g id="Rectangle_101-144" data-name="Rectangle 101" transform="translate(505 201)" fill="#e8e2d7" stroke="#707070" stroke-width="1">
        <rect width="48" height="48" stroke="none"/>
        <rect x="0.5" y="0.5" width="47" height="47" fill="none"/>
      </g>
    </g>
    <g transform="translate(-313 471)">
      <g id="Rectangle_101-145" data-name="Rectangle 101" transform="translate(505 201)" fill="#e8e2d7" stroke="#707070" stroke-width="1">
        <rect width="48" height="48" stroke="none"/>
        <rect x="0.5" y="0.5" width="47" height="47" fill="none"/>
      </g>
    </g>
    <g transform="translate(-265 471)">
      <g id="Rectangle_101-146" data-name="Rectangle 101" transform="translate(505 201)" fill="#e8e2d7" stroke="#707070" stroke-width="1">
        <rect width="48" height="48" stroke="none"/>
        <rect x="0.5" y="0.5" width="47" height="47" fill="none"/>
      </g>
    </g>
    <g transform="translate(-217 471)">
      <g id="Rectangle_101-147" data-name="Rectangle 101" transform="translate(505 201)" fill="#e8e2d7" stroke="#707070" stroke-width="1">
        <rect width="48" height="48" stroke="none"/>
        <rect x="0.5" y="0.5" width="47" height="47" fill="none"/>
      </g>
    </g>
    <g transform="translate(-169 471)">
      <g id="Rectangle_101-148" data-name="Rectangle 101" transform="translate(505 201)" fill="#e8e2d7" stroke="#707070" stroke-width="1">
        <rect width="48" height="48" stroke="none"/>
        <rect x="0.5" y="0.5" width="47" height="47" fill="none"/>
      </g>
    </g>
    <g transform="translate(-121 471)">
      <g id="Rectangle_101-149" data-name="Rectangle 101" transform="translate(505 201)" fill="#e8e2d7" stroke="#707070" stroke-width="1">
        <rect width="48" height="48" stroke="none"/>
        <rect x="0.5" y="0.5" width="47" height="47" fill="none"/>
      </g>
    </g>
    <g transform="translate(-73 471)">
      <g id="Rectangle_101-150" data-name="Rectangle 101" transform="translate(505 201)" fill="#e8e2d7" stroke="#707070" stroke-width="1">
        <rect width="48" height="48" stroke="none"/>
        <rect x="0.5" y="0.5" width="47" height="47" fill="none"/>
      </g>
    </g>
  </g>
</svg>
