<?xml version="1.0" encoding="UTF-8"?><svg id="Calque_1" xmlns="http://www.w3.org/2000/svg" viewBox="0 0 595.28 596"><defs><style>.cls-1{fill:#dc1f36;}.cls-1,.cls-2,.cls-3,.cls-4,.cls-5,.cls-6,.cls-7,.cls-8,.cls-9{stroke:#1d1d1b;stroke-miterlimit:10;}.cls-2{fill:#cc98a5;}.cls-2,.cls-4,.cls-5,.cls-6,.cls-7{stroke-width:.5px;}.cls-3{fill:#127193;}.cls-4{fill:#177294;}.cls-5{fill:#d45e24;}.cls-6{fill:#ecd018;}.cls-7{fill:#e30613;}.cls-8{fill:#ede6d9;}.cls-9{fill:#ecd114;}</style></defs><rect class="cls-7" x="71.89" y="306.59" width="455.21" height="11.29"/><rect class="cls-5" x="61.44" y="295.42" width="472.56" height="11.29"/><rect class="cls-6" x="64.45" y="291.19" width="458.09" height="4.26"/><rect class="cls-2" x="78.48" y="283.57" width="452.51" height="7.62"/><rect class="cls-4" x="78.48" y="317.58" width="439.23" height="7.62"/><g><path class="cls-3" d="M196.87,334.51c-2.57-1.51-4.92-2.74-7.04-3.69-2.12-.95-4.43-1.8-6.92-2.55-2.5-.76-4.96-1.13-7.38-1.13-1.89,0-3.44,.3-4.65,.9-1.21,.6-1.82,1.61-1.82,3.04,0,1.35,.6,2.44,1.82,3.26,1.21,.83,2.93,1.58,5.17,2.25,2.23,.67,4.9,1.5,8,2.47,4.99,1.5,9.31,3.23,12.94,5.17,3.63,1.95,6.43,4.44,8.4,7.48,1.97,3.04,2.95,7.07,2.95,12.09s-.87,8.83-2.61,12.09c-1.74,3.26-4.09,5.87-7.04,7.82-2.95,1.95-6.24,3.36-9.88,4.22-3.63,.86-7.34,1.29-11.12,1.29s-7.89-.4-12.09-1.19c-4.2-.79-8.27-1.89-12.2-3.29-3.94-1.4-7.53-3.05-10.78-4.94l9.54-19.41c3.03,1.82,5.79,3.29,8.29,4.43,2.5,1.14,5.28,2.16,8.34,3.06s6.15,1.36,9.25,1.36c2.42,0,4.1-.31,5.05-.92,.95-.61,1.42-1.43,1.42-2.44,0-1.58-.83-2.8-2.5-3.66-1.67-.86-3.84-1.69-6.53-2.48-2.69-.79-5.66-1.71-8.91-2.76-4.69-1.58-8.55-3.36-11.58-5.35-3.03-1.99-5.26-4.36-6.7-7.1-1.44-2.74-2.16-6.07-2.16-9.98,0-5.94,1.4-10.9,4.2-14.88,2.8-3.98,6.49-7.01,11.07-9.08,4.58-2.07,9.52-3.1,14.81-3.1,3.93,0,7.74,.47,11.41,1.42,3.67,.95,7.11,2.1,10.33,3.46,3.22,1.36,6.03,2.65,8.46,3.86l-9.54,18.28Z"/><path class="cls-3" d="M289.39,308.06v80.6h-22.13v-31.56h-27.02v31.56h-22.14v-80.6h22.14v29.74h27.02v-29.74h22.13Z"/><path class="cls-3" d="M339.57,389.23c-6.13,0-11.69-1.15-16.69-3.46-5-2.31-9.29-5.41-12.88-9.31-3.59-3.9-6.36-8.29-8.29-13.17-1.93-4.88-2.9-9.93-2.9-15.15s1.02-10.48,3.07-15.32c2.04-4.84,4.9-9.18,8.57-13,3.67-3.82,8.02-6.83,13.05-9.02,5.03-2.19,10.54-3.29,16.52-3.29s11.69,1.15,16.69,3.46c5,2.31,9.27,5.43,12.83,9.37,3.56,3.94,6.3,8.34,8.23,13.23,1.93,4.88,2.9,9.9,2.9,15.04s-1,10.37-3.01,15.21c-2.01,4.84-4.84,9.18-8.51,13-3.67,3.82-8,6.85-13,9.08-5,2.23-10.52,3.35-16.57,3.35Zm-18.28-40.87c0,2.72,.38,5.35,1.14,7.89,.76,2.54,1.89,4.81,3.41,6.81,1.51,2.01,3.42,3.6,5.73,4.77,2.31,1.17,5.05,1.76,8.23,1.76s5.94-.6,8.29-1.82c2.34-1.21,4.26-2.86,5.73-4.94,1.48-2.08,2.57-4.39,3.29-6.92,.72-2.53,1.08-5.13,1.08-7.78s-.38-5.33-1.13-7.83c-.76-2.5-1.89-4.75-3.41-6.75-1.51-2-3.45-3.58-5.79-4.71-2.35-1.14-5.07-1.7-8.17-1.7s-5.92,.61-8.23,1.82c-2.31,1.21-4.22,2.82-5.73,4.82-1.51,2.01-2.63,4.28-3.35,6.81-.72,2.54-1.08,5.13-1.08,7.78Z"/><path class="cls-3" d="M412.1,308.06h20.32l7.38,24.86,7.49-24.86h20.32l-13.62,38.48,5.79,16.46,17.37-54.94h24.07l-30.42,80.6h-19.18l-11.81-28.83-11.69,28.83h-19.18l-30.42-80.6h23.95l17.48,54.94,5.56-16.46-13.4-38.48Z"/></g><g><path class="cls-1" d="M192.15,331.21c-2.57-1.51-4.92-2.74-7.04-3.69-2.12-.95-4.43-1.8-6.92-2.55-2.5-.76-4.96-1.13-7.38-1.13-1.89,0-3.44,.3-4.65,.9-1.21,.6-1.82,1.61-1.82,3.04,0,1.35,.6,2.44,1.82,3.26,1.21,.83,2.93,1.58,5.17,2.25,2.23,.67,4.9,1.5,8,2.47,4.99,1.5,9.31,3.23,12.94,5.17,3.63,1.95,6.43,4.44,8.4,7.48,1.97,3.04,2.95,7.07,2.95,12.09s-.87,8.83-2.61,12.09c-1.74,3.26-4.09,5.87-7.04,7.82-2.95,1.95-6.24,3.36-9.88,4.22-3.63,.86-7.34,1.29-11.12,1.29s-7.89-.4-12.09-1.19c-4.2-.79-8.27-1.89-12.2-3.29-3.94-1.4-7.53-3.05-10.78-4.94l9.54-19.41c3.03,1.82,5.79,3.29,8.29,4.43,2.5,1.14,5.28,2.16,8.34,3.06s6.15,1.36,9.25,1.36c2.42,0,4.1-.31,5.05-.92,.95-.61,1.42-1.43,1.42-2.44,0-1.58-.83-2.8-2.5-3.66-1.67-.86-3.84-1.69-6.53-2.48-2.69-.79-5.66-1.71-8.91-2.76-4.69-1.58-8.55-3.36-11.58-5.35-3.03-1.99-5.26-4.36-6.7-7.1-1.44-2.74-2.16-6.07-2.16-9.98,0-5.94,1.4-10.9,4.2-14.88,2.8-3.98,6.49-7.01,11.07-9.08,4.58-2.07,9.52-3.1,14.81-3.1,3.93,0,7.74,.47,11.41,1.42,3.67,.95,7.11,2.1,10.33,3.46,3.22,1.36,6.03,2.65,8.46,3.86l-9.54,18.28Z"/><path class="cls-1" d="M284.66,304.76v80.6h-22.13v-31.56h-27.02v31.56h-22.14v-80.6h22.14v29.74h27.02v-29.74h22.13Z"/><path class="cls-1" d="M334.84,385.92c-6.13,0-11.69-1.15-16.69-3.46-5-2.31-9.29-5.41-12.88-9.31-3.59-3.9-6.36-8.29-8.29-13.17-1.93-4.88-2.9-9.93-2.9-15.15s1.02-10.48,3.07-15.32c2.04-4.84,4.9-9.18,8.57-13,3.67-3.82,8.02-6.83,13.05-9.02,5.03-2.19,10.54-3.29,16.52-3.29s11.69,1.15,16.69,3.46c5,2.31,9.27,5.43,12.83,9.37,3.56,3.94,6.3,8.34,8.23,13.23,1.93,4.88,2.9,9.9,2.9,15.04s-1,10.37-3.01,15.21c-2.01,4.84-4.84,9.18-8.51,13-3.67,3.82-8,6.85-13,9.08-5,2.23-10.52,3.35-16.57,3.35Zm-18.28-40.87c0,2.72,.38,5.35,1.14,7.89,.76,2.54,1.89,4.81,3.41,6.81,1.51,2.01,3.42,3.6,5.73,4.77,2.31,1.17,5.05,1.76,8.23,1.76s5.94-.6,8.29-1.82c2.34-1.21,4.26-2.86,5.73-4.94,1.48-2.08,2.57-4.39,3.29-6.92,.72-2.53,1.08-5.13,1.08-7.78s-.38-5.33-1.13-7.83c-.76-2.5-1.89-4.75-3.41-6.75-1.51-2-3.45-3.58-5.79-4.71-2.35-1.14-5.07-1.7-8.17-1.7s-5.92,.61-8.23,1.82c-2.31,1.21-4.22,2.82-5.73,4.82-1.51,2.01-2.63,4.28-3.35,6.81-.72,2.54-1.08,5.13-1.08,7.78Z"/><path class="cls-1" d="M407.38,304.76h20.32l7.38,24.86,7.49-24.86h20.32l-13.62,38.48,5.79,16.46,17.37-54.94h24.07l-30.42,80.6h-19.18l-11.81-28.83-11.69,28.83h-19.18l-30.42-80.6h23.95l17.48,54.94,5.56-16.46-13.4-38.48Z"/></g><g><path class="cls-9" d="M188.68,327.74c-2.57-1.51-4.92-2.74-7.04-3.69-2.12-.95-4.43-1.8-6.92-2.55-2.5-.76-4.96-1.13-7.38-1.13-1.89,0-3.44,.3-4.65,.9-1.21,.6-1.82,1.61-1.82,3.04,0,1.35,.6,2.44,1.82,3.26,1.21,.83,2.93,1.58,5.17,2.25,2.23,.67,4.9,1.5,8,2.47,4.99,1.5,9.31,3.23,12.94,5.17,3.63,1.95,6.43,4.44,8.4,7.48,1.97,3.04,2.95,7.07,2.95,12.09s-.87,8.83-2.61,12.09c-1.74,3.26-4.09,5.87-7.04,7.82-2.95,1.95-6.24,3.36-9.88,4.22-3.63,.86-7.34,1.29-11.12,1.29s-7.89-.4-12.09-1.19c-4.2-.79-8.27-1.89-12.2-3.29-3.94-1.4-7.53-3.05-10.78-4.94l9.54-19.41c3.03,1.82,5.79,3.29,8.29,4.43,2.5,1.14,5.28,2.16,8.34,3.06s6.15,1.36,9.25,1.36c2.42,0,4.1-.31,5.05-.92,.95-.61,1.42-1.43,1.42-2.44,0-1.58-.83-2.8-2.5-3.66-1.67-.86-3.84-1.69-6.53-2.48-2.69-.79-5.66-1.71-8.91-2.76-4.69-1.58-8.55-3.36-11.58-5.35-3.03-1.99-5.26-4.36-6.7-7.1-1.44-2.74-2.16-6.07-2.16-9.98,0-5.94,1.4-10.9,4.2-14.88,2.8-3.98,6.49-7.01,11.07-9.08,4.58-2.07,9.52-3.1,14.81-3.1,3.93,0,7.74,.47,11.41,1.42,3.67,.95,7.11,2.1,10.33,3.46,3.22,1.36,6.03,2.65,8.46,3.86l-9.54,18.28Z"/><path class="cls-9" d="M281.2,301.29v80.6h-22.14v-31.56h-27.02v31.56h-22.14v-80.6h22.14v29.74h27.02v-29.74h22.14Z"/><path class="cls-9" d="M331.37,382.46c-6.13,0-11.69-1.15-16.69-3.46-5-2.31-9.29-5.41-12.88-9.31-3.59-3.9-6.36-8.29-8.29-13.17-1.93-4.88-2.9-9.93-2.9-15.15s1.02-10.48,3.07-15.32c2.04-4.84,4.9-9.18,8.57-13,3.67-3.82,8.02-6.83,13.05-9.02,5.03-2.19,10.54-3.29,16.52-3.29s11.69,1.15,16.69,3.46c5,2.31,9.27,5.43,12.83,9.37,3.56,3.94,6.3,8.34,8.23,13.23,1.93,4.88,2.9,9.9,2.9,15.04s-1,10.37-3.01,15.21c-2.01,4.84-4.84,9.18-8.51,13-3.67,3.82-8,6.85-13,9.08-5,2.23-10.52,3.35-16.57,3.35Zm-18.28-40.87c0,2.72,.38,5.35,1.14,7.89,.76,2.54,1.89,4.81,3.41,6.81,1.51,2.01,3.42,3.6,5.73,4.77,2.31,1.17,5.05,1.76,8.23,1.76s5.94-.6,8.29-1.82c2.34-1.21,4.26-2.86,5.73-4.94,1.48-2.08,2.57-4.39,3.29-6.92,.72-2.53,1.08-5.13,1.08-7.78s-.38-5.33-1.13-7.83c-.76-2.5-1.89-4.75-3.41-6.75-1.51-2-3.45-3.58-5.79-4.71-2.35-1.14-5.07-1.7-8.17-1.7s-5.92,.61-8.23,1.82c-2.31,1.21-4.22,2.82-5.73,4.82-1.51,2.01-2.63,4.28-3.35,6.81-.72,2.54-1.08,5.13-1.08,7.78Z"/><path class="cls-9" d="M403.91,301.29h20.32l7.38,24.86,7.49-24.86h20.32l-13.62,38.48,5.79,16.46,17.37-54.94h24.07l-30.42,80.6h-19.18l-11.81-28.83-11.69,28.83h-19.18l-30.42-80.6h23.95l17.48,54.94,5.56-16.46-13.4-38.48Z"/></g><g><path class="cls-3" d="M120.41,303.73v-80.6h55.28v19.3h-33.15v13.4h27.02v17.94h-27.02v29.97h-22.14Z"/><path class="cls-3" d="M184.32,303.73v-80.6h22.14v80.6h-22.14Z"/><path class="cls-3" d="M242.44,264.12v39.62h-22.14v-80.6h17.25l32.35,40.98v-40.98h22.13v80.6h-17.59l-32.01-39.62Z"/><path class="cls-3" d="M324.51,223.14h24.75l25.66,80.6h-22.48l-4.17-15.78h-22.77l-4.17,15.78h-22.59l25.77-80.6Zm19.86,50.06l-7.49-28.38-7.49,28.38h14.98Z"/><path class="cls-3" d="M381.61,303.73v-80.6h22.14v61.3h36.55v19.3h-58.69Z"/></g><g><path class="cls-1" d="M115.68,300.43v-80.6h55.28v19.3h-33.15v13.4h27.02v17.94h-27.02v29.97h-22.14Z"/><path class="cls-1" d="M179.59,300.43v-80.6h22.14v80.6h-22.14Z"/><path class="cls-1" d="M237.71,260.81v39.62h-22.14v-80.6h17.25l32.35,40.98v-40.98h22.14v80.6h-17.6l-32.01-39.62Z"/><path class="cls-1" d="M319.78,219.83h24.75l25.66,80.6h-22.48l-4.17-15.78h-22.77l-4.17,15.78h-22.59l25.77-80.6Zm19.86,50.06l-7.49-28.38-7.49,28.38h14.98Z"/><path class="cls-1" d="M376.88,300.43v-80.6h22.14v61.3h36.55v19.3h-58.69Z"/></g><g><path class="cls-9" d="M110.26,296.97v-80.6h55.28v19.3h-33.15v13.4h27.02v17.94h-27.02v29.97h-22.14Z"/><path class="cls-9" d="M174.17,296.97v-80.6h22.14v80.6h-22.14Z"/><path class="cls-9" d="M232.29,257.35v39.62h-22.14v-80.6h17.25l32.35,40.98v-40.98h22.13v80.6h-17.59l-32.01-39.62Z"/><path class="cls-9" d="M314.36,216.37h24.75l25.66,80.6h-22.48l-4.17-15.78h-22.77l-4.17,15.78h-22.59l25.77-80.6Zm19.86,50.06l-7.49-28.38-7.49,28.38h14.98Z"/><path class="cls-9" d="M371.46,296.97v-80.6h22.14v61.3h36.55v19.3h-58.69Z"/></g><g><path class="cls-8" d="M184.81,325.08c-2.57-1.51-4.92-2.74-7.04-3.69-2.12-.95-4.43-1.8-6.92-2.55-2.5-.76-4.96-1.13-7.38-1.13-1.89,0-3.44,.3-4.65,.9-1.21,.6-1.82,1.61-1.82,3.04,0,1.35,.6,2.44,1.82,3.26,1.21,.83,2.93,1.58,5.17,2.25,2.23,.67,4.9,1.5,8,2.47,4.99,1.5,9.31,3.23,12.94,5.17,3.63,1.95,6.43,4.44,8.4,7.48,1.97,3.04,2.95,7.07,2.95,12.09s-.87,8.83-2.61,12.09c-1.74,3.26-4.09,5.87-7.04,7.82-2.95,1.95-6.24,3.36-9.88,4.22-3.63,.86-7.34,1.29-11.12,1.29s-7.89-.4-12.09-1.19c-4.2-.79-8.27-1.89-12.2-3.29-3.94-1.4-7.53-3.05-10.78-4.94l9.54-19.41c3.03,1.82,5.79,3.29,8.29,4.43,2.5,1.14,5.28,2.16,8.34,3.06s6.15,1.36,9.25,1.36c2.42,0,4.1-.31,5.05-.92,.95-.61,1.42-1.43,1.42-2.44,0-1.58-.83-2.8-2.5-3.66-1.67-.86-3.84-1.69-6.53-2.48-2.69-.79-5.66-1.71-8.91-2.76-4.69-1.58-8.55-3.36-11.58-5.35-3.03-1.99-5.26-4.36-6.7-7.1-1.44-2.74-2.16-6.07-2.16-9.98,0-5.94,1.4-10.9,4.2-14.88,2.8-3.98,6.49-7.01,11.07-9.08,4.58-2.07,9.52-3.1,14.81-3.1,3.93,0,7.74,.47,11.41,1.42,3.67,.95,7.11,2.1,10.33,3.46,3.22,1.36,6.03,2.65,8.46,3.86l-9.54,18.28Z"/><path class="cls-8" d="M277.32,298.63v80.6h-22.14v-31.56h-27.02v31.56h-22.14v-80.6h22.14v29.74h27.02v-29.74h22.14Z"/><path class="cls-8" d="M327.5,379.79c-6.13,0-11.69-1.15-16.69-3.46-5-2.31-9.29-5.41-12.88-9.31-3.59-3.9-6.36-8.29-8.29-13.17-1.93-4.88-2.9-9.93-2.9-15.15s1.02-10.48,3.07-15.32c2.04-4.84,4.9-9.18,8.57-13,3.67-3.82,8.02-6.83,13.05-9.02,5.03-2.19,10.54-3.29,16.52-3.29s11.69,1.15,16.69,3.46c5,2.31,9.27,5.43,12.83,9.37,3.56,3.94,6.3,8.34,8.23,13.23,1.93,4.88,2.9,9.9,2.9,15.04s-1,10.37-3.01,15.21c-2.01,4.84-4.84,9.18-8.51,13-3.67,3.82-8,6.85-13,9.08-5,2.23-10.52,3.35-16.57,3.35Zm-18.28-40.87c0,2.72,.38,5.35,1.14,7.89,.76,2.54,1.89,4.81,3.41,6.81,1.51,2.01,3.42,3.6,5.73,4.77,2.31,1.17,5.05,1.76,8.23,1.76s5.94-.6,8.29-1.82c2.34-1.21,4.26-2.86,5.73-4.94,1.48-2.08,2.57-4.39,3.29-6.92,.72-2.53,1.08-5.13,1.08-7.78s-.38-5.33-1.13-7.83c-.76-2.5-1.89-4.75-3.41-6.75-1.51-2-3.45-3.58-5.79-4.71-2.35-1.14-5.07-1.7-8.17-1.7s-5.92,.61-8.23,1.82c-2.31,1.21-4.22,2.82-5.73,4.82-1.51,2.01-2.63,4.28-3.35,6.81-.72,2.54-1.08,5.13-1.08,7.78Z"/><path class="cls-8" d="M400.04,298.63h20.32l7.38,24.86,7.49-24.86h20.32l-13.62,38.48,5.79,16.46,17.37-54.94h24.07l-30.42,80.6h-19.18l-11.81-28.83-11.69,28.83h-19.18l-30.42-80.6h23.95l17.48,54.94,5.56-16.46-13.4-38.48Z"/></g><g><path class="cls-8" d="M106.38,292.34v-80.6h55.28v19.3h-33.15v13.4h27.02v17.94h-27.02v29.97h-22.14Z"/><path class="cls-8" d="M170.29,292.34v-80.6h22.14v80.6h-22.14Z"/><path class="cls-8" d="M228.41,252.72v39.62h-22.14v-80.6h17.25l32.35,40.98v-40.98h22.14v80.6h-17.6l-32.01-39.62Z"/><path class="cls-8" d="M310.49,211.74h24.75l25.66,80.6h-22.48l-4.17-15.78h-22.77l-4.17,15.78h-22.59l25.77-80.6Zm19.86,50.06l-7.49-28.38-7.49,28.38h14.98Z"/><path class="cls-8" d="M367.59,292.34v-80.6h22.14v61.3h36.55v19.3h-58.69Z"/></g></svg>