<svg id="logo-ehb-small" xmlns="http://www.w3.org/2000/svg" width="199.706" height="48" viewBox="0 0 199.706 48">
  <path id="path4139" d="M44.976,44.438A17.745,17.745,0,0,1,39.858,48H60.128a32.333,32.333,0,0,0,3.913-10.687H49.291a17.817,17.817,0,0,1-4.315,7.124m12.643-27.9.7-.7a34.167,34.167,0,0,0-4.415-5.72C41.313-2.473,22.248-3.828,9.454,8.966A32.221,32.221,0,0,0,4.387,48h20.32a18.451,18.451,0,0,1-5.118-3.562,17.957,17.957,0,0,1,0-25.337A15.349,15.349,0,0,1,37.952,15.94l-13.9,13.847L34.189,39.922,47.735,26.376l9.884-9.834Z" transform="translate(0 0)" fill="#e2001a"/>
  <g id="g4248" transform="translate(71.718 12.428)">
    <path id="path4141" d="M310.244,77.118h-7.626a3.739,3.739,0,0,1,3.813-2.86,3.8,3.8,0,0,1,3.813,2.86m4.917,3.362a5.722,5.722,0,0,0,.1-1.3,8.831,8.831,0,1,0-8.78,8.63,9.006,9.006,0,0,0,8.078-5.469h-5.218a3.5,3.5,0,0,1-2.81,1.3,3.73,3.73,0,0,1-3.913-3.161ZM325.8,74.81h1V70.144c-.652,0-2.208.05-2.208.05a6.938,6.938,0,0,0-5.017,2.107c-1.355,1.656-1.505,3.06-1.505,5.118v9.934h5.017V78.172c0-1.856.452-3.362,2.709-3.362m15.6,4.164a4.19,4.19,0,1,1-4.214-4.164,4.017,4.017,0,0,1,4.214,4.164m0,8.329h5.017V70.7H341.4v1.756h-.05a5.673,5.673,0,0,0-4.917-2.358c-5.067,0-8.429,4.014-8.429,8.83,0,4.917,3.261,8.88,8.429,8.88,1.806,0,4.014-.652,4.917-2.358h.05V87.3Zm12.844-12.091c0-.753.753-1.1,1.4-1.1.853,0,1.555.351,1.555,1.254h4.917c-.351-3.512-3.06-5.218-6.422-5.218-3.211,0-6.522,2.007-6.522,5.469,0,2.358,2.007,3.612,4.014,4.315.7.251,1.455.5,2.157.753.9.351,2.258.7,2.258,1.907,0,.853-1,1.3-1.756,1.3a1.741,1.741,0,0,1-1.907-1.505h-4.967c.4,3.663,3.311,5.519,6.823,5.519,3.412,0,6.823-1.907,6.823-5.669.05-5.92-8.379-4.415-8.379-7.024M386.2,87.353h5.017V77.419c0-2.057-.151-3.462-1.505-5.118a6.745,6.745,0,0,0-5.017-2.107s-.652-.05-1.3-.05-1.3.05-1.3.05a7.906,7.906,0,0,0-4.014,1.4,7.906,7.906,0,0,0-4.014-1.4s-.652-.05-1.3-.05-1.3.05-1.3.05a6.938,6.938,0,0,0-5.017,2.107c-1.355,1.656-1.505,3.06-1.505,5.118v9.934h5.017V78.172c0-1.907.4-3.412,2.709-3.412h.251c2.258,0,2.709,1.505,2.709,3.412v9.181h5.017V78.172c0-1.907.4-3.412,2.709-3.412h.251c2.258,0,2.709,1.505,2.709,3.412v9.181Zm22.076-1.605c1.355-1.656,1.505-3.06,1.505-5.118V70.7h-5.017v9.181c0,1.907-.4,3.412-2.709,3.412h-.251c-2.258,0-2.709-1.505-2.709-3.412V70.7h-5.017V80.63c0,2.057.151,3.462,1.505,5.118a6.745,6.745,0,0,0,5.017,2.107s.652.05,1.3.05,1.3-.05,1.3-.05a7,7,0,0,0,5.067-2.107m11.891-10.386h4.917c-.351-3.512-3.06-5.218-6.422-5.218-3.211,0-6.522,2.007-6.522,5.469,0,2.358,2.007,3.612,4.014,4.315.7.251,1.455.5,2.157.753.9.351,2.258.7,2.258,1.907,0,.853-1,1.3-1.756,1.3a1.741,1.741,0,0,1-1.907-1.505h-4.967c.4,3.663,3.311,5.519,6.823,5.519,3.412,0,6.823-1.907,6.823-5.669,0-5.87-8.429-4.415-8.429-7.024,0-.753.753-1.1,1.4-1.1.9,0,1.555.3,1.606,1.254" transform="translate(-297.601 -70.094)" fill="#000"/>
    <path id="polygon4143" d="M91.914,222.011V218.9h1v7.175h-1v-3.111h-2.96v3.111H87.9V218.9h1.054v3.111Z" transform="translate(-86.445 -194.015)" fill="#000"/>
    <path id="path4145" d="M318.214,126.919a3.713,3.713,0,1,1,3.713-3.713,3.7,3.7,0,0,1-3.713,3.713m0-6.472a2.51,2.51,0,0,0-2.408,1.605,2.78,2.78,0,0,0,0,2.308,2.558,2.558,0,0,0,2.408,1.605,2.59,2.59,0,0,0,2.509-1.756,3.238,3.238,0,0,0,.2-.953,2.721,2.721,0,0,0-2.709-2.81" transform="translate(-306.022 -94.709)" fill="#000"/>
    <path id="path4147" d="M337.819,126.568a4.136,4.136,0,0,1-1.555.351,3.713,3.713,0,1,1,3.211-5.469h-1.2a2.547,2.547,0,0,0-1.957-.953,2.731,2.731,0,0,0-2.659,2.759,2.687,2.687,0,0,0,2.659,2.709,2.593,2.593,0,0,0,2.458-1.756h-3.311v-.953h4.515a3.836,3.836,0,0,1-2.157,3.311" transform="translate(-315.041 -94.709)" fill="#000"/>
    <path id="polygon4149" d="M142.163,221.96v1h-2.81v2.157h2.81v.953H138.3V218.9h3.863v.953h-2.81v2.107Z" transform="translate(-111.558 -194.015)" fill="#000"/>
    <path id="path4151" d="M363.909,126.919a2.148,2.148,0,0,1-2.208-2.258h1.054a1.175,1.175,0,0,0,1.154,1.3,1.12,1.12,0,0,0,1.154-1.2c0-.753-.552-.953-1.154-1.154-1.1-.4-2.007-.753-2.007-2.157a1.97,1.97,0,0,1,2.007-1.957,1.936,1.936,0,0,1,2.057,2.007h-1.054a.98.98,0,1,0-1.957-.1c0,1.505,3.161.6,3.161,3.311a2.164,2.164,0,0,1-2.208,2.208" transform="translate(-329.541 -94.709)" fill="#000"/>
    <path id="path4153" d="M379.27,121.451a2.619,2.619,0,0,0-2.007-1,2.7,2.7,0,0,0-2.659,2.759,2.605,2.605,0,0,0,4.616,1.806h1.3a3.617,3.617,0,0,1-3.261,1.907,3.705,3.705,0,0,1-3.663-3.763,3.651,3.651,0,0,1,3.663-3.663,3.969,3.969,0,0,1,2.208.7,3.767,3.767,0,0,1,1.1,1.254Z" transform="translate(-335.47 -94.709)" fill="#000"/>
    <path id="polygon4155" d="M179.554,218.9v3.111h2.91V218.9h1.054v7.175h-1.054v-3.111h-2.91v3.111H178.5V218.9Z" transform="translate(-131.589 -194.015)" fill="#000"/>
    <path id="path4157" d="M408.814,126.919a3.713,3.713,0,1,1,3.713-3.713,3.7,3.7,0,0,1-3.713,3.713m0-6.472a2.51,2.51,0,0,0-2.408,1.605,2.78,2.78,0,0,0,0,2.308,2.558,2.558,0,0,0,2.408,1.605,2.59,2.59,0,0,0,2.509-1.756,3.239,3.239,0,0,0,.2-.953,2.753,2.753,0,0,0-2.709-2.81" transform="translate(-351.166 -94.709)" fill="#000"/>
    <path id="path4159" d="M426.914,126.919a3.713,3.713,0,1,1,3.713-3.713,3.7,3.7,0,0,1-3.713,3.713m0-6.472a2.51,2.51,0,0,0-2.408,1.605,2.78,2.78,0,0,0,0,2.308,2.558,2.558,0,0,0,2.408,1.605,2.59,2.59,0,0,0,2.509-1.756,3.239,3.239,0,0,0,.2-.953,2.753,2.753,0,0,0-2.709-2.81" transform="translate(-360.185 -94.709)" fill="#000"/>
    <path id="polygon4161" d="M229.4,226.075V218.9h1.054v6.221h2.458v.953Z" transform="translate(-156.952 -194.015)" fill="#000"/>
    <path id="path4163" d="M470.966,125.664a2.192,2.192,0,0,1-2.208,1.2H466.6v-7.175h1.856a2.054,2.054,0,0,1,2.107,1.2,2.08,2.08,0,0,1,.151.8,1.618,1.618,0,0,1-.652,1.355,1.969,1.969,0,0,1,1.054,1.756,2.784,2.784,0,0,1-.151.853m-2.509-5.017h-.8v2.007h.853c.652,0,1.154-.3,1.154-1,0-.753-.552-1-1.2-1m1.4,3.412a1.274,1.274,0,0,0-1.154-.452h-1v2.258h1.154a1.2,1.2,0,0,0,1.3-1.1,2.125,2.125,0,0,0-.3-.7" transform="translate(-381.811 -94.809)" fill="#000"/>
    <path id="path4165" d="M483.013,124.059a1.6,1.6,0,0,1-.7.151l2.007,2.659h-1.3l-2.358-3.311h0v3.311H479.6v-7.175h2.208a2.642,2.642,0,0,1,1.907.6,2.345,2.345,0,0,1,.652,1.706,2.025,2.025,0,0,1-1.355,2.057m-1.3-3.412h-1.1v2.759h.7c.9,0,1.957-.251,1.957-1.4.05-.9-.7-1.355-1.555-1.355" transform="translate(-388.288 -94.809)" fill="#000"/>
    <path id="path4167" d="M497.015,126.367a2.578,2.578,0,0,1-3.311,0,2.284,2.284,0,0,1-.7-1.856v-4.816h1.054v4.816a1.362,1.362,0,1,0,2.709,0v-4.816h1.054v4.816a2.458,2.458,0,0,1-.8,1.856" transform="translate(-394.965 -94.809)" fill="#000"/>
    <path id="path4169" d="M508.409,126.919a2.148,2.148,0,0,1-2.208-2.258h1.054a1.175,1.175,0,0,0,1.154,1.3,1.12,1.12,0,0,0,1.154-1.2c0-.753-.552-.953-1.154-1.154-1.1-.4-2.007-.753-2.007-2.157a1.97,1.97,0,0,1,2.007-1.957,1.936,1.936,0,0,1,2.057,2.007h-1.054a.98.98,0,1,0-1.957-.1c0,1.505,3.161.6,3.161,3.311a2.164,2.164,0,0,1-2.208,2.208" transform="translate(-401.542 -94.709)" fill="#000"/>
    <path id="path4171" d="M520.209,126.919A2.148,2.148,0,0,1,518,124.662h1.054a1.175,1.175,0,0,0,1.154,1.3,1.12,1.12,0,0,0,1.154-1.2c0-.753-.552-.953-1.154-1.154-1.1-.4-2.007-.753-2.007-2.157a1.97,1.97,0,0,1,2.007-1.957,1.936,1.936,0,0,1,2.057,2.007h-1.054a.98.98,0,1,0-1.957-.1c0,1.505,3.161.6,3.161,3.311a2.107,2.107,0,0,1-2.208,2.208" transform="translate(-407.422 -94.709)" fill="#000"/>
    <path id="polygon4173" d="M321.963,221.96v1h-2.81v2.157h2.81v.953H318.1V218.9h3.863v.953h-2.81v2.107Z" transform="translate(-201.149 -194.015)" fill="#000"/>
    <path id="polygon4175" d="M330.1,226.075V218.9h1.054v6.221h2.458v.953Z" transform="translate(-207.129 -194.015)" fill="#000"/>
  </g>
</svg>
