<?xml version="1.0" encoding="utf-8"?>
<!-- Generator: Adobe Illustrator 26.3.1, SVG Export Plug-In . SVG Version: 6.00 Build 0)  -->
<svg version="1.1" id="Calque_1" xmlns="http://www.w3.org/2000/svg" xmlns:xlink="http://www.w3.org/1999/xlink" x="0px" y="0px"
	 viewBox="0 0 595.3 596" style="enable-background:new 0 0 595.3 596;" xml:space="preserve">
<style type="text/css">
	.st0{fill:#E30613;stroke:#000000;stroke-width:0.5;stroke-miterlimit:10;}
	.st1{fill:#D45E24;stroke:#000000;stroke-width:0.5;stroke-miterlimit:10;}
	.st2{fill:#ECD018;stroke:#000000;stroke-width:0.5;stroke-miterlimit:10;}
	.st3{fill:#CC98A5;stroke:#000000;stroke-width:0.5;stroke-miterlimit:10;}
	.st4{fill:#177294;stroke:#000000;stroke-width:0.5;stroke-miterlimit:10;}
	.st5{fill:#127193;stroke:#000000;stroke-miterlimit:10;}
	.st6{fill:#DC1F36;stroke:#000000;stroke-miterlimit:10;}
	.st7{fill:#ECD114;stroke:#000000;stroke-miterlimit:10;}
	.st8{fill:#EDE6D9;stroke:#000000;stroke-miterlimit:10;}
</style>
<g id="STRIPES">
	<rect x="34.6" y="306.6" class="st0" width="530.5" height="11.3"/>
	<rect x="22.4" y="295.4" class="st1" width="550.7" height="11.3"/>
	<rect x="25.9" y="291.2" class="st2" width="533.8" height="4.3"/>
	<rect x="42.2" y="283.6" class="st3" width="527.3" height="7.6"/>
	<rect x="42.2" y="317.6" class="st4" width="511.8" height="7.6"/>
</g>
<g id="REALITY">
	<g>
		<path class="st5" d="M206.3,367.1v-60.4h27.7c2.9,0,5.7,0.6,8.2,1.8c2.5,1.2,4.6,2.8,6.4,4.8c1.8,2,3.2,4.2,4.2,6.7
			c1,2.5,1.5,5.1,1.5,7.6c0,3.5-0.8,6.8-2.3,9.8c-1.5,3-3.7,5.5-6.4,7.4l12.8,22.2h-18.7l-10.6-18.5h-6.2v18.5H206.3z M222.9,334.1
			h10.5c1,0,2-0.6,2.8-1.7c0.9-1.1,1.3-2.7,1.3-4.8c0-2.1-0.5-3.7-1.5-4.8s-2-1.7-3.1-1.7h-10V334.1z"/>
		<path class="st5" d="M306.7,352.7v14.5h-43v-60.4H306v14.5h-25.7v8.5h21.9v13.4h-21.9v9.5H306.7z"/>
		<path class="st5" d="M330.1,306.8h15.1l20.9,60.4h-16.8l-3.7-11.8h-16.1l-3.6,11.8h-16.9L330.1,306.8z M343,344.3l-5.4-18.7
			l-5.6,18.7H343z"/>
		<path class="st5" d="M371.2,367.1v-60.4h16.6v45.9h27.4v14.5H371.2z"/>
		<path class="st5" d="M420.9,367.1v-60.4h16.6v60.4H420.9z"/>
		<path class="st5" d="M494.8,321.2h-17.3v45.9h-16.6v-45.9h-17.4v-14.5h51.3V321.2z"/>
		<path class="st5" d="M513.1,306.8l10.8,26.1l11-26.1h18l-20.8,40.4v20h-16.5V347l-20.5-40.2H513.1z"/>
	</g>
	<g>
		<path class="st6" d="M202.5,364.4v-60.4h27.7c2.9,0,5.7,0.6,8.2,1.8c2.5,1.2,4.6,2.8,6.4,4.8c1.8,2,3.2,4.2,4.2,6.7
			c1,2.5,1.5,5.1,1.5,7.6c0,3.5-0.8,6.8-2.3,9.8c-1.5,3-3.7,5.5-6.4,7.4l12.8,22.2h-18.7l-10.6-18.5h-6.2v18.5H202.5z M219.1,331.5
			h10.5c1,0,2-0.6,2.8-1.7c0.9-1.1,1.3-2.7,1.3-4.8c0-2.1-0.5-3.7-1.5-4.8s-2-1.7-3.1-1.7h-10V331.5z"/>
		<path class="st6" d="M302.9,350v14.5h-43v-60.4h42.2v14.5h-25.7v8.5h21.9v13.4h-21.9v9.5H302.9z"/>
		<path class="st6" d="M326.3,304.1h15.1l20.9,60.4h-16.8l-3.7-11.8h-16.1l-3.6,11.8h-16.9L326.3,304.1z M339.2,341.6l-5.4-18.7
			l-5.6,18.7H339.2z"/>
		<path class="st6" d="M367.3,364.4v-60.4h16.6V350h27.4v14.5H367.3z"/>
		<path class="st6" d="M417,364.4v-60.4h16.6v60.4H417z"/>
		<path class="st6" d="M491,318.5h-17.3v45.9h-16.6v-45.9h-17.4v-14.5H491V318.5z"/>
		<path class="st6" d="M509.3,304.1l10.8,26.1l11-26.1h18l-20.8,40.4v20h-16.5v-20.1l-20.5-40.2H509.3z"/>
	</g>
	<g>
		<path class="st7" d="M199.7,361.6v-60.4h27.7c2.9,0,5.7,0.6,8.2,1.8c2.5,1.2,4.6,2.8,6.4,4.8c1.8,2,3.2,4.2,4.2,6.7
			c1,2.5,1.5,5.1,1.5,7.6c0,3.5-0.8,6.8-2.3,9.8c-1.5,3-3.7,5.5-6.4,7.4l12.8,22.2h-18.7l-10.6-18.5h-6.2v18.5H199.7z M216.3,328.7
			h10.5c1,0,2-0.6,2.8-1.7c0.9-1.1,1.3-2.7,1.3-4.8c0-2.1-0.5-3.7-1.5-4.8s-2-1.7-3.1-1.7h-10V328.7z"/>
		<path class="st7" d="M300.1,347.2v14.5h-43v-60.4h42.2v14.5h-25.7v8.5h21.9v13.4h-21.9v9.5H300.1z"/>
		<path class="st7" d="M323.5,301.3h15.1l20.9,60.4h-16.8l-3.7-11.8h-16.1l-3.6,11.8h-16.9L323.5,301.3z M336.4,338.8l-5.4-18.7
			l-5.6,18.7H336.4z"/>
		<path class="st7" d="M364.5,361.6v-60.4h16.6v45.9h27.4v14.5H364.5z"/>
		<path class="st7" d="M414.2,361.6v-60.4h16.6v60.4H414.2z"/>
		<path class="st7" d="M488.2,315.7h-17.3v45.9h-16.6v-45.9h-17.4v-14.5h51.3V315.7z"/>
		<path class="st7" d="M506.5,301.3l10.8,26.1l11-26.1h18l-20.8,40.4v20H509v-20.1l-20.5-40.2H506.5z"/>
	</g>
	<g>
		<g>
			<path class="st8" d="M196.6,359.5v-60.4h27.7c2.9,0,5.7,0.6,8.2,1.8c2.5,1.2,4.6,2.8,6.4,4.8c1.8,2,3.2,4.2,4.2,6.7
				c1,2.5,1.5,5.1,1.5,7.6c0,3.5-0.8,6.8-2.3,9.8c-1.5,3-3.7,5.5-6.4,7.4l12.8,22.2H230l-10.6-18.5h-6.2v18.5H196.6z M213.1,326.5
				h10.5c1,0,2-0.6,2.8-1.7c0.9-1.1,1.3-2.7,1.3-4.8c0-2.1-0.5-3.7-1.5-4.8s-2-1.7-3.1-1.7h-10V326.5z"/>
			<path class="st8" d="M296.9,345v14.5h-43v-60.4h42.2v14.5h-25.7v8.5h21.9v13.4h-21.9v9.5H296.9z"/>
			<path class="st8" d="M320.3,299.1h15.1l20.9,60.4h-16.8l-3.7-11.8h-16.1l-3.6,11.8h-16.9L320.3,299.1z M333.2,336.6l-5.4-18.7
				l-5.6,18.7H333.2z"/>
			<path class="st8" d="M361.4,359.5v-60.4h16.6V345h27.4v14.5H361.4z"/>
			<path class="st8" d="M411.1,359.5v-60.4h16.6v60.4H411.1z"/>
			<path class="st8" d="M485,313.6h-17.3v45.9h-16.6v-45.9h-17.4v-14.5H485V313.6z"/>
			<path class="st8" d="M503.3,299.1l10.8,26.1l11-26.1h18l-20.8,40.4v20h-16.5v-20.1l-20.5-40.2H503.3z"/>
		</g>
	</g>
</g>
<g id="EXTENDED">
	<g>
		<path class="st5" d="M113.7,287.5v14.5h-43v-60.4h42.2V256H87.2v8.5h21.9V278H87.2v9.5H113.7z"/>
		<path class="st5" d="M133.2,241.6l11,19l11-19H173l-20.1,30.6l19.5,29.8h-17.9l-10.3-18.2l-10.3,18.2H116l19.5-29.8l-20.1-30.6
			H133.2z"/>
		<path class="st5" d="M224.2,256h-17.3v45.9h-16.6V256h-17.4v-14.5h51.3V256z"/>
		<path class="st5" d="M273.3,287.5v14.5h-43v-60.4h42.2V256h-25.7v8.5h21.9V278h-21.9v9.5H273.3z"/>
		<path class="st5" d="M297.6,272.3v29.7H281v-60.4h12.9l24.2,30.7v-30.7h16.6v60.4h-13.2L297.6,272.3z"/>
		<path class="st5" d="M345.1,301.9v-60.4h23.2c5,0,9.4,0.8,13.2,2.4c3.8,1.6,7,3.7,9.5,6.5c2.5,2.7,4.5,5.9,5.8,9.6
			c1.3,3.7,2,7.6,2,11.7c0,4.6-0.7,8.7-2.2,12.5c-1.4,3.7-3.5,6.9-6.2,9.5c-2.7,2.6-5.9,4.7-9.6,6.1s-7.9,2.2-12.5,2.2H345.1z
			 M381.9,271.7c0-2.3-0.3-4.4-0.9-6.4c-0.6-1.9-1.5-3.6-2.7-4.9c-1.2-1.4-2.6-2.4-4.3-3.2s-3.6-1.1-5.7-1.1h-6.6v31.4h6.6
			c2.2,0,4.1-0.4,5.8-1.2c1.7-0.8,3.1-1.9,4.3-3.3c1.2-1.4,2-3.1,2.6-5C381.6,276,381.9,273.9,381.9,271.7z"/>
		<path class="st5" d="M449,287.5v14.5h-43v-60.4h42.2V256h-25.7v8.5h21.9V278h-21.9v9.5H449z"/>
		<path class="st5" d="M456.7,301.9v-60.4h23.2c5,0,9.4,0.8,13.2,2.4c3.8,1.6,7,3.7,9.5,6.5c2.5,2.7,4.5,5.9,5.8,9.6
			c1.3,3.7,2,7.6,2,11.7c0,4.6-0.7,8.7-2.2,12.5c-1.4,3.7-3.5,6.9-6.2,9.5c-2.7,2.6-5.9,4.7-9.6,6.1s-7.9,2.2-12.5,2.2H456.7z
			 M493.5,271.7c0-2.3-0.3-4.4-0.9-6.4c-0.6-1.9-1.5-3.6-2.7-4.9c-1.2-1.4-2.6-2.4-4.3-3.2s-3.6-1.1-5.7-1.1h-6.6v31.4h6.6
			c2.2,0,4.1-0.4,5.8-1.2c1.7-0.8,3.1-1.9,4.3-3.3c1.2-1.4,2-3.1,2.6-5C493.2,276,493.5,273.9,493.5,271.7z"/>
	</g>
	<g>
		<path class="st6" d="M110.5,285.3v14.5h-43v-60.4h42.2v14.5H84.1v8.5H106v13.4H84.1v9.5H110.5z"/>
		<path class="st6" d="M130.1,239.4l11,19l11-19h17.8L149.7,270l19.5,29.8h-17.9l-10.3-18.2l-10.3,18.2h-17.9l19.5-29.8l-20.1-30.6
			H130.1z"/>
		<path class="st6" d="M221.1,253.9h-17.3v45.9h-16.6v-45.9h-17.4v-14.5h51.3V253.9z"/>
		<path class="st6" d="M270.2,285.3v14.5h-43v-60.4h42.2v14.5h-25.7v8.5h21.9v13.4h-21.9v9.5H270.2z"/>
		<path class="st6" d="M294.5,270.1v29.7h-16.6v-60.4h12.9l24.2,30.7v-30.7h16.6v60.4h-13.2L294.5,270.1z"/>
		<path class="st6" d="M342,299.8v-60.4h23.2c5,0,9.4,0.8,13.2,2.4c3.8,1.6,7,3.7,9.5,6.5c2.5,2.7,4.5,5.9,5.8,9.6
			c1.3,3.7,2,7.6,2,11.7c0,4.6-0.7,8.7-2.2,12.5c-1.4,3.7-3.5,6.9-6.2,9.5c-2.7,2.6-5.9,4.7-9.6,6.1s-7.9,2.2-12.5,2.2H342z
			 M378.8,269.5c0-2.3-0.3-4.4-0.9-6.4c-0.6-1.9-1.5-3.6-2.7-4.9c-1.2-1.4-2.6-2.4-4.3-3.2s-3.6-1.1-5.7-1.1h-6.6v31.4h6.6
			c2.2,0,4.1-0.4,5.8-1.2c1.7-0.8,3.1-1.9,4.3-3.3c1.2-1.4,2-3.1,2.6-5C378.5,273.9,378.8,271.8,378.8,269.5z"/>
		<path class="st6" d="M445.9,285.3v14.5h-43v-60.4h42.2v14.5h-25.7v8.5h21.9v13.4h-21.9v9.5H445.9z"/>
		<path class="st6" d="M453.6,299.8v-60.4h23.2c5,0,9.4,0.8,13.2,2.4c3.8,1.6,7,3.7,9.5,6.5c2.5,2.7,4.5,5.9,5.8,9.6
			c1.3,3.7,2,7.6,2,11.7c0,4.6-0.7,8.7-2.2,12.5c-1.4,3.7-3.5,6.9-6.2,9.5c-2.7,2.6-5.9,4.7-9.6,6.1s-7.9,2.2-12.5,2.2H453.6z
			 M490.4,269.5c0-2.3-0.3-4.4-0.9-6.4c-0.6-1.9-1.5-3.6-2.7-4.9c-1.2-1.4-2.6-2.4-4.3-3.2s-3.6-1.1-5.7-1.1h-6.6v31.4h6.6
			c2.2,0,4.1-0.4,5.8-1.2c1.7-0.8,3.1-1.9,4.3-3.3c1.2-1.4,2-3.1,2.6-5C490.1,273.9,490.4,271.8,490.4,269.5z"/>
	</g>
	<g>
		<path class="st7" d="M106.9,283v14.5h-43v-60.4h42.2v14.5H80.5v8.5h21.9v13.4H80.5v9.5H106.9z"/>
		<path class="st7" d="M126.5,237.1l11,19l11-19h17.8l-20.1,30.6l19.5,29.8h-17.9l-10.3-18.2l-10.3,18.2h-17.9l19.5-29.8l-20.1-30.6
			H126.5z"/>
		<path class="st7" d="M217.5,251.6h-17.3v45.9h-16.6v-45.9h-17.4v-14.5h51.3V251.6z"/>
		<path class="st7" d="M266.6,283v14.5h-43v-60.4h42.2v14.5h-25.7v8.5h21.9v13.4h-21.9v9.5H266.6z"/>
		<path class="st7" d="M290.9,267.8v29.7h-16.6v-60.4h12.9l24.2,30.7v-30.7H328v60.4h-13.2L290.9,267.8z"/>
		<path class="st7" d="M338.4,297.5v-60.4h23.2c5,0,9.4,0.8,13.2,2.4c3.8,1.6,7,3.7,9.5,6.5c2.5,2.7,4.5,5.9,5.8,9.6
			c1.3,3.7,2,7.6,2,11.7c0,4.6-0.7,8.7-2.2,12.5c-1.4,3.7-3.5,6.9-6.2,9.5c-2.7,2.6-5.9,4.7-9.6,6.1s-7.9,2.2-12.5,2.2H338.4z
			 M375.2,267.2c0-2.3-0.3-4.4-0.9-6.4c-0.6-1.9-1.5-3.6-2.7-4.9c-1.2-1.4-2.6-2.4-4.3-3.2s-3.6-1.1-5.7-1.1H355V283h6.6
			c2.2,0,4.1-0.4,5.8-1.2c1.7-0.8,3.1-1.9,4.3-3.3c1.2-1.4,2-3.1,2.6-5C374.9,271.6,375.2,269.5,375.2,267.2z"/>
		<path class="st7" d="M442.3,283v14.5h-43v-60.4h42.2v14.5h-25.7v8.5h21.9v13.4h-21.9v9.5H442.3z"/>
		<path class="st7" d="M450,297.5v-60.4h23.2c5,0,9.4,0.8,13.2,2.4c3.8,1.6,7,3.7,9.5,6.5c2.5,2.7,4.5,5.9,5.8,9.6
			c1.3,3.7,2,7.6,2,11.7c0,4.6-0.7,8.7-2.2,12.5c-1.4,3.7-3.5,6.9-6.2,9.5c-2.7,2.6-5.9,4.7-9.6,6.1s-7.9,2.2-12.5,2.2H450z
			 M486.8,267.2c0-2.3-0.3-4.4-0.9-6.4c-0.6-1.9-1.5-3.6-2.7-4.9c-1.2-1.4-2.6-2.4-4.3-3.2s-3.6-1.1-5.7-1.1h-6.6V283h6.6
			c2.2,0,4.1-0.4,5.8-1.2c1.7-0.8,3.1-1.9,4.3-3.3c1.2-1.4,2-3.1,2.6-5C486.5,271.6,486.8,269.5,486.8,267.2z"/>
	</g>
	<g>
		<g>
			<path class="st8" d="M104.4,279.9v14.5h-43V234h42.2v14.5H78v8.5h21.9v13.4H78v9.5H104.4z"/>
			<path class="st8" d="M123.9,234l11,19l11-19h17.8l-20.1,30.6l19.5,29.8h-17.9l-10.3-18.2l-10.3,18.2h-17.9l19.5-29.8L106,234
				H123.9z"/>
			<path class="st8" d="M215,248.5h-17.3v45.9h-16.6v-45.9h-17.4V234H215V248.5z"/>
			<path class="st8" d="M264,279.9v14.5h-43V234h42.2v14.5h-25.7v8.5h21.9v13.4h-21.9v9.5H264z"/>
			<path class="st8" d="M288.3,264.7v29.7h-16.6V234h12.9l24.2,30.7V234h16.6v60.4h-13.2L288.3,264.7z"/>
			<path class="st8" d="M335.8,294.4V234H359c5,0,9.4,0.8,13.2,2.4c3.8,1.6,7,3.7,9.5,6.5c2.5,2.7,4.5,5.9,5.8,9.6
				c1.3,3.7,2,7.6,2,11.7c0,4.6-0.7,8.7-2.2,12.5c-1.4,3.7-3.5,6.9-6.2,9.5c-2.7,2.6-5.9,4.7-9.6,6.1s-7.9,2.2-12.5,2.2H335.8z
				 M372.6,264.1c0-2.3-0.3-4.4-0.9-6.4c-0.6-1.9-1.5-3.6-2.7-4.9c-1.2-1.4-2.6-2.4-4.3-3.2s-3.6-1.1-5.7-1.1h-6.6v31.4h6.6
				c2.2,0,4.1-0.4,5.8-1.2c1.7-0.8,3.1-1.9,4.3-3.3c1.2-1.4,2-3.1,2.6-5C372.3,268.5,372.6,266.4,372.6,264.1z"/>
			<path class="st8" d="M439.7,279.9v14.5h-43V234h42.2v14.5h-25.7v8.5h21.9v13.4h-21.9v9.5H439.7z"/>
			<path class="st8" d="M447.4,294.4V234h23.2c5,0,9.4,0.8,13.2,2.4c3.8,1.6,7,3.7,9.5,6.5c2.5,2.7,4.5,5.9,5.8,9.6
				c1.3,3.7,2,7.6,2,11.7c0,4.6-0.7,8.7-2.2,12.5c-1.4,3.7-3.5,6.9-6.2,9.5c-2.7,2.6-5.9,4.7-9.6,6.1s-7.9,2.2-12.5,2.2H447.4z
				 M484.2,264.1c0-2.3-0.3-4.4-0.9-6.4c-0.6-1.9-1.5-3.6-2.7-4.9c-1.2-1.4-2.6-2.4-4.3-3.2s-3.6-1.1-5.7-1.1H464v31.4h6.6
				c2.2,0,4.1-0.4,5.8-1.2c1.7-0.8,3.1-1.9,4.3-3.3c1.2-1.4,2-3.1,2.6-5C483.9,268.5,484.2,266.4,484.2,264.1z"/>
		</g>
	</g>
</g>
</svg>
