<?xml version="1.0" encoding="utf-8"?>
<!-- Generator: Adobe Illustrator 26.3.1, SVG Export Plug-In . SVG Version: 6.00 Build 0)  -->
<svg version="1.1" xmlns="http://www.w3.org/2000/svg" xmlns:xlink="http://www.w3.org/1999/xlink" x="0px" y="0px"
	 viewBox="0 0 595.3 596" style="enable-background:new 0 0 595.3 596;" xml:space="preserve">
<style type="text/css">
	.st0{fill:#E30613;stroke:#000000;stroke-width:0.5;stroke-miterlimit:10;}
	.st1{fill:#D45E24;stroke:#000000;stroke-width:0.5;stroke-miterlimit:10;}
	.st2{fill:#ECD018;stroke:#000000;stroke-width:0.5;stroke-miterlimit:10;}
	.st3{fill:#CC98A5;stroke:#000000;stroke-width:0.5;stroke-miterlimit:10;}
	.st4{fill:#177294;stroke:#000000;stroke-width:0.5;stroke-miterlimit:10;}
	.st5{fill:#127193;stroke:#000000;stroke-miterlimit:10;}
	.st6{fill:#DC1F36;stroke:#000000;stroke-miterlimit:10;}
	.st7{fill:#ECD114;stroke:#000000;stroke-miterlimit:10;}
	.st8{fill:#EDE6D9;stroke:#000000;stroke-miterlimit:10;}
</style>
<g id="Calque_1">
	<g id="STRIPES">
		<rect x="33.8" y="306.6" class="st0" width="531.9" height="11.3"/>
		<rect x="21.6" y="295.4" class="st1" width="552.2" height="11.3"/>
		<rect x="25.1" y="291.2" class="st2" width="535.3" height="4.3"/>
		<rect x="41.5" y="283.6" class="st3" width="528.8" height="7.6"/>
		<rect x="41.5" y="317.6" class="st4" width="513.3" height="7.6"/>
	</g>
	<g id="MOTION">
		<g>
			<path class="st5" d="M141.4,343.7v-42.5l-13.5,29.9h-11.8l-13.5-29.9v42.5H80.4v-80.6h24.2l17.4,37.9l17.5-37.9h24.1v80.6H141.4z
				"/>
			<path class="st5" d="M213.7,344.4c-6.1,0-11.7-1.2-16.7-3.5c-5-2.3-9.3-5.4-12.8-9.3c-3.6-3.8-6.3-8.2-8.3-13.1
				c-2-4.9-3-10-3-15.2c0-5.3,1-10.4,3.1-15.3c2-4.9,4.9-9.3,8.6-13c3.7-3.7,8-6.7,13.1-9c5-2.2,10.5-3.3,16.5-3.3
				c6.1,0,11.7,1.2,16.7,3.5c5,2.3,9.3,5.4,12.8,9.3c3.6,3.9,6.3,8.2,8.2,13.2c1.9,4.9,2.9,10,2.9,15.1c0,5.3-1,10.4-3.1,15.3
				s-4.9,9.2-8.5,12.9s-8,6.8-13,9C225.2,343.3,219.7,344.4,213.7,344.4z M195.4,303.5c0,2.7,0.4,5.4,1.1,7.9
				c0.8,2.5,1.9,4.8,3.4,6.8c1.5,2,3.4,3.6,5.7,4.8c2.3,1.2,5.1,1.8,8.2,1.8c3.2,0,5.9-0.6,8.3-1.9c2.3-1.2,4.3-2.9,5.7-4.9
				c1.5-2,2.6-4.3,3.3-6.9c0.7-2.6,1.1-5.2,1.1-7.8c0-2.7-0.4-5.4-1.1-7.9c-0.8-2.5-1.9-4.8-3.5-6.7c-1.6-1.9-3.5-3.5-5.8-4.7
				c-2.3-1.2-5-1.8-8.1-1.8c-3.2,0-5.9,0.6-8.2,1.8c-2.3,1.2-4.2,2.8-5.7,4.8c-1.5,2-2.6,4.3-3.3,6.8
				C195.8,298.3,195.4,300.9,195.4,303.5z"/>
			<path class="st5" d="M325.7,282.4h-23.2v61.3h-22.1v-61.3h-23.3v-19.3h68.6V282.4z"/>
			<path class="st5" d="M333.8,343.7v-80.6h22.1v80.6H333.8z"/>
			<path class="st5" d="M406.1,344.4c-6.1,0-11.7-1.2-16.7-3.5c-5-2.3-9.3-5.4-12.8-9.3c-3.6-3.8-6.3-8.2-8.3-13.1
				c-2-4.9-3-10-3-15.2c0-5.3,1-10.4,3.1-15.3c2-4.9,4.9-9.3,8.6-13c3.7-3.7,8-6.7,13.1-9c5-2.2,10.5-3.3,16.5-3.3
				c6.1,0,11.7,1.2,16.7,3.5c5,2.3,9.3,5.4,12.8,9.3c3.6,3.9,6.3,8.2,8.2,13.2c1.9,4.9,2.9,10,2.9,15.1c0,5.3-1,10.4-3.1,15.3
				s-4.9,9.2-8.5,12.9s-8,6.8-13,9C417.6,343.3,412.1,344.4,406.1,344.4z M387.8,303.5c0,2.7,0.4,5.4,1.1,7.9
				c0.8,2.5,1.9,4.8,3.4,6.8c1.5,2,3.4,3.6,5.7,4.8c2.3,1.2,5.1,1.8,8.2,1.8s5.9-0.6,8.3-1.9c2.3-1.2,4.3-2.9,5.7-4.9
				c1.5-2,2.6-4.3,3.3-6.9c0.7-2.6,1.1-5.2,1.1-7.8c0-2.7-0.4-5.4-1.1-7.9c-0.8-2.5-1.9-4.8-3.5-6.7c-1.6-1.9-3.5-3.5-5.8-4.7
				c-2.3-1.2-5-1.8-8.1-1.8c-3.2,0-5.9,0.6-8.2,1.8c-2.3,1.2-4.2,2.8-5.7,4.8c-1.5,2-2.6,4.3-3.3,6.8
				C388.2,298.3,387.8,300.9,387.8,303.5z"/>
			<path class="st5" d="M478.7,304.1v39.6h-22.1v-80.6h17.3l32.4,41v-41h22.1v80.6h-17.6L478.7,304.1z"/>
		</g>
		<g>
			<path class="st6" d="M136.6,340.4V298l-13.5,29.9h-11.8L97.8,298v42.5H75.7v-80.6h24.2l17.4,37.9l17.5-37.9h24.1v80.6H136.6z"/>
			<path class="st6" d="M208.9,341.1c-6.1,0-11.7-1.2-16.7-3.5c-5-2.3-9.3-5.4-12.8-9.3c-3.6-3.8-6.3-8.2-8.3-13.1
				c-2-4.9-3-10-3-15.2c0-5.3,1-10.4,3.1-15.3c2-4.9,4.9-9.3,8.6-13c3.7-3.7,8-6.7,13.1-9c5-2.2,10.5-3.3,16.5-3.3
				c6.1,0,11.7,1.2,16.7,3.5c5,2.3,9.3,5.4,12.8,9.3c3.6,3.9,6.3,8.2,8.2,13.2c1.9,4.9,2.9,10,2.9,15.1c0,5.3-1,10.4-3.1,15.3
				s-4.9,9.2-8.5,12.9s-8,6.8-13,9C220.4,340,214.9,341.1,208.9,341.1z M190.7,300.2c0,2.7,0.4,5.4,1.1,7.9c0.8,2.5,1.9,4.8,3.4,6.8
				c1.5,2,3.4,3.6,5.7,4.8c2.3,1.2,5.1,1.8,8.2,1.8c3.2,0,5.9-0.6,8.3-1.9c2.3-1.2,4.3-2.9,5.7-4.9c1.5-2,2.6-4.3,3.3-6.9
				c0.7-2.6,1.1-5.2,1.1-7.8c0-2.7-0.4-5.4-1.1-7.9c-0.8-2.5-1.9-4.8-3.5-6.7c-1.6-1.9-3.5-3.5-5.8-4.7c-2.3-1.2-5-1.8-8.1-1.8
				c-3.2,0-5.9,0.6-8.2,1.8c-2.3,1.2-4.2,2.8-5.7,4.8c-1.5,2-2.6,4.3-3.3,6.8C191,295,190.7,297.6,190.7,300.2z"/>
			<path class="st6" d="M321,279.1h-23.2v61.3h-22.1v-61.3h-23.3v-19.3H321V279.1z"/>
			<path class="st6" d="M329.1,340.4v-80.6h22.1v80.6H329.1z"/>
			<path class="st6" d="M401.4,341.1c-6.1,0-11.7-1.2-16.7-3.5c-5-2.3-9.3-5.4-12.8-9.3c-3.6-3.8-6.3-8.2-8.3-13.1
				c-2-4.9-3-10-3-15.2c0-5.3,1-10.4,3.1-15.3c2-4.9,4.9-9.3,8.6-13c3.7-3.7,8-6.7,13.1-9c5-2.2,10.5-3.3,16.5-3.3
				c6.1,0,11.7,1.2,16.7,3.5c5,2.3,9.3,5.4,12.8,9.3c3.6,3.9,6.3,8.2,8.2,13.2c1.9,4.9,2.9,10,2.9,15.1c0,5.3-1,10.4-3.1,15.3
				s-4.9,9.2-8.5,12.9s-8,6.8-13,9C412.8,340,407.3,341.1,401.4,341.1z M383.1,300.2c0,2.7,0.4,5.4,1.1,7.9c0.8,2.5,1.9,4.8,3.4,6.8
				c1.5,2,3.4,3.6,5.7,4.8c2.3,1.2,5.1,1.8,8.2,1.8s5.9-0.6,8.3-1.9c2.3-1.2,4.3-2.9,5.7-4.9c1.5-2,2.6-4.3,3.3-6.9
				c0.7-2.6,1.1-5.2,1.1-7.8c0-2.7-0.4-5.4-1.1-7.9c-0.8-2.5-1.9-4.8-3.5-6.7c-1.6-1.9-3.5-3.5-5.8-4.7c-2.3-1.2-5-1.8-8.1-1.8
				c-3.2,0-5.9,0.6-8.2,1.8c-2.3,1.2-4.2,2.8-5.7,4.8c-1.5,2-2.6,4.3-3.3,6.8C383.4,295,383.1,297.6,383.1,300.2z"/>
			<path class="st6" d="M474,300.8v39.6h-22.1v-80.6h17.3l32.4,41v-41h22.1v80.6H506L474,300.8z"/>
		</g>
		<g>
			<path class="st7" d="M131.2,337v-42.5l-13.5,29.9h-11.8l-13.5-29.9V337H70.3v-80.6h24.2l17.4,37.9l17.5-37.9h24.1V337H131.2z"/>
			<path class="st7" d="M203.5,337.6c-6.1,0-11.7-1.2-16.7-3.5c-5-2.3-9.3-5.4-12.8-9.3c-3.6-3.8-6.3-8.2-8.3-13.1
				c-2-4.9-3-10-3-15.2c0-5.3,1-10.4,3.1-15.3c2-4.9,4.9-9.3,8.6-13c3.7-3.7,8-6.7,13.1-9c5-2.2,10.5-3.3,16.5-3.3
				c6.1,0,11.7,1.2,16.7,3.5c5,2.3,9.3,5.4,12.8,9.3c3.6,3.9,6.3,8.2,8.2,13.2c1.9,4.9,2.9,10,2.9,15.1c0,5.3-1,10.4-3.1,15.3
				s-4.9,9.2-8.5,12.9s-8,6.8-13,9C215,336.5,209.5,337.6,203.5,337.6z M185.2,296.8c0,2.7,0.4,5.4,1.1,7.9c0.8,2.5,1.9,4.8,3.4,6.8
				c1.5,2,3.4,3.6,5.7,4.8c2.3,1.2,5.1,1.8,8.2,1.8c3.2,0,5.9-0.6,8.3-1.9c2.3-1.2,4.3-2.9,5.7-4.9c1.5-2,2.6-4.3,3.3-6.9
				c0.7-2.6,1.1-5.2,1.1-7.8c0-2.7-0.4-5.4-1.1-7.9c-0.8-2.5-1.9-4.8-3.5-6.7c-1.6-1.9-3.5-3.5-5.8-4.7c-2.3-1.2-5-1.8-8.1-1.8
				c-3.2,0-5.9,0.6-8.2,1.8c-2.3,1.2-4.2,2.8-5.7,4.8c-1.5,2-2.6,4.3-3.3,6.8C185.6,291.5,185.2,294.1,185.2,296.8z"/>
			<path class="st7" d="M315.6,275.7h-23.2V337h-22.1v-61.3H247v-19.3h68.6V275.7z"/>
			<path class="st7" d="M323.6,337v-80.6h22.1V337H323.6z"/>
			<path class="st7" d="M395.9,337.6c-6.1,0-11.7-1.2-16.7-3.5c-5-2.3-9.3-5.4-12.8-9.3c-3.6-3.8-6.3-8.2-8.3-13.1
				c-2-4.9-3-10-3-15.2c0-5.3,1-10.4,3.1-15.3c2-4.9,4.9-9.3,8.6-13c3.7-3.7,8-6.7,13.1-9c5-2.2,10.5-3.3,16.5-3.3
				c6.1,0,11.7,1.2,16.7,3.5c5,2.3,9.3,5.4,12.8,9.3c3.6,3.9,6.3,8.2,8.2,13.2c1.9,4.9,2.9,10,2.9,15.1c0,5.3-1,10.4-3.1,15.3
				s-4.9,9.2-8.5,12.9s-8,6.8-13,9C407.4,336.5,401.9,337.6,395.9,337.6z M377.7,296.8c0,2.7,0.4,5.4,1.1,7.9
				c0.8,2.5,1.9,4.8,3.4,6.8c1.5,2,3.4,3.6,5.7,4.8c2.3,1.2,5.1,1.8,8.2,1.8s5.9-0.6,8.3-1.9c2.3-1.2,4.3-2.9,5.7-4.9
				c1.5-2,2.6-4.3,3.3-6.9c0.7-2.6,1.1-5.2,1.1-7.8c0-2.7-0.4-5.4-1.1-7.9c-0.8-2.5-1.9-4.8-3.5-6.7c-1.6-1.9-3.5-3.5-5.8-4.7
				c-2.3-1.2-5-1.8-8.1-1.8c-3.2,0-5.9,0.6-8.2,1.8c-2.3,1.2-4.2,2.8-5.7,4.8c-1.5,2-2.6,4.3-3.3,6.8
				C378,291.5,377.7,294.1,377.7,296.8z"/>
			<path class="st7" d="M468.6,297.3V337h-22.1v-80.6h17.3l32.4,41v-41h22.1V337h-17.6L468.6,297.3z"/>
		</g>
		<g>
			<g>
				<path class="st8" d="M127.3,332.3v-42.5l-13.5,29.9H102l-13.5-29.9v42.5H66.4v-80.6h24.2l17.4,37.9l17.5-37.9h24.1v80.6H127.3z"
					/>
				<path class="st8" d="M199.7,333c-6.1,0-11.7-1.2-16.7-3.5c-5-2.3-9.3-5.4-12.8-9.3c-3.6-3.8-6.3-8.2-8.3-13.1
					c-2-4.9-3-10-3-15.2c0-5.3,1-10.4,3.1-15.3c2-4.9,4.9-9.3,8.6-13c3.7-3.7,8-6.7,13.1-9c5-2.2,10.5-3.3,16.5-3.3
					c6.1,0,11.7,1.2,16.7,3.5c5,2.3,9.3,5.4,12.8,9.3c3.6,3.9,6.3,8.2,8.2,13.2c1.9,4.9,2.9,10,2.9,15.1c0,5.3-1,10.4-3.1,15.3
					s-4.9,9.2-8.5,12.9s-8,6.8-13,9C211.1,331.9,205.6,333,199.7,333z M181.4,292.2c0,2.7,0.4,5.4,1.1,7.9c0.8,2.5,1.9,4.8,3.4,6.8
					c1.5,2,3.4,3.6,5.7,4.8c2.3,1.2,5.1,1.8,8.2,1.8c3.2,0,5.9-0.6,8.3-1.9c2.3-1.2,4.3-2.9,5.7-4.9c1.5-2,2.6-4.3,3.3-6.9
					c0.7-2.6,1.1-5.2,1.1-7.8c0-2.7-0.4-5.4-1.1-7.9c-0.8-2.5-1.9-4.8-3.5-6.7c-1.6-1.9-3.5-3.5-5.8-4.7c-2.3-1.2-5-1.8-8.1-1.8
					c-3.2,0-5.9,0.6-8.2,1.8c-2.3,1.2-4.2,2.8-5.7,4.8c-1.5,2-2.6,4.3-3.3,6.8C181.7,286.9,181.4,289.5,181.4,292.2z"/>
				<path class="st8" d="M311.7,271h-23.2v61.3h-22.1V271h-23.3v-19.3h68.6V271z"/>
				<path class="st8" d="M319.8,332.3v-80.6h22.1v80.6H319.8z"/>
				<path class="st8" d="M392.1,333c-6.1,0-11.7-1.2-16.7-3.5c-5-2.3-9.3-5.4-12.8-9.3c-3.6-3.8-6.3-8.2-8.3-13.1
					c-2-4.9-3-10-3-15.2c0-5.3,1-10.4,3.1-15.3c2-4.9,4.9-9.3,8.6-13c3.7-3.7,8-6.7,13.1-9c5-2.2,10.5-3.3,16.5-3.3
					c6.1,0,11.7,1.2,16.7,3.5c5,2.3,9.3,5.4,12.8,9.3c3.6,3.9,6.3,8.2,8.2,13.2c1.9,4.9,2.9,10,2.9,15.1c0,5.3-1,10.4-3.1,15.3
					s-4.9,9.2-8.5,12.9s-8,6.8-13,9C403.5,331.9,398,333,392.1,333z M373.8,292.2c0,2.7,0.4,5.4,1.1,7.9c0.8,2.5,1.9,4.8,3.4,6.8
					c1.5,2,3.4,3.6,5.7,4.8c2.3,1.2,5.1,1.8,8.2,1.8s5.9-0.6,8.3-1.9c2.3-1.2,4.3-2.9,5.7-4.9c1.5-2,2.6-4.3,3.3-6.9
					c0.7-2.6,1.1-5.2,1.1-7.8c0-2.7-0.4-5.4-1.1-7.9c-0.8-2.5-1.9-4.8-3.5-6.7c-1.6-1.9-3.5-3.5-5.8-4.7c-2.3-1.2-5-1.8-8.1-1.8
					c-3.2,0-5.9,0.6-8.2,1.8c-2.3,1.2-4.2,2.8-5.7,4.8c-1.5,2-2.6,4.3-3.3,6.8C374.1,286.9,373.8,289.5,373.8,292.2z"/>
				<path class="st8" d="M464.7,292.7v39.6h-22.1v-80.6h17.3l32.4,41v-41h22.1v80.6h-17.6L464.7,292.7z"/>
			</g>
		</g>
	</g>
</g>
<g id="Calque_2">
</g>
</svg>
