<?xml version="1.0" encoding="utf-8"?>
<!-- Generator: Adobe Illustrator 26.3.1, SVG Export Plug-In . SVG Version: 6.00 Build 0)  -->
<svg version="1.1" xmlns="http://www.w3.org/2000/svg" xmlns:xlink="http://www.w3.org/1999/xlink" x="0px" y="0px"
	 viewBox="0 0 595.3 596" style="enable-background:new 0 0 595.3 596;" xml:space="preserve">
<style type="text/css">
	.st0{fill:#E30613;stroke:#000000;stroke-width:0.5;stroke-miterlimit:10;}
	.st1{fill:#D45E24;stroke:#000000;stroke-width:0.5;stroke-miterlimit:10;}
	.st2{fill:#ECD018;stroke:#000000;stroke-width:0.5;stroke-miterlimit:10;}
	.st3{fill:#CC98A5;stroke:#000000;stroke-width:0.5;stroke-miterlimit:10;}
	.st4{fill:#177294;stroke:#000000;stroke-width:0.5;stroke-miterlimit:10;}
	.st5{fill:#127193;stroke:#000000;stroke-miterlimit:10;}
	.st6{fill:#DC1F36;stroke:#000000;stroke-miterlimit:10;}
	.st7{fill:#ECD114;stroke:#000000;stroke-miterlimit:10;}
	.st8{fill:#EDE6D9;stroke:#000000;stroke-miterlimit:10;}
</style>
<g id="Calque_1">
	<rect x="71.9" y="306.6" class="st0" width="455.2" height="11.3"/>
	<rect x="61.4" y="295.4" class="st1" width="472.6" height="11.3"/>
	<rect x="64.5" y="291.2" class="st2" width="458.1" height="4.3"/>
	<rect x="78.5" y="283.6" class="st3" width="452.5" height="7.6"/>
	<rect x="78.5" y="317.6" class="st4" width="439.2" height="7.6"/>
	<g>
		<path class="st5" d="M171.9,317h-11.2v29.7H150V317h-11.3v-9.3h33.2V317z"/>
		<path class="st5" d="M203.6,337.3v9.4h-27.8v-39h27.3v9.3h-16.6v5.5h14.2v8.7h-14.2v6.2H203.6z"/>
		<path class="st5" d="M205.9,326.8c0-2.4,0.4-4.7,1.3-7c0.9-2.3,2.2-4.4,3.9-6.2c1.7-1.8,3.8-3.3,6.3-4.5c2.5-1.1,5.3-1.7,8.4-1.7
			c3.8,0,7,0.8,9.8,2.3c2.8,1.6,4.8,3.6,6.2,6.2l-8.2,5.8c-0.4-1-0.9-1.7-1.5-2.4c-0.6-0.6-1.3-1.1-2-1.5c-0.7-0.4-1.5-0.6-2.3-0.8
			c-0.8-0.1-1.5-0.2-2.3-0.2c-1.5,0-2.9,0.3-4,0.9c-1.1,0.6-2,1.4-2.8,2.4c-0.7,1-1.2,2.1-1.6,3.3c-0.3,1.2-0.5,2.4-0.5,3.7
			c0,1.4,0.2,2.7,0.6,3.9c0.4,1.2,1,2.3,1.8,3.3c0.8,1,1.7,1.7,2.8,2.3c1.1,0.6,2.4,0.9,3.8,0.9c0.7,0,1.5-0.1,2.3-0.2
			s1.5-0.4,2.2-0.8c0.7-0.4,1.4-0.9,1.9-1.5c0.6-0.6,1-1.3,1.3-2.2l8.7,5.2c-0.6,1.4-1.5,2.7-2.7,3.9c-1.2,1.1-2.5,2.1-4.1,2.9
			c-1.5,0.8-3.2,1.4-4.9,1.8c-1.7,0.4-3.4,0.6-5.1,0.6c-2.9,0-5.5-0.6-7.9-1.7c-2.4-1.2-4.5-2.7-6.2-4.6c-1.7-1.9-3.1-4.1-4-6.5
			C206.4,331.8,205.9,329.3,205.9,326.8z"/>
		<path class="st5" d="M280.6,307.6v39h-10.7v-15.3h-13.1v15.3H246v-39h10.7V322h13.1v-14.4H280.6z"/>
		<path class="st5" d="M298,327.5v19.2h-10.7v-39h8.4l15.7,19.9v-19.9h10.7v39h-8.5L298,327.5z"/>
		<path class="st5" d="M346.4,347c-3,0-5.7-0.6-8.1-1.7c-2.4-1.1-4.5-2.6-6.2-4.5c-1.7-1.9-3.1-4-4-6.4c-1-2.4-1.4-4.8-1.4-7.4
			c0-2.6,0.5-5,1.5-7.4c1-2.4,2.4-4.5,4.2-6.3c1.8-1.8,3.9-3.3,6.3-4.3c2.4-1.1,5.1-1.6,8-1.6c3,0,5.7,0.6,8.1,1.7
			c2.4,1.1,4.5,2.6,6.2,4.5c1.7,1.9,3.1,4,4,6.4c0.9,2.4,1.4,4.8,1.4,7.3c0,2.6-0.5,5-1.5,7.4c-1,2.4-2.4,4.5-4.1,6.3
			s-3.9,3.3-6.3,4.4C351.9,346.4,349.3,347,346.4,347z M337.5,327.2c0,1.3,0.2,2.6,0.6,3.8c0.4,1.2,0.9,2.3,1.6,3.3
			c0.7,1,1.7,1.7,2.8,2.3c1.1,0.6,2.4,0.9,4,0.9s2.9-0.3,4-0.9c1.1-0.6,2.1-1.4,2.8-2.4c0.7-1,1.2-2.1,1.6-3.3
			c0.3-1.2,0.5-2.5,0.5-3.8c0-1.3-0.2-2.6-0.5-3.8c-0.4-1.2-0.9-2.3-1.7-3.2s-1.7-1.7-2.8-2.3c-1.1-0.6-2.4-0.9-3.9-0.9
			c-1.5,0-2.9,0.3-4,0.9c-1.1,0.6-2,1.4-2.8,2.3c-0.7,1-1.3,2.1-1.6,3.3C337.7,324.7,337.5,325.9,337.5,327.2z"/>
		<path class="st5" d="M370.8,346.7v-39h10.7v29.7h17.7v9.4H370.8z"/>
		<path class="st5" d="M420.1,347c-3,0-5.7-0.6-8.1-1.7c-2.4-1.1-4.5-2.6-6.2-4.5c-1.7-1.9-3.1-4-4-6.4c-1-2.4-1.4-4.8-1.4-7.4
			c0-2.6,0.5-5,1.5-7.4c1-2.4,2.4-4.5,4.2-6.3c1.8-1.8,3.9-3.3,6.3-4.3c2.4-1.1,5.1-1.6,8-1.6c3,0,5.7,0.6,8.1,1.7
			c2.4,1.1,4.5,2.6,6.2,4.5c1.7,1.9,3.1,4,4,6.4c0.9,2.4,1.4,4.8,1.4,7.3c0,2.6-0.5,5-1.5,7.4c-1,2.4-2.4,4.5-4.1,6.3
			s-3.9,3.3-6.3,4.4C425.7,346.4,423,347,420.1,347z M411.3,327.2c0,1.3,0.2,2.6,0.6,3.8c0.4,1.2,0.9,2.3,1.6,3.3
			c0.7,1,1.7,1.7,2.8,2.3c1.1,0.6,2.4,0.9,4,0.9s2.9-0.3,4-0.9c1.1-0.6,2.1-1.4,2.8-2.4c0.7-1,1.2-2.1,1.6-3.3
			c0.3-1.2,0.5-2.5,0.5-3.8c0-1.3-0.2-2.6-0.5-3.8c-0.4-1.2-0.9-2.3-1.7-3.2s-1.7-1.7-2.8-2.3c-1.1-0.6-2.4-0.9-3.9-0.9
			c-1.5,0-2.9,0.3-4,0.9c-1.1,0.6-2,1.4-2.8,2.3c-0.7,1-1.3,2.1-1.6,3.3C411.4,324.7,411.3,325.9,411.3,327.2z"/>
		<path class="st5" d="M471.1,343.4c-2.8,2.3-6,3.5-9.6,3.5c-2.5,0-5-0.4-7.3-1.3c-2.3-0.9-4.3-2.2-6.1-3.9
			c-1.7-1.7-3.1-3.8-4.1-6.3c-1-2.5-1.5-5.3-1.5-8.5c0-2.8,0.5-5.3,1.5-7.7c1-2.4,2.4-4.4,4.2-6.2c1.8-1.7,3.9-3.1,6.4-4.1
			c2.4-1,5.1-1.5,7.9-1.5c1.8,0,3.4,0.2,5.1,0.6c1.6,0.4,3.1,1,4.5,1.7c1.4,0.8,2.6,1.6,3.7,2.7s2,2.2,2.7,3.5l-8,6.1
			c-0.8-1.5-1.9-2.8-3.5-3.7c-1.5-0.9-3.2-1.4-4.9-1.4c-1.3,0-2.5,0.3-3.5,0.8c-1.1,0.5-2,1.2-2.8,2.1c-0.8,0.9-1.4,2-1.8,3.3
			c-0.4,1.3-0.7,2.6-0.7,4.2c0,1.5,0.2,2.9,0.7,4.2c0.4,1.2,1.1,2.3,1.8,3.2c0.8,0.9,1.7,1.6,2.8,2.1c1.1,0.5,2.3,0.7,3.7,0.7
			c3.1,0,5.9-1.3,8.2-3.8h-6.8v-7.7H480v20.8h-8.9V343.4z"/>
		<path class="st5" d="M491,307.6l7,16.9l7.2-16.9h11.7l-13.5,26.1v12.9h-10.7v-13l-13.3-26H491z"/>
	</g>
	<g>
		<path class="st6" d="M169.2,314.7H158v29.7h-10.7v-29.7H136v-9.3h33.2V314.7z"/>
		<path class="st6" d="M200.9,335v9.4h-27.8v-39h27.3v9.3h-16.6v5.5H198v8.7h-14.2v6.2H200.9z"/>
		<path class="st6" d="M203.2,324.5c0-2.4,0.4-4.7,1.3-7c0.9-2.3,2.2-4.4,3.9-6.2c1.7-1.8,3.8-3.3,6.3-4.5c2.5-1.1,5.3-1.7,8.4-1.7
			c3.8,0,7,0.8,9.8,2.3c2.8,1.6,4.8,3.6,6.2,6.2l-8.2,5.8c-0.4-1-0.9-1.7-1.5-2.4c-0.6-0.6-1.3-1.1-2-1.5c-0.7-0.4-1.5-0.6-2.3-0.8
			c-0.8-0.1-1.5-0.2-2.3-0.2c-1.5,0-2.9,0.3-4,0.9c-1.1,0.6-2,1.4-2.8,2.4c-0.7,1-1.2,2.1-1.6,3.3c-0.3,1.2-0.5,2.4-0.5,3.7
			c0,1.4,0.2,2.7,0.6,3.9c0.4,1.2,1,2.3,1.8,3.3c0.8,1,1.7,1.7,2.8,2.3c1.1,0.6,2.4,0.9,3.8,0.9c0.7,0,1.5-0.1,2.3-0.2
			s1.5-0.4,2.2-0.8c0.7-0.4,1.4-0.9,1.9-1.5c0.6-0.6,1-1.3,1.3-2.2l8.7,5.2c-0.6,1.4-1.5,2.7-2.7,3.9c-1.2,1.1-2.5,2.1-4.1,2.9
			c-1.5,0.8-3.2,1.4-4.9,1.8c-1.7,0.4-3.4,0.6-5.1,0.6c-2.9,0-5.5-0.6-7.9-1.7c-2.4-1.2-4.5-2.7-6.2-4.6c-1.7-1.9-3.1-4.1-4-6.5
			C203.6,329.5,203.2,327,203.2,324.5z"/>
		<path class="st6" d="M277.9,305.3v39h-10.7v-15.3H254v15.3h-10.7v-39H254v14.4h13.1v-14.4H277.9z"/>
		<path class="st6" d="M295.3,325.2v19.2h-10.7v-39h8.4l15.7,19.9v-19.9h10.7v39h-8.5L295.3,325.2z"/>
		<path class="st6" d="M343.6,344.7c-3,0-5.7-0.6-8.1-1.7c-2.4-1.1-4.5-2.6-6.2-4.5c-1.7-1.9-3.1-4-4-6.4c-1-2.4-1.4-4.8-1.4-7.4
			c0-2.6,0.5-5,1.5-7.4c1-2.4,2.4-4.5,4.2-6.3c1.8-1.8,3.9-3.3,6.3-4.3c2.4-1.1,5.1-1.6,8-1.6c3,0,5.7,0.6,8.1,1.7
			c2.4,1.1,4.5,2.6,6.2,4.5c1.7,1.9,3.1,4,4,6.4c0.9,2.4,1.4,4.8,1.4,7.3c0,2.6-0.5,5-1.5,7.4c-1,2.4-2.4,4.5-4.1,6.3
			s-3.9,3.3-6.3,4.4C349.2,344.1,346.5,344.7,343.6,344.7z M334.8,324.9c0,1.3,0.2,2.6,0.6,3.8c0.4,1.2,0.9,2.3,1.6,3.3
			c0.7,1,1.7,1.7,2.8,2.3c1.1,0.6,2.4,0.9,4,0.9s2.9-0.3,4-0.9c1.1-0.6,2.1-1.4,2.8-2.4c0.7-1,1.2-2.1,1.6-3.3
			c0.3-1.2,0.5-2.5,0.5-3.8c0-1.3-0.2-2.6-0.5-3.8c-0.4-1.2-0.9-2.3-1.7-3.2s-1.7-1.7-2.8-2.3c-1.1-0.6-2.4-0.9-3.9-0.9
			c-1.5,0-2.9,0.3-4,0.9c-1.1,0.6-2,1.4-2.8,2.3c-0.7,1-1.3,2.1-1.6,3.3C335,322.3,334.8,323.6,334.8,324.9z"/>
		<path class="st6" d="M368.1,344.4v-39h10.7V335h17.7v9.4H368.1z"/>
		<path class="st6" d="M417.4,344.7c-3,0-5.7-0.6-8.1-1.7c-2.4-1.1-4.5-2.6-6.2-4.5c-1.7-1.9-3.1-4-4-6.4c-1-2.4-1.4-4.8-1.4-7.4
			c0-2.6,0.5-5,1.5-7.4c1-2.4,2.4-4.5,4.2-6.3c1.8-1.8,3.9-3.3,6.3-4.3c2.4-1.1,5.1-1.6,8-1.6c3,0,5.7,0.6,8.1,1.7
			c2.4,1.1,4.5,2.6,6.2,4.5c1.7,1.9,3.1,4,4,6.4c0.9,2.4,1.4,4.8,1.4,7.3c0,2.6-0.5,5-1.5,7.4c-1,2.4-2.4,4.5-4.1,6.3
			s-3.9,3.3-6.3,4.4C423,344.1,420.3,344.7,417.4,344.7z M408.5,324.9c0,1.3,0.2,2.6,0.6,3.8c0.4,1.2,0.9,2.3,1.6,3.3
			c0.7,1,1.7,1.7,2.8,2.3c1.1,0.6,2.4,0.9,4,0.9s2.9-0.3,4-0.9c1.1-0.6,2.1-1.4,2.8-2.4c0.7-1,1.2-2.1,1.6-3.3
			c0.3-1.2,0.5-2.5,0.5-3.8c0-1.3-0.2-2.6-0.5-3.8c-0.4-1.2-0.9-2.3-1.7-3.2s-1.7-1.7-2.8-2.3c-1.1-0.6-2.4-0.9-3.9-0.9
			c-1.5,0-2.9,0.3-4,0.9c-1.1,0.6-2,1.4-2.8,2.3c-0.7,1-1.3,2.1-1.6,3.3C408.7,322.3,408.5,323.6,408.5,324.9z"/>
		<path class="st6" d="M468.4,341.1c-2.8,2.3-6,3.5-9.6,3.5c-2.5,0-5-0.4-7.3-1.3c-2.3-0.9-4.3-2.2-6.1-3.9
			c-1.7-1.7-3.1-3.8-4.1-6.3c-1-2.5-1.5-5.3-1.5-8.5c0-2.8,0.5-5.3,1.5-7.7c1-2.4,2.4-4.4,4.2-6.2c1.8-1.7,3.9-3.1,6.4-4.1
			c2.4-1,5.1-1.5,7.9-1.5c1.8,0,3.4,0.2,5.1,0.6c1.6,0.4,3.1,1,4.5,1.7c1.4,0.8,2.6,1.6,3.7,2.7s2,2.2,2.7,3.5l-8,6.1
			c-0.8-1.5-1.9-2.8-3.5-3.7c-1.5-0.9-3.2-1.4-4.9-1.4c-1.3,0-2.5,0.3-3.5,0.8c-1.1,0.5-2,1.2-2.8,2.1c-0.8,0.9-1.4,2-1.8,3.3
			c-0.4,1.3-0.7,2.6-0.7,4.2c0,1.5,0.2,2.9,0.7,4.2c0.4,1.2,1.1,2.3,1.8,3.2c0.8,0.9,1.7,1.6,2.8,2.1c1.1,0.5,2.3,0.7,3.7,0.7
			c3.1,0,5.9-1.3,8.2-3.8h-6.8v-7.7h16.1v20.8h-8.9V341.1z"/>
		<path class="st6" d="M488.2,305.3l7,16.9l7.2-16.9H514l-13.5,26.1v12.9h-10.7v-13l-13.3-26H488.2z"/>
	</g>
	<g>
		<path class="st7" d="M166.7,312.2h-11.2v29.7h-10.7v-29.7h-11.3v-9.3h33.2V312.2z"/>
		<path class="st7" d="M198.4,332.5v9.4h-27.8v-39H198v9.3h-16.6v5.5h14.2v8.7h-14.2v6.2H198.4z"/>
		<path class="st7" d="M200.7,322c0-2.4,0.4-4.7,1.3-7c0.9-2.3,2.2-4.4,3.9-6.2c1.7-1.8,3.8-3.3,6.3-4.5c2.5-1.1,5.3-1.7,8.4-1.7
			c3.8,0,7,0.8,9.8,2.3c2.8,1.6,4.8,3.6,6.2,6.2l-8.2,5.8c-0.4-1-0.9-1.7-1.5-2.4c-0.6-0.6-1.3-1.1-2-1.5c-0.7-0.4-1.5-0.6-2.3-0.8
			c-0.8-0.1-1.5-0.2-2.3-0.2c-1.5,0-2.9,0.3-4,0.9c-1.1,0.6-2,1.4-2.8,2.4c-0.7,1-1.2,2.1-1.6,3.3c-0.3,1.2-0.5,2.4-0.5,3.7
			c0,1.4,0.2,2.7,0.6,3.9c0.4,1.2,1,2.3,1.8,3.3c0.8,1,1.7,1.7,2.8,2.3c1.1,0.6,2.4,0.9,3.8,0.9c0.7,0,1.5-0.1,2.3-0.2
			s1.5-0.4,2.2-0.8c0.7-0.4,1.4-0.9,1.9-1.5c0.6-0.6,1-1.3,1.3-2.2l8.7,5.2c-0.6,1.4-1.5,2.7-2.7,3.9c-1.2,1.1-2.5,2.1-4.1,2.9
			c-1.5,0.8-3.2,1.4-4.9,1.8c-1.7,0.4-3.4,0.6-5.1,0.6c-2.9,0-5.5-0.6-7.9-1.7c-2.4-1.2-4.5-2.7-6.2-4.6c-1.7-1.9-3.1-4.1-4-6.5
			C201.2,327,200.7,324.5,200.7,322z"/>
		<path class="st7" d="M275.4,302.8v39h-10.7v-15.3h-13.1v15.3h-10.7v-39h10.7v14.4h13.1v-14.4H275.4z"/>
		<path class="st7" d="M292.8,322.7v19.2h-10.7v-39h8.4l15.7,19.9v-19.9h10.7v39h-8.5L292.8,322.7z"/>
		<path class="st7" d="M341.2,342.2c-3,0-5.7-0.6-8.1-1.7c-2.4-1.1-4.5-2.6-6.2-4.5c-1.7-1.9-3.1-4-4-6.4c-1-2.4-1.4-4.8-1.4-7.4
			c0-2.6,0.5-5,1.5-7.4c1-2.4,2.4-4.5,4.2-6.3c1.8-1.8,3.9-3.3,6.3-4.3c2.4-1.1,5.1-1.6,8-1.6c3,0,5.7,0.6,8.1,1.7
			c2.4,1.1,4.5,2.6,6.2,4.5c1.7,1.9,3.1,4,4,6.4c0.9,2.4,1.4,4.8,1.4,7.3c0,2.6-0.5,5-1.5,7.4c-1,2.4-2.4,4.5-4.1,6.3
			s-3.9,3.3-6.3,4.4C346.7,341.7,344.1,342.2,341.2,342.2z M332.3,322.4c0,1.3,0.2,2.6,0.6,3.8c0.4,1.2,0.9,2.3,1.6,3.3
			c0.7,1,1.7,1.7,2.8,2.3c1.1,0.6,2.4,0.9,4,0.9s2.9-0.3,4-0.9c1.1-0.6,2.1-1.4,2.8-2.4c0.7-1,1.2-2.1,1.6-3.3
			c0.3-1.2,0.5-2.5,0.5-3.8c0-1.3-0.2-2.6-0.5-3.8c-0.4-1.2-0.9-2.3-1.7-3.2s-1.7-1.7-2.8-2.3c-1.1-0.6-2.4-0.9-3.9-0.9
			c-1.5,0-2.9,0.3-4,0.9c-1.1,0.6-2,1.4-2.8,2.3c-0.7,1-1.3,2.1-1.6,3.3C332.5,319.9,332.3,321.1,332.3,322.4z"/>
		<path class="st7" d="M365.6,341.9v-39h10.7v29.7h17.7v9.4H365.6z"/>
		<path class="st7" d="M414.9,342.2c-3,0-5.7-0.6-8.1-1.7c-2.4-1.1-4.5-2.6-6.2-4.5c-1.7-1.9-3.1-4-4-6.4c-1-2.4-1.4-4.8-1.4-7.4
			c0-2.6,0.5-5,1.5-7.4c1-2.4,2.4-4.5,4.2-6.3c1.8-1.8,3.9-3.3,6.3-4.3c2.4-1.1,5.1-1.6,8-1.6c3,0,5.7,0.6,8.1,1.7
			c2.4,1.1,4.5,2.6,6.2,4.5c1.7,1.9,3.1,4,4,6.4c0.9,2.4,1.4,4.8,1.4,7.3c0,2.6-0.5,5-1.5,7.4c-1,2.4-2.4,4.5-4.1,6.3
			s-3.9,3.3-6.3,4.4C420.5,341.7,417.8,342.2,414.9,342.2z M406.1,322.4c0,1.3,0.2,2.6,0.6,3.8c0.4,1.2,0.9,2.3,1.6,3.3
			c0.7,1,1.7,1.7,2.8,2.3c1.1,0.6,2.4,0.9,4,0.9s2.9-0.3,4-0.9c1.1-0.6,2.1-1.4,2.8-2.4c0.7-1,1.2-2.1,1.6-3.3
			c0.3-1.2,0.5-2.5,0.5-3.8c0-1.3-0.2-2.6-0.5-3.8c-0.4-1.2-0.9-2.3-1.7-3.2s-1.7-1.7-2.8-2.3c-1.1-0.6-2.4-0.9-3.9-0.9
			c-1.5,0-2.9,0.3-4,0.9c-1.1,0.6-2,1.4-2.8,2.3c-0.7,1-1.3,2.1-1.6,3.3C406.2,319.9,406.1,321.1,406.1,322.4z"/>
		<path class="st7" d="M465.9,338.6c-2.8,2.3-6,3.5-9.6,3.5c-2.5,0-5-0.4-7.3-1.3c-2.3-0.9-4.3-2.2-6.1-3.9
			c-1.7-1.7-3.1-3.8-4.1-6.3c-1-2.5-1.5-5.3-1.5-8.5c0-2.8,0.5-5.3,1.5-7.7c1-2.4,2.4-4.4,4.2-6.2c1.8-1.7,3.9-3.1,6.4-4.1
			c2.4-1,5.1-1.5,7.9-1.5c1.8,0,3.4,0.2,5.1,0.6c1.6,0.4,3.1,1,4.5,1.7c1.4,0.8,2.6,1.6,3.7,2.7s2,2.2,2.7,3.5l-8,6.1
			c-0.8-1.5-1.9-2.8-3.5-3.7c-1.5-0.9-3.2-1.4-4.9-1.4c-1.3,0-2.5,0.3-3.5,0.8c-1.1,0.5-2,1.2-2.8,2.1c-0.8,0.9-1.4,2-1.8,3.3
			c-0.4,1.3-0.7,2.6-0.7,4.2c0,1.5,0.2,2.9,0.7,4.2c0.4,1.2,1.1,2.3,1.8,3.2c0.8,0.9,1.7,1.6,2.8,2.1c1.1,0.5,2.3,0.7,3.7,0.7
			c3.1,0,5.9-1.3,8.2-3.8h-6.8v-7.7h16.1v20.8h-8.9V338.6z"/>
		<path class="st7" d="M485.8,302.8l7,16.9l7.2-16.9h11.7L498.1,329v12.9h-10.7v-13l-13.3-26H485.8z"/>
	</g>
	<g>
		<g>
			<path class="st8" d="M163.8,309.5h-11.2v29.7h-10.7v-29.7h-11.3v-9.3h33.2V309.5z"/>
			<path class="st8" d="M195.6,329.9v9.4h-27.8v-39h27.3v9.3h-16.6v5.5h14.2v8.7h-14.2v6.2H195.6z"/>
			<path class="st8" d="M197.8,319.4c0-2.4,0.4-4.7,1.3-7c0.9-2.3,2.2-4.4,3.9-6.2c1.7-1.8,3.8-3.3,6.3-4.5c2.5-1.1,5.3-1.7,8.4-1.7
				c3.8,0,7,0.8,9.8,2.3c2.8,1.6,4.8,3.6,6.2,6.2l-8.2,5.8c-0.4-1-0.9-1.7-1.5-2.4c-0.6-0.6-1.3-1.1-2-1.5c-0.7-0.4-1.5-0.6-2.3-0.8
				c-0.8-0.1-1.5-0.2-2.3-0.2c-1.5,0-2.9,0.3-4,0.9c-1.1,0.6-2,1.4-2.8,2.4c-0.7,1-1.2,2.1-1.6,3.3c-0.3,1.2-0.5,2.4-0.5,3.7
				c0,1.4,0.2,2.7,0.6,3.9c0.4,1.2,1,2.3,1.8,3.3c0.8,1,1.7,1.7,2.8,2.3c1.1,0.6,2.4,0.9,3.8,0.9c0.7,0,1.5-0.1,2.3-0.2
				s1.5-0.4,2.2-0.8c0.7-0.4,1.4-0.9,1.9-1.5c0.6-0.6,1-1.3,1.3-2.2l8.7,5.2c-0.6,1.4-1.5,2.7-2.7,3.9c-1.2,1.1-2.5,2.1-4.1,2.9
				c-1.5,0.8-3.2,1.4-4.9,1.8c-1.7,0.4-3.4,0.6-5.1,0.6c-2.9,0-5.5-0.6-7.9-1.7c-2.4-1.2-4.5-2.7-6.2-4.6c-1.7-1.9-3.1-4.1-4-6.5
				C198.3,324.3,197.8,321.9,197.8,319.4z"/>
			<path class="st8" d="M272.5,300.2v39h-10.7v-15.3h-13.1v15.3H238v-39h10.7v14.4h13.1v-14.4H272.5z"/>
			<path class="st8" d="M290,320v19.2h-10.7v-39h8.4l15.7,19.9v-19.9H314v39h-8.5L290,320z"/>
			<path class="st8" d="M338.3,339.6c-3,0-5.7-0.6-8.1-1.7c-2.4-1.1-4.5-2.6-6.2-4.5c-1.7-1.9-3.1-4-4-6.4c-1-2.4-1.4-4.8-1.4-7.4
				c0-2.6,0.5-5,1.5-7.4c1-2.4,2.4-4.5,4.2-6.3c1.8-1.8,3.9-3.3,6.3-4.3c2.4-1.1,5.1-1.6,8-1.6c3,0,5.7,0.6,8.1,1.7
				c2.4,1.1,4.5,2.6,6.2,4.5c1.7,1.9,3.1,4,4,6.4c0.9,2.4,1.4,4.8,1.4,7.3c0,2.6-0.5,5-1.5,7.4c-1,2.4-2.4,4.5-4.1,6.3
				s-3.9,3.3-6.3,4.4C343.9,339,341.2,339.6,338.3,339.6z M329.4,319.8c0,1.3,0.2,2.6,0.6,3.8c0.4,1.2,0.9,2.3,1.6,3.3
				c0.7,1,1.7,1.7,2.8,2.3c1.1,0.6,2.4,0.9,4,0.9s2.9-0.3,4-0.9c1.1-0.6,2.1-1.4,2.8-2.4c0.7-1,1.2-2.1,1.6-3.3
				c0.3-1.2,0.5-2.5,0.5-3.8c0-1.3-0.2-2.6-0.5-3.8c-0.4-1.2-0.9-2.3-1.7-3.2s-1.7-1.7-2.8-2.3c-1.1-0.6-2.4-0.9-3.9-0.9
				c-1.5,0-2.9,0.3-4,0.9c-1.1,0.6-2,1.4-2.8,2.3c-0.7,1-1.3,2.1-1.6,3.3C329.6,317.2,329.4,318.5,329.4,319.8z"/>
			<path class="st8" d="M362.8,339.2v-39h10.7v29.7h17.7v9.4H362.8z"/>
			<path class="st8" d="M412.1,339.6c-3,0-5.7-0.6-8.1-1.7c-2.4-1.1-4.5-2.6-6.2-4.5c-1.7-1.9-3.1-4-4-6.4c-1-2.4-1.4-4.8-1.4-7.4
				c0-2.6,0.5-5,1.5-7.4c1-2.4,2.4-4.5,4.2-6.3c1.8-1.8,3.9-3.3,6.3-4.3c2.4-1.1,5.1-1.6,8-1.6c3,0,5.7,0.6,8.1,1.7
				c2.4,1.1,4.5,2.6,6.2,4.5c1.7,1.9,3.1,4,4,6.4c0.9,2.4,1.4,4.8,1.4,7.3c0,2.6-0.5,5-1.5,7.4c-1,2.4-2.4,4.5-4.1,6.3
				s-3.9,3.3-6.3,4.4C417.6,339,415,339.6,412.1,339.6z M403.2,319.8c0,1.3,0.2,2.6,0.6,3.8c0.4,1.2,0.9,2.3,1.6,3.3
				c0.7,1,1.7,1.7,2.8,2.3c1.1,0.6,2.4,0.9,4,0.9s2.9-0.3,4-0.9c1.1-0.6,2.1-1.4,2.8-2.4c0.7-1,1.2-2.1,1.6-3.3
				c0.3-1.2,0.5-2.5,0.5-3.8c0-1.3-0.2-2.6-0.5-3.8c-0.4-1.2-0.9-2.3-1.7-3.2s-1.7-1.7-2.8-2.3c-1.1-0.6-2.4-0.9-3.9-0.9
				c-1.5,0-2.9,0.3-4,0.9c-1.1,0.6-2,1.4-2.8,2.3c-0.7,1-1.3,2.1-1.6,3.3C403.4,317.2,403.2,318.5,403.2,319.8z"/>
			<path class="st8" d="M463,336c-2.8,2.3-6,3.5-9.6,3.5c-2.5,0-5-0.4-7.3-1.3c-2.3-0.9-4.3-2.2-6.1-3.9c-1.7-1.7-3.1-3.8-4.1-6.3
				c-1-2.5-1.5-5.3-1.5-8.5c0-2.8,0.5-5.3,1.5-7.7c1-2.4,2.4-4.4,4.2-6.2c1.8-1.7,3.9-3.1,6.4-4.1c2.4-1,5.1-1.5,7.9-1.5
				c1.8,0,3.4,0.2,5.1,0.6c1.6,0.4,3.1,1,4.5,1.7c1.4,0.8,2.6,1.6,3.7,2.7s2,2.2,2.7,3.5l-8,6.1c-0.8-1.5-1.9-2.8-3.5-3.7
				c-1.5-0.9-3.2-1.4-4.9-1.4c-1.3,0-2.5,0.3-3.5,0.8c-1.1,0.5-2,1.2-2.8,2.1c-0.8,0.9-1.4,2-1.8,3.3c-0.4,1.3-0.7,2.6-0.7,4.2
				c0,1.5,0.2,2.9,0.7,4.2c0.4,1.2,1.1,2.3,1.8,3.2c0.8,0.9,1.7,1.6,2.8,2.1c1.1,0.5,2.3,0.7,3.7,0.7c3.1,0,5.9-1.3,8.2-3.8h-6.8
				v-7.7h16.1v20.8H463V336z"/>
			<path class="st8" d="M482.9,300.2l7,16.9l7.2-16.9h11.7l-13.5,26.1v12.9h-10.7v-13l-13.3-26H482.9z"/>
		</g>
	</g>
	<g id="SMART">
		<g>
			<path class="st5" d="M139.5,275.4c-1.1-0.7-2.2-1.2-3.4-1.8c-1-0.4-2.1-0.9-3.3-1.2c-1.2-0.4-2.4-0.6-3.6-0.6
				c-1,0-1.7,0.1-2.3,0.4c-0.6,0.3-0.9,0.8-0.9,1.5c0,0.5,0.2,0.9,0.5,1.3c0.3,0.3,0.8,0.6,1.4,0.9c0.6,0.3,1.4,0.5,2.3,0.8
				c0.9,0.3,1.9,0.6,3.1,0.9c1.8,0.6,3.4,1.2,4.9,1.8c1.4,0.7,2.7,1.4,3.7,2.3c1,0.9,1.8,2,2.4,3.3c0.6,1.3,0.8,2.8,0.8,4.7
				c0,2.3-0.4,4.3-1.3,5.9c-0.9,1.6-2,2.9-3.4,3.8c-1.4,1-3,1.6-4.8,2.1c-1.8,0.4-3.6,0.6-5.4,0.6c-1.4,0-2.9-0.1-4.4-0.3
				c-1.5-0.2-3-0.5-4.5-0.9c-1.5-0.4-2.9-0.9-4.3-1.4c-1.4-0.5-2.6-1.2-3.8-1.9l4.6-9.4c1.3,0.8,2.6,1.5,4,2.1c1.2,0.6,2.5,1,4,1.5
				c1.5,0.4,3,0.7,4.5,0.7c1.2,0,2-0.2,2.4-0.5c0.5-0.3,0.7-0.7,0.7-1.2c0-0.5-0.2-1-0.7-1.4c-0.5-0.4-1.1-0.7-1.9-1
				c-0.8-0.3-1.7-0.6-2.8-0.9c-1-0.3-2.2-0.6-3.3-1c-1.7-0.6-3.2-1.2-4.5-1.9c-1.2-0.7-2.3-1.4-3.1-2.3c-0.8-0.9-1.4-1.8-1.8-2.9
				c-0.4-1.1-0.6-2.4-0.6-3.8c0-2.2,0.4-4.1,1.2-5.7c0.8-1.6,1.9-3,3.2-4.1c1.4-1.1,2.9-1.9,4.6-2.5c1.7-0.6,3.6-0.9,5.5-0.9
				c1.4,0,2.8,0.1,4.2,0.4c1.4,0.3,2.7,0.6,3.9,1c1.3,0.4,2.4,0.9,3.5,1.4c1.1,0.5,2.1,1,3,1.4L139.5,275.4z"/>
			<path class="st5" d="M179.3,301.7v-20.6l-6.5,14.5H167l-6.5-14.5v20.6h-10.7v-39h11.7l8.4,18.4l8.5-18.4H190v39H179.3z"/>
			<path class="st5" d="M206.9,262.7h9.8l13.5,39h-10.9l-2.4-7.6h-10.4l-2.3,7.6h-10.9L206.9,262.7z M215.2,286.9l-3.5-12.1
				l-3.6,12.1H215.2z"/>
			<path class="st5" d="M233.4,301.7v-39h17.9c1.9,0,3.7,0.4,5.3,1.2c1.6,0.8,3,1.8,4.2,3.1c1.2,1.3,2.1,2.7,2.7,4.3
				c0.7,1.6,1,3.3,1,4.9c0,2.3-0.5,4.4-1.5,6.4c-1,2-2.4,3.6-4.1,4.8l8.2,14.4H255l-6.9-12h-4v12H233.4z M244.2,280.4h6.8
				c0.7,0,1.3-0.4,1.8-1.1c0.6-0.7,0.9-1.8,0.9-3.1c0-1.4-0.3-2.4-1-3.1c-0.7-0.7-1.3-1.1-2-1.1h-6.5V280.4z"/>
			<path class="st5" d="M300.4,272h-11.2v29.7h-10.7V272h-11.3v-9.3h33.2V272z"/>
		</g>
		<g>
			<path class="st6" d="M136.8,273.1c-1.1-0.7-2.2-1.2-3.4-1.8c-1-0.4-2.1-0.9-3.3-1.2c-1.2-0.4-2.4-0.6-3.6-0.6
				c-1,0-1.7,0.1-2.3,0.4c-0.6,0.3-0.9,0.8-0.9,1.5c0,0.5,0.2,0.9,0.5,1.3c0.3,0.3,0.8,0.6,1.4,0.9c0.6,0.3,1.4,0.5,2.3,0.8
				c0.9,0.3,1.9,0.6,3.1,0.9c1.8,0.6,3.4,1.2,4.9,1.8c1.4,0.7,2.7,1.4,3.7,2.3c1,0.9,1.8,2,2.4,3.3c0.6,1.3,0.8,2.8,0.8,4.7
				c0,2.3-0.4,4.3-1.3,5.9c-0.9,1.6-2,2.9-3.4,3.8c-1.4,1-3,1.6-4.8,2.1c-1.8,0.4-3.6,0.6-5.4,0.6c-1.4,0-2.9-0.1-4.4-0.3
				c-1.5-0.2-3-0.5-4.5-0.9c-1.5-0.4-2.9-0.9-4.3-1.4c-1.4-0.5-2.6-1.2-3.8-1.9l4.6-9.4c1.3,0.8,2.6,1.5,4,2.1c1.2,0.6,2.5,1,4,1.5
				c1.5,0.4,3,0.7,4.5,0.7c1.2,0,2-0.2,2.4-0.5c0.5-0.3,0.7-0.7,0.7-1.2c0-0.5-0.2-1-0.7-1.4c-0.5-0.4-1.1-0.7-1.9-1
				c-0.8-0.3-1.7-0.6-2.8-0.9c-1-0.3-2.2-0.6-3.3-1c-1.7-0.6-3.2-1.2-4.5-1.9c-1.2-0.7-2.3-1.4-3.1-2.3c-0.8-0.9-1.4-1.8-1.8-2.9
				c-0.4-1.1-0.6-2.4-0.6-3.8c0-2.2,0.4-4.1,1.2-5.7c0.8-1.6,1.9-3,3.2-4.1c1.4-1.1,2.9-1.9,4.6-2.5c1.7-0.6,3.6-0.9,5.5-0.9
				c1.4,0,2.8,0.1,4.2,0.4c1.4,0.3,2.7,0.6,3.9,1c1.3,0.4,2.4,0.9,3.5,1.4c1.1,0.5,2.1,1,3,1.4L136.8,273.1z"/>
			<path class="st6" d="M176.6,299.4v-20.6l-6.5,14.5h-5.7l-6.5-14.5v20.6H147v-39h11.7l8.4,18.4l8.5-18.4h11.7v39H176.6z"/>
			<path class="st6" d="M204.1,260.4h9.8l13.5,39h-10.9l-2.4-7.6h-10.4l-2.3,7.6h-10.9L204.1,260.4z M212.5,284.6l-3.5-12.1
				l-3.6,12.1H212.5z"/>
			<path class="st6" d="M230.7,299.4v-39h17.9c1.9,0,3.7,0.4,5.3,1.2c1.6,0.8,3,1.8,4.2,3.1c1.2,1.3,2.1,2.7,2.7,4.3
				c0.7,1.6,1,3.3,1,4.9c0,2.3-0.5,4.4-1.5,6.4c-1,2-2.4,3.6-4.1,4.8l8.3,14.4h-12.1l-6.9-12h-4v12H230.7z M241.4,278.1h6.8
				c0.7,0,1.3-0.4,1.8-1.1c0.6-0.7,0.9-1.8,0.9-3.1c0-1.4-0.3-2.4-1-3.1c-0.7-0.7-1.3-1.1-2-1.1h-6.5V278.1z"/>
			<path class="st6" d="M297.7,269.7h-11.2v29.7h-10.7v-29.7h-11.3v-9.3h33.2V269.7z"/>
		</g>
		<g>
			<path class="st7" d="M133.3,270.7c-1.1-0.7-2.2-1.2-3.4-1.8c-1-0.4-2.1-0.9-3.3-1.2c-1.2-0.4-2.4-0.6-3.6-0.6
				c-1,0-1.7,0.1-2.3,0.4c-0.6,0.3-0.9,0.8-0.9,1.5c0,0.5,0.2,0.9,0.5,1.3c0.3,0.3,0.8,0.6,1.4,0.9c0.6,0.3,1.4,0.5,2.3,0.8
				c0.9,0.3,1.9,0.6,3.1,0.9c1.8,0.6,3.4,1.2,4.9,1.8c1.4,0.7,2.7,1.4,3.7,2.3c1,0.9,1.8,2,2.4,3.3c0.6,1.3,0.8,2.8,0.8,4.7
				c0,2.3-0.4,4.3-1.3,5.9c-0.9,1.6-2,2.9-3.4,3.8c-1.4,1-3,1.6-4.8,2.1c-1.8,0.4-3.6,0.6-5.4,0.6c-1.4,0-2.9-0.1-4.4-0.3
				c-1.5-0.2-3-0.5-4.5-0.9c-1.5-0.4-2.9-0.9-4.3-1.4c-1.4-0.5-2.6-1.2-3.8-1.9l4.6-9.4c1.3,0.8,2.6,1.5,4,2.1c1.2,0.6,2.5,1,4,1.5
				c1.5,0.4,3,0.7,4.5,0.7c1.2,0,2-0.2,2.4-0.5c0.5-0.3,0.7-0.7,0.7-1.2c0-0.5-0.2-1-0.7-1.4c-0.5-0.4-1.1-0.7-1.9-1
				c-0.8-0.3-1.7-0.6-2.8-0.9c-1-0.3-2.2-0.6-3.3-1c-1.7-0.6-3.2-1.2-4.5-1.9c-1.2-0.7-2.3-1.4-3.1-2.3c-0.8-0.9-1.4-1.8-1.8-2.9
				c-0.4-1.1-0.6-2.4-0.6-3.8c0-2.2,0.4-4.1,1.2-5.7c0.8-1.6,1.9-3,3.2-4.1c1.4-1.1,2.9-1.9,4.6-2.5c1.7-0.6,3.6-0.9,5.5-0.9
				c1.4,0,2.8,0.1,4.2,0.4c1.4,0.3,2.7,0.6,3.9,1c1.3,0.4,2.4,0.9,3.5,1.4c1.1,0.5,2.1,1,3,1.4L133.3,270.7z"/>
			<path class="st7" d="M173.2,297v-20.6l-6.5,14.5h-5.7l-6.5-14.5V297h-10.7v-39h11.7l8.4,18.4l8.5-18.4h11.7v39H173.2z"/>
			<path class="st7" d="M200.7,257.9h9.8l13.5,39h-10.9l-2.4-7.6h-10.4l-2.3,7.6h-10.9L200.7,257.9z M209.1,282.2l-3.5-12.1
				l-3.6,12.1H209.1z"/>
			<path class="st7" d="M227.3,297v-39h17.9c1.9,0,3.7,0.4,5.3,1.2c1.6,0.8,3,1.8,4.2,3.1c1.2,1.3,2.1,2.7,2.7,4.3
				c0.7,1.6,1,3.3,1,4.9c0,2.3-0.5,4.4-1.5,6.4c-1,2-2.4,3.6-4.1,4.8L261,297h-12.1l-6.9-12h-4v12H227.3z M238,275.6h6.8
				c0.7,0,1.3-0.4,1.8-1.1c0.6-0.7,0.9-1.8,0.9-3.1c0-1.4-0.3-2.4-1-3.1c-0.7-0.7-1.3-1.1-2-1.1H238V275.6z"/>
			<path class="st7" d="M294.3,267.3H283V297h-10.7v-29.7H261v-9.3h33.2V267.3z"/>
		</g>
		<g>
			<g>
				<path class="st8" d="M130.5,268.1c-1.1-0.7-2.2-1.2-3.4-1.8c-1-0.4-2.1-0.9-3.3-1.2c-1.2-0.4-2.4-0.6-3.6-0.6
					c-1,0-1.7,0.1-2.3,0.4c-0.6,0.3-0.9,0.8-0.9,1.5c0,0.5,0.2,0.9,0.5,1.3c0.3,0.3,0.8,0.6,1.4,0.9c0.6,0.3,1.4,0.5,2.3,0.8
					c0.9,0.3,1.9,0.6,3.1,0.9c1.8,0.6,3.4,1.2,4.9,1.8c1.4,0.7,2.7,1.4,3.7,2.3c1,0.9,1.8,2,2.4,3.3c0.6,1.3,0.8,2.8,0.8,4.7
					c0,2.3-0.4,4.3-1.3,5.9c-0.9,1.6-2,2.9-3.4,3.8c-1.4,1-3,1.6-4.8,2.1c-1.8,0.4-3.6,0.6-5.4,0.6c-1.4,0-2.9-0.1-4.4-0.3
					c-1.5-0.2-3-0.5-4.5-0.9c-1.5-0.4-2.9-0.9-4.3-1.4c-1.4-0.5-2.6-1.2-3.8-1.9l4.6-9.4c1.3,0.8,2.6,1.5,4,2.1c1.2,0.6,2.5,1,4,1.5
					c1.5,0.4,3,0.7,4.5,0.7c1.2,0,2-0.2,2.4-0.5c0.5-0.3,0.7-0.7,0.7-1.2c0-0.5-0.2-1-0.7-1.4c-0.5-0.4-1.1-0.7-1.9-1
					c-0.8-0.3-1.7-0.6-2.8-0.9c-1-0.3-2.2-0.6-3.3-1c-1.7-0.6-3.2-1.2-4.5-1.9c-1.2-0.7-2.3-1.4-3.1-2.3c-0.8-0.9-1.4-1.8-1.8-2.9
					c-0.4-1.1-0.6-2.4-0.6-3.8c0-2.2,0.4-4.1,1.2-5.7c0.8-1.6,1.9-3,3.2-4.1c1.4-1.1,2.9-1.9,4.6-2.5c1.7-0.6,3.6-0.9,5.5-0.9
					c1.4,0,2.8,0.1,4.2,0.4c1.4,0.3,2.7,0.6,3.9,1c1.3,0.4,2.4,0.9,3.5,1.4c1.1,0.5,2.1,1,3,1.4L130.5,268.1z"/>
				<path class="st8" d="M170.3,294.3v-20.6l-6.5,14.5H158l-6.5-14.5v20.6h-10.7v-39h11.7l8.4,18.4l8.5-18.4H181v39H170.3z"/>
				<path class="st8" d="M197.8,255.3h9.8l13.5,39h-10.9l-2.4-7.6h-10.4l-2.3,7.6h-10.9L197.8,255.3z M206.2,279.5l-3.5-12.1
					l-3.6,12.1H206.2z"/>
				<path class="st8" d="M224.4,294.3v-39h17.9c1.9,0,3.7,0.4,5.3,1.2c1.6,0.8,3,1.8,4.2,3.1c1.2,1.3,2.1,2.7,2.7,4.3
					c0.7,1.6,1,3.3,1,4.9c0,2.3-0.5,4.4-1.5,6.4c-1,2-2.4,3.6-4.1,4.8l8.2,14.4H246l-6.9-12h-4v12H224.4z M235.1,273h6.8
					c0.7,0,1.3-0.4,1.8-1.1c0.6-0.7,0.9-1.8,0.9-3.1c0-1.4-0.3-2.4-1-3.1c-0.7-0.7-1.3-1.1-2-1.1h-6.5V273z"/>
				<path class="st8" d="M291.4,264.6h-11.2v29.7h-10.7v-29.7h-11.3v-9.3h33.2V264.6z"/>
			</g>
		</g>
	</g>
</g>
<g id="Calque_2">
</g>
</svg>
