<?xml version="1.0" encoding="utf-8"?>
<!-- Generator: Adobe Illustrator 26.3.1, SVG Export Plug-In . SVG Version: 6.00 Build 0)  -->
<svg version="1.1" id="Calque_1" xmlns="http://www.w3.org/2000/svg" xmlns:xlink="http://www.w3.org/1999/xlink" x="0px" y="0px"
	 viewBox="0 0 595.3 596" style="enable-background:new 0 0 595.3 596;" xml:space="preserve">
<style type="text/css">
	.st0{fill:#E30613;stroke:#000000;stroke-width:0.5;stroke-miterlimit:10;}
	.st1{fill:#D45E24;stroke:#000000;stroke-width:0.5;stroke-miterlimit:10;}
	.st2{fill:#ECD018;stroke:#000000;stroke-width:0.5;stroke-miterlimit:10;}
	.st3{fill:#CC98A5;stroke:#000000;stroke-width:0.5;stroke-miterlimit:10;}
	.st4{fill:#177294;stroke:#000000;stroke-width:0.5;stroke-miterlimit:10;}
	.st5{fill:#127193;stroke:#000000;stroke-miterlimit:10;}
	.st6{fill:#DC1F36;stroke:#000000;stroke-miterlimit:10;}
	.st7{fill:#ECD114;stroke:#000000;stroke-miterlimit:10;}
	.st8{fill:#EDE6D9;stroke:#000000;stroke-miterlimit:10;}
</style>
<g id="STRIPES">
	<rect x="71.9" y="306.6" class="st0" width="455.2" height="11.3"/>
	<rect x="61.4" y="295.4" class="st1" width="472.6" height="11.3"/>
	<rect x="64.5" y="291.2" class="st2" width="458.1" height="4.3"/>
	<rect x="78.5" y="283.6" class="st3" width="452.5" height="7.6"/>
	<rect x="78.5" y="317.6" class="st4" width="439.2" height="7.6"/>
</g>
<g id="_x26__APP">
	<g>
		<path class="st5" d="M235.6,388.7l-4.3-4.5c-3.3,2-6.6,3.4-10.2,4.3s-7.1,1.4-10.6,1.4c-4.7,0-8.8-0.8-12.3-2.3
			c-3.5-1.5-6.5-3.5-8.9-5.9c-2.4-2.4-4.2-5.2-5.4-8.2c-1.2-3.1-1.8-6.1-1.8-9.3c0-4.6,1.1-8.6,3.3-12c2.2-3.4,4.9-6.3,8-8.8
			c-2.4-3-4.1-5.6-5.1-7.9c-1-2.3-1.5-4.9-1.5-7.7c0-3.3,0.6-6.2,1.8-8.8c1.2-2.6,2.9-4.8,4.9-6.5c2.1-1.7,4.6-3.1,7.4-4
			c2.9-0.9,6-1.4,9.4-1.4c3,0,5.8,0.4,8.7,1.1c2.8,0.7,5.4,1.9,7.6,3.4c2.2,1.6,4,3.6,5.4,6c1.4,2.5,2,5.4,2,8.9
			c0,4.1-0.9,7.8-2.8,11c-1.9,3.3-4.4,6.2-7.6,9l9.3,9.9c0.8-2.1,1.5-4.4,1.9-6.9c0.5-2.5,0.7-5.1,0.7-8h17.4
			c-0.1,5.8-0.8,11.1-2,15.7c-1.3,4.7-3,8.8-5.2,12.5l18,19H235.6z M212.8,373c2.3,0,4.5-0.5,6.7-1.5l-12.8-13.7
			c-2.6,2.1-3.9,4.2-3.9,6.4c0,0.8,0.2,1.8,0.5,2.8c0.3,1,0.9,2,1.7,2.9s1.8,1.7,3.1,2.3C209.4,372.7,210.9,373,212.8,373z
			 M206.4,326.9c0,1,0.3,1.8,0.9,2.6c0.6,0.7,1.5,1.7,2.9,3c1.5-1.1,2.6-2,3.3-2.8c0.7-0.8,1-1.8,1-3c0-1.3-0.4-2.3-1.1-3
			c-0.7-0.7-1.7-1-2.9-1c-1.3,0-2.3,0.4-3,1.2C206.8,324.7,206.4,325.7,206.4,326.9z"/>
		<path class="st5" d="M313.1,308.1h20.2l27.9,80.6h-22.5l-4.9-15.8h-21.5l-4.8,15.8h-22.6L313.1,308.1z M330.4,358.1l-7.2-25
			l-7.5,25H330.4z"/>
		<path class="st5" d="M367.9,388.7v-80.6h34.7c3.9,0,7.6,0.8,10.9,2.4c3.3,1.6,6.2,3.7,8.6,6.4c2.4,2.6,4.3,5.6,5.6,9
			c1.4,3.4,2,6.8,2,10.2c0,3.6-0.6,7-1.9,10.4c-1.3,3.4-3.1,6.4-5.4,9c-2.3,2.6-5.1,4.7-8.4,6.2c-3.3,1.6-6.9,2.3-10.8,2.3h-13.2
			v24.7H367.9z M390.1,344.6h11.7c1.4,0,2.6-0.6,3.8-1.9c1.2-1.2,1.8-3.5,1.8-6.8c0-3.3-0.7-5.6-2-6.8c-1.4-1.2-2.7-1.8-4.1-1.8
			h-11.1V344.6z"/>
		<path class="st5" d="M438.7,388.7v-80.6h34.7c3.9,0,7.6,0.8,10.9,2.4c3.3,1.6,6.2,3.7,8.6,6.4c2.4,2.6,4.3,5.6,5.6,9
			c1.4,3.4,2,6.8,2,10.2c0,3.6-0.6,7-1.9,10.4c-1.3,3.4-3.1,6.4-5.4,9c-2.3,2.6-5.1,4.7-8.4,6.2c-3.3,1.6-6.9,2.3-10.8,2.3h-13.2
			v24.7H438.7z M460.8,344.6h11.7c1.4,0,2.6-0.6,3.8-1.9c1.2-1.2,1.8-3.5,1.8-6.8c0-3.3-0.7-5.6-2-6.8c-1.4-1.2-2.7-1.8-4.1-1.8
			h-11.1V344.6z"/>
	</g>
	<g>
		<path class="st6" d="M230.8,385.4l-4.3-4.5c-3.3,2-6.6,3.4-10.2,4.3s-7.1,1.4-10.6,1.4c-4.7,0-8.8-0.8-12.3-2.3
			c-3.5-1.5-6.5-3.5-8.9-5.9c-2.4-2.4-4.2-5.2-5.4-8.2c-1.2-3.1-1.8-6.1-1.8-9.3c0-4.6,1.1-8.6,3.3-12c2.2-3.4,4.9-6.3,8-8.8
			c-2.4-3-4.1-5.6-5.1-7.9c-1-2.3-1.5-4.9-1.5-7.7c0-3.3,0.6-6.2,1.8-8.8c1.2-2.6,2.9-4.8,4.9-6.5c2.1-1.7,4.6-3.1,7.4-4
			c2.9-0.9,6-1.4,9.4-1.4c3,0,5.8,0.4,8.7,1.1c2.8,0.7,5.4,1.9,7.6,3.4c2.2,1.6,4,3.6,5.4,6c1.4,2.5,2,5.4,2,8.9
			c0,4.1-0.9,7.8-2.8,11c-1.9,3.3-4.4,6.2-7.6,9l9.3,9.9c0.8-2.1,1.5-4.4,1.9-6.9c0.5-2.5,0.7-5.1,0.7-8h17.4
			c-0.1,5.8-0.8,11.1-2,15.7c-1.3,4.7-3,8.8-5.2,12.5l18,19H230.8z M208,369.7c2.3,0,4.5-0.5,6.7-1.5l-12.8-13.7
			c-2.6,2.1-3.9,4.2-3.9,6.4c0,0.8,0.2,1.8,0.5,2.8c0.3,1,0.9,2,1.7,2.9s1.8,1.7,3.1,2.3C204.7,369.4,206.2,369.7,208,369.7z
			 M201.7,323.6c0,1,0.3,1.8,0.9,2.6c0.6,0.7,1.5,1.7,2.9,3c1.5-1.1,2.6-2,3.3-2.8c0.7-0.8,1-1.8,1-3c0-1.3-0.4-2.3-1.1-3
			c-0.7-0.7-1.7-1-2.9-1c-1.3,0-2.3,0.4-3,1.2C202,321.4,201.7,322.4,201.7,323.6z"/>
		<path class="st6" d="M308.4,304.8h20.2l27.9,80.6H334l-4.9-15.8h-21.5l-4.8,15.8h-22.6L308.4,304.8z M325.6,354.8l-7.2-25l-7.5,25
			H325.6z"/>
		<path class="st6" d="M363.2,385.4v-80.6h34.7c3.9,0,7.6,0.8,10.9,2.4c3.3,1.6,6.2,3.7,8.6,6.4c2.4,2.6,4.3,5.6,5.6,9
			c1.4,3.4,2,6.8,2,10.2c0,3.6-0.6,7-1.9,10.4c-1.3,3.4-3.1,6.4-5.4,9c-2.3,2.6-5.1,4.7-8.4,6.2c-3.3,1.6-6.9,2.3-10.8,2.3h-13.2
			v24.7H363.2z M385.3,341.3H397c1.4,0,2.6-0.6,3.8-1.9c1.2-1.2,1.8-3.5,1.8-6.8c0-3.3-0.7-5.6-2-6.8c-1.4-1.2-2.7-1.8-4.1-1.8
			h-11.1V341.3z"/>
		<path class="st6" d="M433.9,385.4v-80.6h34.7c3.9,0,7.6,0.8,10.9,2.4c3.3,1.6,6.2,3.7,8.6,6.4c2.4,2.6,4.3,5.6,5.6,9
			c1.4,3.4,2,6.8,2,10.2c0,3.6-0.6,7-1.9,10.4c-1.3,3.4-3.1,6.4-5.4,9c-2.3,2.6-5.1,4.7-8.4,6.2c-3.3,1.6-6.9,2.3-10.8,2.3h-13.2
			v24.7H433.9z M456.1,341.3h11.7c1.4,0,2.6-0.6,3.8-1.9c1.2-1.2,1.8-3.5,1.8-6.8c0-3.3-0.7-5.6-2-6.8c-1.4-1.2-2.7-1.8-4.1-1.8
			h-11.1V341.3z"/>
	</g>
	<g>
		<path class="st7" d="M227.4,381.9l-4.3-4.5c-3.3,2-6.6,3.4-10.2,4.3s-7.1,1.4-10.6,1.4c-4.7,0-8.8-0.8-12.3-2.3
			c-3.5-1.5-6.5-3.5-8.9-5.9c-2.4-2.4-4.2-5.2-5.4-8.2c-1.2-3.1-1.8-6.1-1.8-9.3c0-4.6,1.1-8.6,3.3-12c2.2-3.4,4.9-6.3,8-8.8
			c-2.4-3-4.1-5.6-5.1-7.9c-1-2.3-1.5-4.9-1.5-7.7c0-3.3,0.6-6.2,1.8-8.8c1.2-2.6,2.9-4.8,4.9-6.5c2.1-1.7,4.6-3.1,7.4-4
			c2.9-0.9,6-1.4,9.4-1.4c3,0,5.8,0.4,8.7,1.1c2.8,0.7,5.4,1.9,7.6,3.4c2.2,1.6,4,3.6,5.4,6c1.4,2.5,2,5.4,2,8.9
			c0,4.1-0.9,7.8-2.8,11c-1.9,3.3-4.4,6.2-7.6,9l9.3,9.9c0.8-2.1,1.5-4.4,1.9-6.9c0.5-2.5,0.7-5.1,0.7-8h17.4
			c-0.1,5.8-0.8,11.1-2,15.7c-1.3,4.7-3,8.8-5.2,12.5l18,19H227.4z M204.6,366.2c2.3,0,4.5-0.5,6.7-1.5L198.4,351
			c-2.6,2.1-3.9,4.2-3.9,6.4c0,0.8,0.2,1.8,0.5,2.8c0.3,1,0.9,2,1.7,2.9s1.8,1.7,3.1,2.3C201.2,365.9,202.8,366.2,204.6,366.2z
			 M198.2,320.1c0,1,0.3,1.8,0.9,2.6c0.6,0.7,1.5,1.7,2.9,3c1.5-1.1,2.6-2,3.3-2.8c0.7-0.8,1-1.8,1-3c0-1.3-0.4-2.3-1.1-3
			c-0.7-0.7-1.7-1-2.9-1c-1.3,0-2.3,0.4-3,1.2C198.6,317.9,198.2,318.9,198.2,320.1z"/>
		<path class="st7" d="M304.9,301.3h20.2l27.9,80.6h-22.5l-4.9-15.8h-21.5l-4.8,15.8h-22.6L304.9,301.3z M322.2,351.4l-7.2-25
			l-7.5,25H322.2z"/>
		<path class="st7" d="M359.7,381.9v-80.6h34.7c3.9,0,7.6,0.8,10.9,2.4c3.3,1.6,6.2,3.7,8.6,6.4c2.4,2.6,4.3,5.6,5.6,9
			c1.4,3.4,2,6.8,2,10.2c0,3.6-0.6,7-1.9,10.4c-1.3,3.4-3.1,6.4-5.4,9c-2.3,2.6-5.1,4.7-8.4,6.2c-3.3,1.6-6.9,2.3-10.8,2.3h-13.2
			v24.7H359.7z M381.9,337.8h11.7c1.4,0,2.6-0.6,3.8-1.9c1.2-1.2,1.8-3.5,1.8-6.8c0-3.3-0.7-5.6-2-6.8c-1.4-1.2-2.7-1.8-4.1-1.8
			h-11.1V337.8z"/>
		<path class="st7" d="M430.5,381.9v-80.6h34.7c3.9,0,7.6,0.8,10.9,2.4c3.3,1.6,6.2,3.7,8.6,6.4c2.4,2.6,4.3,5.6,5.6,9
			c1.4,3.4,2,6.8,2,10.2c0,3.6-0.6,7-1.9,10.4c-1.3,3.4-3.1,6.4-5.4,9c-2.3,2.6-5.1,4.7-8.4,6.2c-3.3,1.6-6.9,2.3-10.8,2.3h-13.2
			v24.7H430.5z M452.6,337.8h11.7c1.4,0,2.6-0.6,3.8-1.9c1.2-1.2,1.8-3.5,1.8-6.8c0-3.3-0.7-5.6-2-6.8c-1.4-1.2-2.7-1.8-4.1-1.8
			h-11.1V337.8z"/>
	</g>
	<g>
		<g>
			<path class="st8" d="M223.5,379.2l-4.3-4.5c-3.3,2-6.6,3.4-10.2,4.3s-7.1,1.4-10.6,1.4c-4.7,0-8.8-0.8-12.3-2.3
				c-3.5-1.5-6.5-3.5-8.9-5.9c-2.4-2.4-4.2-5.2-5.4-8.2c-1.2-3.1-1.8-6.1-1.8-9.3c0-4.6,1.1-8.6,3.3-12c2.2-3.4,4.9-6.3,8-8.8
				c-2.4-3-4.1-5.6-5.1-7.9c-1-2.3-1.5-4.9-1.5-7.7c0-3.3,0.6-6.2,1.8-8.8c1.2-2.6,2.9-4.8,4.9-6.5c2.1-1.7,4.6-3.1,7.4-4
				c2.9-0.9,6-1.4,9.4-1.4c3,0,5.8,0.4,8.7,1.1c2.8,0.7,5.4,1.9,7.6,3.4c2.2,1.6,4,3.6,5.4,6c1.4,2.5,2,5.4,2,8.9
				c0,4.1-0.9,7.8-2.8,11c-1.9,3.3-4.4,6.2-7.6,9l9.3,9.9c0.8-2.1,1.5-4.4,1.9-6.9c0.5-2.5,0.7-5.1,0.7-8H241
				c-0.1,5.8-0.8,11.1-2,15.7c-1.3,4.7-3,8.8-5.2,12.5l18,19H223.5z M200.7,363.6c2.3,0,4.5-0.5,6.7-1.5l-12.8-13.7
				c-2.6,2.1-3.9,4.2-3.9,6.4c0,0.8,0.2,1.8,0.5,2.8c0.3,1,0.9,2,1.7,2.9s1.8,1.7,3.1,2.3C197.3,363.3,198.9,363.6,200.7,363.6z
				 M194.3,317.5c0,1,0.3,1.8,0.9,2.6c0.6,0.7,1.5,1.7,2.9,3c1.5-1.1,2.6-2,3.3-2.8c0.7-0.8,1-1.8,1-3c0-1.3-0.4-2.3-1.1-3
				c-0.7-0.7-1.7-1-2.9-1c-1.3,0-2.3,0.4-3,1.2C194.7,315.3,194.3,316.3,194.3,317.5z"/>
			<path class="st8" d="M301,298.6h20.2l27.9,80.6h-22.5l-4.9-15.8h-21.5l-4.8,15.8H273L301,298.6z M318.3,348.7l-7.2-25l-7.5,25
				H318.3z"/>
			<path class="st8" d="M355.9,379.2v-80.6h34.7c3.9,0,7.6,0.8,10.9,2.4c3.3,1.6,6.2,3.7,8.6,6.4c2.4,2.6,4.3,5.6,5.6,9
				c1.4,3.4,2,6.8,2,10.2c0,3.6-0.6,7-1.9,10.4c-1.3,3.4-3.1,6.4-5.4,9c-2.3,2.6-5.1,4.7-8.4,6.2c-3.3,1.6-6.9,2.3-10.8,2.3H378
				v24.7H355.9z M378,335.2h11.7c1.4,0,2.6-0.6,3.8-1.9c1.2-1.2,1.8-3.5,1.8-6.8c0-3.3-0.7-5.6-2-6.8c-1.4-1.2-2.7-1.8-4.1-1.8H378
				V335.2z"/>
			<path class="st8" d="M426.6,379.2v-80.6h34.7c3.9,0,7.6,0.8,10.9,2.4c3.3,1.6,6.2,3.7,8.6,6.4c2.4,2.6,4.3,5.6,5.6,9
				c1.4,3.4,2,6.8,2,10.2c0,3.6-0.6,7-1.9,10.4c-1.3,3.4-3.1,6.4-5.4,9c-2.3,2.6-5.1,4.7-8.4,6.2c-3.3,1.6-6.9,2.3-10.8,2.3h-13.2
				v24.7H426.6z M448.7,335.2h11.7c1.4,0,2.6-0.6,3.8-1.9c1.2-1.2,1.8-3.5,1.8-6.8c0-3.3-0.7-5.6-2-6.8c-1.4-1.2-2.7-1.8-4.1-1.8
				h-11.1V335.2z"/>
		</g>
	</g>
</g>
<g id="WEB">
	<g>
		<path class="st5" d="M146.1,223.1h20.3l7,24.9l7.2-24.9h20.3l-13.3,38.5l5.8,16.8l17.4-55.3h24.1l-31.6,80.6h-18.4l-11.5-28.8
			l-11.4,28.8h-18.4l-31.6-80.6h24l17.5,55.3l5.6-16.8L146.1,223.1z"/>
		<path class="st5" d="M297.8,284.4v19.3h-57.4v-80.6h56.4v19.3h-34.3v11.4h29.3v17.9h-29.3v12.7H297.8z"/>
		<path class="st5" d="M376.7,283.1c0,3.6-0.8,6.8-2.3,9.4c-1.5,2.6-3.6,4.8-6.2,6.4c-2.6,1.7-5.7,2.9-9.3,3.7
			c-3.5,0.8-7.2,1.2-11.2,1.2h-39.6v-80.6h46.8c2.8,0,5.3,0.6,7.6,1.8c2.3,1.2,4.2,2.8,5.8,4.7c1.6,1.9,2.8,4.1,3.7,6.6
			c0.9,2.5,1.3,5,1.3,7.5c0,3.8-1,7.4-2.9,10.8c-1.9,3.4-4.8,6-8.7,7.8c4.6,1.4,8.3,3.7,11,7.1C375.4,272.9,376.7,277.4,376.7,283.1
			z M330.3,242v12.4h15.1c1.5,0,2.9-0.4,4.1-1.2c1.2-0.8,1.9-2.5,1.9-5c0-2.2-0.5-3.8-1.6-4.7c-1.1-0.9-2.3-1.4-3.7-1.4H330.3z
			 M354.3,278.5c0-2-0.5-3.6-1.6-4.9c-1.1-1.3-2.4-2-4.1-2h-18.3v13.5h17.5c1.8,0,3.3-0.6,4.6-1.7
			C353.6,282.3,354.3,280.7,354.3,278.5z"/>
	</g>
	<g>
		<path class="st6" d="M141.3,219.8h20.3l7,24.9l7.2-24.9h20.3l-13.3,38.5l5.8,16.8l17.4-55.3h24.1l-31.6,80.6h-18.4l-11.5-28.8
			l-11.4,28.8h-18.4l-31.6-80.6h24l17.5,55.3l5.6-16.8L141.3,219.8z"/>
		<path class="st6" d="M293.1,281.1v19.3h-57.4v-80.6h56.4v19.3h-34.3v11.4h29.3v17.9h-29.3v12.7H293.1z"/>
		<path class="st6" d="M372,279.8c0,3.6-0.8,6.8-2.3,9.4c-1.5,2.6-3.6,4.8-6.2,6.4c-2.6,1.7-5.7,2.9-9.3,3.7
			c-3.5,0.8-7.2,1.2-11.2,1.2h-39.6v-80.6h46.8c2.8,0,5.3,0.6,7.6,1.8c2.3,1.2,4.2,2.8,5.8,4.7c1.6,1.9,2.8,4.1,3.7,6.6
			c0.9,2.5,1.3,5,1.3,7.5c0,3.8-1,7.4-2.9,10.8c-1.9,3.4-4.8,6-8.7,7.8c4.6,1.4,8.3,3.7,11,7.1C370.7,269.6,372,274.1,372,279.8z
			 M325.6,238.7V251h15.1c1.5,0,2.9-0.4,4.1-1.2c1.2-0.8,1.9-2.5,1.9-5c0-2.2-0.5-3.8-1.6-4.7c-1.1-0.9-2.3-1.4-3.7-1.4H325.6z
			 M349.5,275.2c0-2-0.5-3.6-1.6-4.9c-1.1-1.3-2.4-2-4.1-2h-18.3v13.5h17.5c1.8,0,3.3-0.6,4.6-1.7
			C348.9,279,349.5,277.3,349.5,275.2z"/>
	</g>
	<g>
		<path class="st7" d="M135.9,216.4h20.3l7,24.9l7.2-24.9h20.3l-13.3,38.5l5.8,16.8l17.4-55.3h24.1L193.1,297h-18.4l-11.5-28.8
			L151.9,297h-18.4L102,216.4h24l17.5,55.3l5.6-16.8L135.9,216.4z"/>
		<path class="st7" d="M287.7,277.7V297h-57.4v-80.6h56.4v19.3h-34.3V247h29.3V265h-29.3v12.7H287.7z"/>
		<path class="st7" d="M366.6,276.3c0,3.6-0.8,6.8-2.3,9.4c-1.5,2.6-3.6,4.8-6.2,6.4c-2.6,1.7-5.7,2.9-9.3,3.7
			c-3.5,0.8-7.2,1.2-11.2,1.2H298v-80.6h46.8c2.8,0,5.3,0.6,7.6,1.8c2.3,1.2,4.2,2.8,5.8,4.7c1.6,1.9,2.8,4.1,3.7,6.6
			c0.9,2.5,1.3,5,1.3,7.5c0,3.8-1,7.4-2.9,10.8c-1.9,3.4-4.8,6-8.7,7.8c4.6,1.4,8.3,3.7,11,7.1C365.2,266.1,366.6,270.6,366.6,276.3
			z M320.1,235.2v12.4h15.1c1.5,0,2.9-0.4,4.1-1.2c1.2-0.8,1.9-2.5,1.9-5c0-2.2-0.5-3.8-1.6-4.7c-1.1-0.9-2.3-1.4-3.7-1.4H320.1z
			 M344.1,271.8c0-2-0.5-3.6-1.6-4.9c-1.1-1.3-2.4-2-4.1-2h-18.3v13.5h17.5c1.8,0,3.3-0.6,4.6-1.7
			C343.5,275.5,344.1,273.9,344.1,271.8z"/>
	</g>
	<g>
		<g>
			<path class="st8" d="M132,211.7h20.3l7,24.9l7.2-24.9h20.3l-13.3,38.5l5.8,16.8l17.4-55.3h24.1l-31.6,80.6h-18.4l-11.5-28.8
				L148,292.3h-18.4l-31.6-80.6h24l17.5,55.3l5.6-16.8L132,211.7z"/>
			<path class="st8" d="M283.8,273v19.3h-57.4v-80.6h56.4V231h-34.3v11.4h29.3v17.9h-29.3V273H283.8z"/>
			<path class="st8" d="M362.7,271.7c0,3.6-0.8,6.8-2.3,9.4c-1.5,2.6-3.6,4.8-6.2,6.4c-2.6,1.7-5.7,2.9-9.3,3.7
				c-3.5,0.8-7.2,1.2-11.2,1.2h-39.6v-80.6h46.8c2.8,0,5.3,0.6,7.6,1.8c2.3,1.2,4.2,2.8,5.8,4.7c1.6,1.9,2.8,4.1,3.7,6.6
				c0.9,2.5,1.3,5,1.3,7.5c0,3.8-1,7.4-2.9,10.8c-1.9,3.4-4.8,6-8.7,7.8c4.6,1.4,8.3,3.7,11,7.1C361.4,261.5,362.7,266,362.7,271.7z
				 M316.3,230.6V243h15.1c1.5,0,2.9-0.4,4.1-1.2c1.2-0.8,1.9-2.5,1.9-5c0-2.2-0.5-3.8-1.6-4.7c-1.1-0.9-2.3-1.4-3.7-1.4H316.3z
				 M340.2,267.1c0-2-0.5-3.6-1.6-4.9c-1.1-1.3-2.4-2-4.1-2h-18.3v13.5h17.5c1.8,0,3.3-0.6,4.6-1.7
				C339.6,270.9,340.2,269.3,340.2,267.1z"/>
		</g>
	</g>
</g>
</svg>
