{"asset":{"generator":"3D Builder","version":"2.0"},"scene":0,"scenes":[{"nodes":[0]}],"nodes":[{"mesh":0,"matrix":[0.99999994039535522,0,0,0,0,0.99999958276748657,0,0,0,0,0.99999958276748657,0,0,-0.0017862677341327071,-0.012141994200646877,1]}],"meshes":[{"primitives":[{"attributes":{"POSITION":0,"TEXCOORD_0":7},"mode":4,"indices":14,"material":0},{"attributes":{"POSITION":1,"TEXCOORD_0":8},"mode":4,"indices":15,"material":1},{"attributes":{"POSITION":2,"TEXCOORD_0":9},"mode":4,"indices":16,"material":2},{"attributes":{"POSITION":3,"TEXCOORD_0":10},"mode":4,"indices":17,"material":1},{"attributes":{"POSITION":4,"TEXCOORD_0":11},"mode":4,"indices":18,"material":0},{"attributes":{"POSITION":5,"TEXCOORD_0":12},"mode":4,"indices":19,"material":3},{"attributes":{"POSITION":6,"TEXCOORD_0":13},"mode":4,"indices":20,"material":4}]}],"materials":[{"pbrMetallicRoughness":{"baseColorFactor":[1,1,1,1],"metallicFactor":0,"roughnessFactor":1,"baseColorTexture":{"index":0,"texCoord":0}},"alphaMode":"OPAQUE"},{"pbrMetallicRoughness":{"baseColorFactor":[1,1,1,1],"metallicFactor":0,"roughnessFactor":1,"baseColorTexture":{"index":1,"texCoord":0}},"alphaMode":"OPAQUE"},{"pbrMetallicRoughness":{"baseColorFactor":[1,1,1,1],"metallicFactor":0,"roughnessFactor":1,"baseColorTexture":{"index":2,"texCoord":0}},"alphaMode":"OPAQUE"},{"pbrMetallicRoughness":{"baseColorFactor":[1,1,1,1],"metallicFactor":0,"roughnessFactor":1,"baseColorTexture":{"index":3,"texCoord":0}},"alphaMode":"OPAQUE"},{"pbrMetallicRoughness":{"baseColorFactor":[1,1,1,1],"metallicFactor":0,"roughnessFactor":1,"baseColorTexture":{"index":4,"texCoord":0}},"alphaMode":"OPAQUE"}],"textures":[{"source":0,"sampler":0},{"source":1,"sampler":0},{"source":2,"sampler":0},{"source":3,"sampler":0},{"source":4,"sampler":0}],"images":[{"uri":"building_general_store_1238_floor_Mat_baseColor.png"},{"uri":"building_general_store_1238_awnings_Mat_baseColor.png"},{"uri":"building_general_store_1238_window_Mat_baseColor.png"},{"uri":"building_general_store_1238_building_Mat_baseColor.png"},{"uri":"building_general_store_1238_glass_Mat_baseColor.png"}],"samplers":[{"magFilter":9729,"wrapS":10497,"wrapT":10497}],"accessors":[{"bufferView":0,"byteOffset":0,"count":1230,"componentType":5126,"type":"VEC3","min":[-0.0094947665929794312,0,-0.010145626962184906],"max":[0.0093383071944117546,0.0026962640695273876,0.008649664930999279]},{"bufferView":0,"byteOffset":14760,"count":12256,"componentType":5126,"type":"VEC3","min":[-0.0091309286653995514,7.7514006989076734E-5,-0.009999309666454792],"max":[0.0091383503749966621,0.023435201495885849,0.01035572774708271]},{"bufferView":0,"byteOffset":161832,"count":16514,"componentType":5126,"type":"VEC3","min":[-0.00948734674602747,6.6362001234665513E-5,-0.01035572774708271],"max":[0.0094947665929794312,0.024283992126584053,0.0094679864123463631]},{"bufferView":0,"byteOffset":360000,"count":13762,"componentType":5126,"type":"VEC3","min":[-0.0075616925023496151,0.019504716619849205,0.0082999728620052338],"max":[0.0074057653546333313,0.021799346432089806,0.0085615124553442]},{"bufferView":0,"byteOffset":525144,"count":508,"componentType":5126,"type":"VEC3","min":[-0.0093821873888373375,0.023436060175299644,-0.010102373547852039],"max":[0.009492531418800354,0.024014580994844437,0.0088416924700140953]},{"bufferView":0,"byteOffset":531240,"count":2583,"componentType":5126,"type":"VEC3","min":[-0.00927999522536993,7.7517004683613777E-5,-0.0100657744333148],"max":[0.009181520901620388,0.023435201495885849,0.0084284283220767975]},{"bufferView":0,"byteOffset":562236,"count":128,"componentType":5126,"type":"VEC3","min":[-0.0089853936806321144,7.7517004683613777E-5,-0.0098612150177359581],"max":[0.0090076969936490059,0.0180178415030241,0.0084044681861996651]},{"bufferView":1,"byteOffset":0,"count":1230,"componentType":5126,"type":"VEC2"},{"bufferView":1,"byteOffset":9840,"count":12256,"componentType":5126,"type":"VEC2"},{"bufferView":1,"byteOffset":107888,"count":16514,"componentType":5126,"type":"VEC2"},{"bufferView":1,"byteOffset":240000,"count":13762,"componentType":5126,"type":"VEC2"},{"bufferView":1,"byteOffset":350096,"count":508,"componentType":5126,"type":"VEC2"},{"bufferView":1,"byteOffset":354160,"count":2583,"componentType":5126,"type":"VEC2"},{"bufferView":1,"byteOffset":374824,"count":128,"componentType":5126,"type":"VEC2"},{"bufferView":2,"byteOffset":0,"count":6024,"componentType":5125,"type":"SCALAR"},{"bufferView":2,"byteOffset":24096,"count":59802,"componentType":5125,"type":"SCALAR"},{"bufferView":2,"byteOffset":263304,"count":74295,"componentType":5125,"type":"SCALAR"},{"bufferView":2,"byteOffset":560484,"count":63915,"componentType":5125,"type":"SCALAR"},{"bufferView":2,"byteOffset":816144,"count":2388,"componentType":5125,"type":"SCALAR"},{"bufferView":2,"byteOffset":825696,"count":11868,"componentType":5125,"type":"SCALAR"},{"bufferView":2,"byteOffset":873168,"count":192,"componentType":5125,"type":"SCALAR"}],"bufferViews":[{"buffer":0,"byteOffset":0,"byteLength":563772,"byteStride":12,"target":34962},{"buffer":0,"byteOffset":563772,"byteLength":375848,"byteStride":8,"target":34962},{"buffer":0,"byteOffset":939620,"byteLength":873936,"target":34963}],"buffers":[{"byteLength":1813556,"uri":"building_general_store.bin"}]}