{
  "asset": {
    "generator": "3D Builder",
    "version": "2.0"
  },
  "scene": 0,
  "scenes": [
    {
      "nodes": [
        0
      ]
    }
  ],
  "nodes": [
    {
      "mesh": 0,
      "matrix": [
        0.9999999403953552,
        0,
        0,
        0,
        0,
        0.9999995827674866,
        0,
        0,
        0,
        0,
        0.9999995827674866,
        0,
        0,
        0.006299949251115322,
        -0.011310149915516376,
        1
      ]
    }
  ],
  "meshes": [
    {
      "primitives": [
        {
          "attributes": {
            "POSITION": 0,
            "TEXCOORD_0": 2
          },
          "mode": 4,
          "indices": 4,
          "material": 0
        },
        {
          "attributes": {
            "POSITION": 1,
            "TEXCOORD_0": 3
          },
          "mode": 4,
          "indices": 5,
          "material": 1
        }
      ]
    }
  ],
  "materials": [
    {
      "pbrMetallicRoughness": {
        "baseColorFactor": [
          1,
          1,
          1,
          1
        ],
        "metallicFactor": 0,
        "roughnessFactor": 1,
        "baseColorTexture": {
          "index": 0,
          "texCoord": 0
        }
      },
      "alphaMode": "OPAQUE"
    },
    {
      "pbrMetallicRoughness": {
        "baseColorFactor": [
          1,
          1,
          1,
          1
        ],
        "metallicFactor": 0,
        "roughnessFactor": 1,
        "baseColorTexture": {
          "index": 1,
          "texCoord": 0
        }
      },
      "alphaMode": "OPAQUE"
    }
  ],
  "textures": [
    {
      "source": 0,
      "sampler": 0
    },
    {
      "source": 1,
      "sampler": 0
    }
  ],
  "images": [
    {
      "uri": "stationshop_img0.png"
    },
    {
      "uri": "stationshop_img1.png"
    }
  ],
  "samplers": [
    {
      "magFilter": 9729,
      "wrapS": 10497,
      "wrapT": 10497
    }
  ],
  "accessors": [
    {
      "bufferView": 0,
      "byteOffset": 0,
      "count": 413,
      "componentType": 5126,
      "type": "VEC3",
      "min": [
        -0.02996170148253441,
        0,
        -0.017598601058125496
      ],
      "max": [
        0.02996170148253441,
        0.013821100816130638,
        0.01698180101811886
      ]
    },
    {
      "bufferView": 0,
      "byteOffset": 4956,
      "count": 104,
      "componentType": 5126,
      "type": "VEC3",
      "min": [
        -0.02997320145368576,
        0.013821100816130638,
        -0.017610101029276848
      ],
      "max": [
        0.02997320145368576,
        0.022620301693677902,
        0.017610101029276848
      ]
    },
    {
      "bufferView": 1,
      "byteOffset": 0,
      "count": 413,
      "componentType": 5126,
      "type": "VEC2"
    },
    {
      "bufferView": 1,
      "byteOffset": 3304,
      "count": 104,
      "componentType": 5126,
      "type": "VEC2"
    },
    {
      "bufferView": 2,
      "byteOffset": 0,
      "count": 1146,
      "componentType": 5125,
      "type": "SCALAR"
    },
    {
      "bufferView": 2,
      "byteOffset": 4584,
      "count": 228,
      "componentType": 5125,
      "type": "SCALAR"
    }
  ],
  "bufferViews": [
    {
      "buffer": 0,
      "byteOffset": 0,
      "byteLength": 6204,
      "byteStride": 12,
      "target": 34962
    },
    {
      "buffer": 0,
      "byteOffset": 6204,
      "byteLength": 4136,
      "byteStride": 8,
      "target": 34962
    },
    {
      "buffer": 0,
      "byteOffset": 10340,
      "byteLength": 5496,
      "target": 34963
    }
  ],
  "buffers": [
    {
      "uri": "stationshop_data.bin",
      "byteLength": 15836
    }
  ]
}